<svg width="132" height="14" viewBox="0 0 132 14" fill="none" xmlns="http://www.w3.org/2000/svg"><path d="M11.8 1.726H.25v11.55h3.529V4.407H11.8V1.726zm10.114 5.979c.664 0 1.19-.02 1.571-.062.382-.042.672-.116.87-.225a.75.75 0 00.36-.492c.057-.218.085-.505.085-.86v-.144c0-.354-.028-.641-.085-.86a.688.688 0 00-.36-.493c-.198-.123-.488-.205-.87-.245a15.317 15.317 0 00-1.571-.062h-4.117v3.441h4.117v.002zm-4.117 5.57h-3.522V1.726h8.254c1.174 0 2.136.055 2.887.164.75.109 1.337.314 1.76.614.426.287.716.702.87 1.249.17.532.254 1.23.254 2.088v.307c0 .86-.085 1.563-.254 2.11-.156.532-.446.95-.87 1.25-.425.299-1.012.504-1.76.613-.75.109-1.713.163-2.887.163h-4.732v2.993zm27.828 0H41.62l-1.15-2.068h-7.88l-1.13 2.069h-3.984l6.795-11.55h4.538l6.817 11.55zm-6.487-4.484l-2.59-4.649h-.09l-2.545 4.649h5.225zm8.137 4.483V1.726h9.696c.916 0 1.676.047 2.281.143.62.096 1.112.26 1.48.492.365.218.627.512.78.88.156.369.233.827.233 1.373 0 .806-.148 1.405-.444 1.803-.296.396-.704.668-1.225.819v.041c.661.11 1.169.376 1.52.8.353.422.529 1.043.529 1.862 0 .655-.084 1.201-.253 1.637a2.302 2.302 0 01-.78 1.024c-.353.245-.797.423-1.332.532a10.93 10.93 0 01-1.901.144H47.275v-.002zm9.971-2.457c.536 0 .901-.096 1.098-.286.211-.206.316-.505.316-.9 0-.411-.105-.703-.316-.881-.197-.178-.564-.267-1.098-.267h-6.463v2.334h6.463zm-.084-4.546c.367 0 .648-.074.845-.225.211-.15.316-.43.316-.838 0-.438-.105-.73-.316-.88-.197-.152-.48-.226-.845-.226h-6.38v2.171h6.38v-.002zm7.438 7.005h5.53l7.269-8.643h.088v8.643H81.1V1.726h-5.617l-7.182 8.642h-.066V1.727H64.6v11.55zm26.942 0H87.96v-8.95h-5.21v-2.6h14.025v2.6h-5.233v8.95zm14.441-.002c-1.162 0-1.784-.028-2.631-.085-.832-.044-1.542-.135-2.129-.28-.588-.157-1.069-.37-1.443-.64a2.725 2.725 0 01-.84-1.072c-.2-.442-.337-.985-.408-1.627a21.026 21.026 0 01-.107-2.312v-.342c0-.9.037-1.67.107-2.312.073-.642.208-1.185.409-1.627.2-.458.48-.82.839-1.092.374-.272.853-.479 1.443-.621.587-.142 1.297-.235 2.129-.279a34.154 34.154 0 012.631-.086h.559c1.162 0 1.779.029 2.611.086.847.044 1.564.135 2.152.279.588.142 1.061.35 1.42.62.374.272.66.637.86 1.092.2.443.338.986.408 1.628.073.641.107 1.412.107 2.312v.342c0 .9-.036 1.67-.107 2.312-.072.642-.208 1.193-.408 1.648-.2.443-.488.8-.86 1.071-.359.271-.832.478-1.42.62-.588.143-1.305.236-2.152.28-.832.057-1.449.085-2.611.085h-.559zm.429-2.804c1.048 0 1.483-.028 2.073-.085.603-.057 1.047-.194 1.333-.407.302-.227.481-.563.538-1.006.073-.442.107-1.042.107-1.798v-.191c0-.771-.036-1.379-.107-1.821-.057-.458-.236-.792-.538-1.006-.286-.228-.73-.37-1.333-.43-.588-.056-1.025-.085-2.073-.085h-.301c-1.061 0-1.505.028-2.093.085-.588.057-1.032.2-1.334.43-.286.214-.465.548-.538 1.006-.057.442-.086 1.05-.086 1.82v.192c0 .758.029 1.356.086 1.798.073.443.252.779.538 1.006.302.215.746.35 1.334.407.588.057 1.032.085 2.093.085h.301zm25.013 2.806h-3.519V8.81h-7.812v4.465h-3.519V1.726h3.519v4.218h7.812V1.726h3.519v11.55z" fill="#fff"/></svg>