<?xml version="1.0" encoding="UTF-8"?><!DOCTYPE svg PUBLIC "-//W3C//DTD SVG 1.1//EN" "http://www.w3.org/Graphics/SVG/1.1/DTD/svg11.dtd"><svg xmlns="http://www.w3.org/2000/svg" xmlns:xlink="http://www.w3.org/1999/xlink"><defs>
        <clipPath id="clip0_1345_21289">
            <path d="M0 0h25.157v25H0z"/>
        </clipPath>
    
        <clipPath id="clip0_598_13347">
            <path d="M0 0h16v16H0z"/>
        </clipPath>
    </defs><symbol id="ico-mono-arrow-back" viewBox="0 0 20 12">
    <path d="M2.323 5.85h-1.27l.929.865 4.281 3.994s0 0 0 0c.03.029.04.06.04.084 0 .024-.01.055-.04.084a.207.207 0 01-.14.052.207.207 0 01-.14-.052L.54 5.798h0a.134.134 0 01-.032-.044.098.098 0 010-.08.134.134 0 01.032-.043h0L5.982.55A.207.207 0 016.122.5c.06 0 .11.022.141.052.03.028.04.06.04.084a.116.116 0 01-.04.084L1.982 4.714l-.928.865h17.313c.058 0 .108.022.14.052.03.028.04.06.04.083 0 .024-.01.055-.04.084a.206.206 0 01-.14.051H2.323z"/>
</symbol><symbol id="ico-mono-arrow-circle" viewBox="0 0 40 40">
    <circle r="19.5" transform="matrix(-1 0 0 1 20 20)"/>
    <path d="M22 11.002l-2 4.5-2 4.5 4 9" stroke-linecap="round" stroke-linejoin="round"/>
</symbol><symbol id="ico-mono-arrow-fat" viewBox="0 0 8 12">
    <path d="M7.39 6.779l-5.674 4.963c-.669.586-1.716.11-1.716-.78V1.037a1.035 1.035 0 011.717-.78L7.388 5.22a1.035 1.035 0 010 1.559h.001z"/>
</symbol><symbol id="ico-mono-arrow-more" viewBox="0 0 6 9">
    <path d="M5.727 5.084L1.33 8.806C.812 9.246 0 8.89 0 8.222V.777c0-.15.044-.295.128-.42A.795.795 0 01.47.068a.826.826 0 01.86.123l4.395 3.723A.779.779 0 016 4.499a.755.755 0 01-.274.585z"/>
</symbol><symbol id="ico-mono-arrow" viewBox="0 0 20 7">
    <path d="M1 1h18l-5.351 5" stroke-linecap="round" stroke-linejoin="round"/>
</symbol><symbol id="ico-mono-download" viewBox="0 0 26 25">
    <g clip-path="url(#clip0_1345_21289)">
        <path d="M.437 15.469a.79.79 0 01.557.229c.147.146.23.345.23.552v3.906c0 .415.166.812.461 1.105a1.58 1.58 0 001.113.458h18.887a1.58 1.58 0 001.113-.458c.295-.293.461-.69.461-1.105V16.25c0-.207.083-.406.23-.552a.79.79 0 011.114 0c.147.146.23.345.23.552v3.906c0 .83-.332 1.624-.922 2.21a3.16 3.16 0 01-2.226.915H2.798a3.16 3.16 0 01-2.226-.915 3.114 3.114 0 01-.922-2.21V16.25c0-.207.083-.406.23-.552a.79.79 0 01.557-.23z"/>
        <path d="M11.685 18.522a.787.787 0 00.859.17.787.787 0 00.255-.17l4.722-4.688a.78.78 0 00-.557-1.335.791.791 0 00-.557.23l-3.378 3.354V2.343a.778.778 0 00-.23-.552.79.79 0 00-1.113 0 .778.778 0 00-.23.553v13.739l-3.378-3.355a.79.79 0 00-1.346.553.78.78 0 00.231.553l4.722 4.688z"/>
    </g>
    
</symbol><symbol id="ico-mono-emblem" viewBox="0 0 32 33">
    <path d="M11.873 0L2.138 5.563A4.225 4.225 0 000 9.228v11.088l3.36-1.92V9.228c0-.324.175-.624.458-.786l8.055-4.602V0z"/>
    <path d="M13.537 32.433L3.8 26.87l3.36-1.92 8.056 4.603a.925.925 0 00.916 0l8.022-4.584 3.36 1.92-9.702 5.544a4.315 4.315 0 01-4.276 0z"/>
    <path d="M31.35 20.354V9.228c0-1.512-.815-2.91-2.138-3.665L19.509.019v3.84l8.023 4.583a.905.905 0 01.458.786v9.206l3.36 1.92z"/>
    <path d="M22.444 22.183l.657-1.12-7.436-4.219-7.49 4.25.64 1.088h13.63z"/>
    <path d="M7.397 19.703l7.49-4.249v-8.69h-1.088L6.797 18.683l.6 1.021z"/>
    <path d="M16.438 6.765v8.69l7.436 4.218.64-1.087-6.945-11.821h-1.131z"/>
</symbol><symbol id="ico-mono-icon-breadcrumb" viewBox="0 0 15 15">
    <path d="M5.397 0L.972 2.528A1.92 1.92 0 000 4.194v5.04l1.527-.872V4.194c0-.147.08-.283.209-.357l3.66-2.092V0z"/>
    <path d="M6.153 14.742l-4.425-2.528 1.527-.873 3.662 2.092a.42.42 0 00.416 0l3.647-2.083 1.527.872-4.41 2.52a1.962 1.962 0 01-1.944 0z"/>
    <path d="M14.25 9.252V4.194a1.92 1.92 0 00-.972-1.666L8.868.008v1.746l3.646 2.083c.13.074.209.21.209.357V8.38l1.527.873z"/>
    <path d="M10.202 10.083l.299-.509-3.38-1.918-3.405 1.932.291.495h6.195z"/>
    <path d="M3.362 8.956l3.405-1.931v-3.95h-.495L3.09 8.492l.272.464z"/>
    <path d="M7.472 3.075v3.95l3.38 1.917.29-.494-3.156-5.373h-.514z"/>
</symbol><symbol id="ico-mono-icon-download" viewBox="0 0 20 20">
    <path d="M.625 12.375A.625.625 0 011.25 13v3.125a1.25 1.25 0 001.25 1.25h15a1.25 1.25 0 001.25-1.25V13A.624.624 0 1120 13v3.125a2.5 2.5 0 01-2.5 2.5h-15a2.5 2.5 0 01-2.5-2.5V13a.625.625 0 01.625-.625z"/>
    <path d="M9.558 14.818a.625.625 0 00.885 0l3.75-3.75a.626.626 0 00-.885-.886l-2.682 2.684V1.875a.625.625 0 00-1.25 0v10.991l-2.683-2.684a.626.626 0 10-.885.886l3.75 3.75z"/>
</symbol><symbol id="ico-mono-location" viewBox="0 0 15 15">
    <path d="M2 6.333l5.333 1.778L8.667 13 14 1 2 6.333z"/>
</symbol><symbol id="ico-mono-quote" viewBox="0 0 38 30">
    <path d="M37.984 1.746L35.19.001 17.535 28.256l2.793 1.745z"/>
    <path d="M20.449 1.746L17.656.001 0 28.256l2.793 1.745z"/>
</symbol><symbol id="ico-mono-rus" viewBox="0 0 183 55">
    <path d="M77.252 36.616c0 1.676-.636 2.316-2.2 2.316h-5.526v-5.717h5.525c1.565 0 2.2.789 2.2 2.316v1.085zM34.91 0H0v55h34.91V0zM75.05 29.47H63.513v3.498l2.053.296v13.998h3.96v-4.584h5.525c4.547 0 6.112-2.316 6.112-5.914v-1.38c0-3.401-1.467-5.915-6.112-5.915zm85.222 0h1.466v17.792h-3.96V34.644l-8.165 12.618h-4.547V29.469h3.96v12.177l5.965-9.318c1.516-2.366 2.836-2.859 5.281-2.859zM48.503 7.732h10.805v2.218c0 1.775-.147 3.253-.538 4.584h-3.374v-3.056h-6.894c-2.053 0-2.542.542-2.542 2.81v4.682c0 2.267.489 2.81 2.542 2.81h10.806v3.745H48.502c-5.036 0-6.503-1.478-6.503-6.555v-4.682c0-5.126 1.467-6.556 6.503-6.556zm109.276 0h3.96v17.793h-3.96V18.38h-8.752v7.147h-3.96V7.733h3.96v6.9h8.752v-6.9zM53.392 43.516h-6.846v-3.45h6.846c1.32 0 1.809.64 1.809 1.676 0 1.035-.49 1.774-1.81 1.774zm1.026-8.724c0 1.085-.537 1.676-1.907 1.676h-5.965v-3.204h5.965c1.37 0 1.907.493 1.907 1.528zm2.261 3.067c.928-.57 1.7-1.784 1.7-3.658 0-2.415-1.37-4.732-5.427-4.732H42.586v17.793h10.757c3.911 0 5.818-2.02 5.818-5.323 0-2.22-1.265-3.53-2.482-4.08zm74.111-8.39h10.903v2.218c0 1.775-.147 3.253-.538 4.584h-3.374v-3.056h-6.991c-2.054 0-2.543.542-2.543 2.81v4.682c0 2.267.489 2.81 2.543 2.81h10.903v3.745H130.79c-5.036 0-6.503-1.479-6.503-6.555v-4.683c0-5.126 1.467-6.555 6.503-6.555zM97.396 40.707c0 2.267-.49 2.81-2.543 2.81H90.16c-2.053 0-2.542-.543-2.542-2.81v-4.683c0-2.267.489-2.809 2.542-2.809h4.694c2.053 0 2.543.542 2.543 2.81v4.682zm-2.543-11.238H90.16c-5.036 0-6.503 1.43-6.503 6.555v4.683c0 5.076 1.467 6.555 6.503 6.555h4.694c5.085 0 6.503-1.479 6.503-6.555v-4.683c0-5.126-1.418-6.555-6.503-6.555zM68.558 11.48h6.982v9.76h-8.47c.54-.954.769-2.284.94-3.993l.547-5.767zM79.5 7.733H65.077l-.88 9.02c-.44 4.288-1.076 4.978-2.25 4.978h-.244v5.47h3.765l.147-2.266h11.637l.146 2.267h3.765v-5.52h-1.662V7.733zm31.145 21.736H121.5v2.218c0 1.775-.147 3.253-.538 4.584h-3.373v-3.056h-6.943c-2.054 0-2.543.542-2.543 2.81v4.682c0 2.267.489 2.81 2.543 2.81H121.5v3.745h-10.854c-5.036 0-6.503-1.479-6.503-6.555v-4.683c0-5.126 1.467-6.555 6.503-6.555zm67.815-10.498c0 2.267-.489 2.81-2.543 2.81h-4.351c-2.054 0-2.543-.543-2.543-2.81v-4.682c0-2.268.489-2.81 2.543-2.81h4.351c2.054 0 2.543.542 2.543 2.81v4.682zm-2.543-11.238h-4.351c-5.036 0-6.503 1.43-6.503 6.556v4.682c0 5.077 1.956 6.555 6.992 6.555h3.374c5.084 0 6.991-1.478 6.991-6.555v-4.682c0-5.126-1.418-6.556-6.503-6.556zM83.95 18.971v-4.682c0-5.126 1.418-6.556 6.503-6.556h10.365v3.746h-10.56c-2.054 0-2.348.345-2.348 2.612v.592h10.023v3.696H87.91v.79c0 2.266.294 2.611 2.347 2.611h10.708v3.746H90.453c-5.085 0-6.503-1.478-6.503-6.555zm47.231-7.492h6.209v4.387h-8.752v-1.577c0-2.021.245-2.81 2.543-2.81zm-2.543 8.083h8.752v5.964h3.961V7.733h-10.17c-4.987 0-6.503 1.38-6.503 6.556v11.237h3.96v-5.964zM23.322 29.47h3.96v17.793H14.62c-5.085 0-6.992-1.922-6.992-7.048V29.469h3.96v10.843c0 2.268.88 3.204 2.934 3.204h8.801V29.47zM3.814 3.84h27.282v47.317H3.814V3.84zm99.547 21.687v-3.795c1.613 0 2.004-.986 2.347-4.288l1.075-9.71h14.179v17.793h-3.96V11.48h-6.829l-.701 6.802c-.586 5.865-2.151 7.442-6.111 7.245zm77.3 3.943h1.467v17.793h-3.96V34.644l-8.166 12.618h-4.547V29.469h3.96v12.177l5.965-9.318c1.516-2.366 2.836-2.859 5.281-2.859zM21.367 15.521h-9.78v-4.042h9.78c1.466 0 2.15.789 2.15 1.972 0 1.183-.586 2.07-2.15 2.07zm6.111-2.514c0-2.957-1.418-5.274-5.574-5.274H7.627v17.793h3.96v-6.26h9.144c2.053 0 2.591.592 2.591 2.662v3.598h3.96v-4.239c0-2.114-.744-3.354-2.396-3.776 1.72-.586 2.592-2.262 2.592-4.504z"/>
</symbol><symbol id="ico-mono-search" viewBox="0 0 16 16">
    <g clip-path="url(#clip0_598_13347)">
        <path fill-rule="evenodd" clip-rule="evenodd" d="M6.5 12a5.5 5.5 0 100-11 5.5 5.5 0 000 11zM13 6.5a6.5 6.5 0 11-13 0 6.5 6.5 0 0113 0z"/>
        <path d="M9 11.742c.03.04.062.078.098.115l3.85 3.85a1 1 0 101.415-1.414l-3.85-3.85a1.012 1.012 0 00-.115-.1A6.537 6.537 0 019 11.743v-.001z"/>
    </g>
    
</symbol></svg>