<?xml version="1.0" encoding="UTF-8"?><!DOCTYPE svg PUBLIC "-//W3C//DTD SVG 1.1//EN" "http://www.w3.org/Graphics/SVG/1.1/DTD/svg11.dtd"><svg xmlns="http://www.w3.org/2000/svg" xmlns:xlink="http://www.w3.org/1999/xlink"><symbol id="ico-color-arrow-circle" viewBox="0 0 40 40">
    <circle r="19.5" transform="matrix(-1 0 0 1 20 20)" stroke="#EBEBEF"/>
    <path d="M22 11.002l-2 4.5-2 4.5 4 9" stroke="#EBEBEF" stroke-linecap="round" stroke-linejoin="round"/>
</symbol><symbol id="ico-color-emblem" viewBox="0 0 32 33">
    <path d="M11.873 0L2.138 5.563A4.225 4.225 0 000 9.228v11.088l3.36-1.92V9.228c0-.324.175-.624.458-.786l8.055-4.602V0z" fill="#D91745"/>
    <path d="M13.537 32.433L3.8 26.87l3.36-1.92 8.056 4.603a.925.925 0 00.916 0l8.022-4.584 3.36 1.92-9.702 5.544a4.315 4.315 0 01-4.276 0z" fill="#D91745"/>
    <path d="M31.35 20.354V9.228c0-1.512-.815-2.91-2.138-3.665L19.509.019v3.84l8.023 4.583a.905.905 0 01.458.786v9.206l3.36 1.92z" fill="#D91745"/>
    <path d="M22.444 22.183l.657-1.12-7.436-4.219-7.49 4.25.64 1.088h13.63z" fill="#D91745"/>
    <path d="M7.397 19.703l7.49-4.249v-8.69h-1.088L6.797 18.683l.6 1.021z" fill="#D91745"/>
    <path d="M16.438 6.765v8.69l7.436 4.218.64-1.087-6.945-11.821h-1.131z" fill="#D91745"/>
</symbol><symbol id="ico-color-logo" viewBox="0 0 173 33">
    <path d="M52.8 10.726H41.25v11.55h3.529v-8.868H52.8v-2.682z" fill="#fff"/>
    <path d="M62.914 16.705c.664 0 1.19-.02 1.571-.062.382-.042.672-.116.87-.225a.75.75 0 00.36-.492c.057-.218.085-.505.085-.86v-.144c0-.354-.028-.641-.084-.86a.688.688 0 00-.362-.493c-.197-.123-.487-.205-.869-.245a15.321 15.321 0 00-1.571-.062h-4.117v3.441h4.117v.002zm-4.117 5.57h-3.522v-11.55h8.254c1.174 0 2.136.055 2.886.164.751.109 1.338.314 1.762.614.425.287.715.702.869 1.249.17.532.254 1.23.254 2.088v.307c0 .86-.085 1.563-.254 2.11-.156.532-.446.95-.87 1.25-.425.299-1.012.504-1.76.613-.75.109-1.713.163-2.887.163h-4.732v2.993z" fill="#fff"/>
    <path d="M86.625 22.276H82.62l-1.15-2.069h-7.88l-1.13 2.069h-3.984l6.795-11.55h4.538l6.817 11.55zm-6.487-4.485l-2.59-4.649h-.09l-2.545 4.649h5.225z" fill="#fff"/>
    <path d="M88.275 22.274V10.726h9.696c.916 0 1.676.047 2.281.143.62.096 1.112.26 1.48.492.365.218.627.512.78.88.156.369.233.827.233 1.373 0 .806-.148 1.405-.444 1.803-.296.396-.704.668-1.225.818v.042c.661.11 1.169.376 1.521.8.352.422.528 1.043.528 1.862 0 .655-.084 1.201-.253 1.637a2.298 2.298 0 01-.781 1.024c-.352.245-.796.423-1.332.532-.535.096-1.168.144-1.9.144H88.275v-.002zm9.971-2.457c.536 0 .901-.096 1.098-.286.211-.206.316-.505.316-.9 0-.411-.105-.704-.316-.881-.197-.178-.564-.267-1.098-.267h-6.463v2.334h6.463zm-.084-4.546c.367 0 .648-.074.844-.225.212-.15.317-.43.317-.838 0-.438-.105-.73-.316-.88-.197-.152-.48-.226-.845-.226h-6.38v2.171h6.38v-.002z" fill="#fff"/>
    <path d="M105.6 22.276h5.529l7.27-8.643h.088v8.643h3.613v-11.55h-5.617l-7.182 8.643h-.066v-8.643H105.6v11.55z" fill="#fff"/>
    <path d="M132.542 22.276h-3.582v-8.95h-5.21v-2.6h14.025v2.6h-5.233v8.95z" fill="#fff"/>
    <path d="M146.983 22.274c-1.162 0-1.784-.028-2.631-.085-.832-.044-1.542-.135-2.129-.28-.588-.157-1.069-.37-1.443-.64a2.729 2.729 0 01-.84-1.072c-.2-.442-.337-.985-.408-1.627a21.173 21.173 0 01-.107-2.312v-.342c0-.9.037-1.67.107-2.312.073-.642.208-1.185.408-1.627.201-.458.481-.82.84-1.092.374-.272.853-.479 1.443-.621.587-.142 1.297-.235 2.129-.279a34.154 34.154 0 012.631-.086h.559c1.162 0 1.779.029 2.611.086.847.043 1.564.135 2.152.279.588.142 1.061.35 1.42.62.374.272.66.637.86 1.092.2.443.338.986.408 1.627.073.642.107 1.413.107 2.313v.342c0 .9-.036 1.67-.107 2.312-.072.642-.208 1.193-.408 1.648-.2.443-.488.8-.86 1.071-.359.271-.832.478-1.42.62-.588.143-1.305.236-2.152.28-.832.057-1.449.085-2.611.085h-.559zm.429-2.804c1.048 0 1.483-.028 2.073-.085.603-.057 1.047-.194 1.333-.407.302-.227.481-.563.538-1.006.073-.442.107-1.042.107-1.798v-.191c0-.771-.036-1.379-.107-1.821-.057-.458-.236-.792-.538-1.006-.286-.228-.73-.37-1.333-.43-.588-.057-1.025-.085-2.073-.085h-.301c-1.061 0-1.505.028-2.093.085-.588.057-1.032.2-1.334.43-.286.214-.465.548-.538 1.006-.057.442-.086 1.05-.086 1.82v.192c0 .758.029 1.356.086 1.798.073.443.252.779.538 1.006.302.215.746.35 1.334.407.588.057 1.032.085 2.093.085h.301z" fill="#fff"/>
    <path d="M172.425 22.276h-3.519V17.81h-7.812v4.465h-3.519v-11.55h3.519v4.218h7.812v-4.218h3.519v11.55z" fill="#fff"/>
    <path d="M11.873 0L2.138 5.563A4.225 4.225 0 000 9.228v11.088l3.36-1.92V9.228c0-.324.175-.624.458-.786l8.055-4.602V0z" fill="#D91745"/>
    <path d="M13.537 32.433L3.8 26.87l3.36-1.92 8.056 4.603a.925.925 0 00.916 0l8.022-4.584 3.36 1.92-9.702 5.544a4.315 4.315 0 01-4.276 0z" fill="#D91745"/>
    <path d="M31.35 20.354V9.228c0-1.512-.815-2.91-2.138-3.665L19.509.019v3.84l8.023 4.583a.905.905 0 01.458.786v9.206l3.36 1.92z" fill="#D91745"/>
    <path d="M22.444 22.183l.657-1.12-7.436-4.219-7.49 4.25.64 1.088h13.63z" fill="#D91745"/>
    <path d="M7.397 19.703l7.49-4.249v-8.69h-1.088L6.797 18.683l.6 1.021z" fill="#D91745"/>
    <path d="M16.438 6.765v8.69l7.436 4.218.64-1.087-6.945-11.821h-1.131z" fill="#D91745"/>
</symbol></svg>