<?xml version="1.0" encoding="UTF-8"?><!DOCTYPE svg PUBLIC "-//W3C//DTD SVG 1.1//EN" "http://www.w3.org/Graphics/SVG/1.1/DTD/svg11.dtd"><svg xmlns="http://www.w3.org/2000/svg" xmlns:xlink="http://www.w3.org/1999/xlink"><defs>
        <clipPath id="clip0_1113_22113">
            <path fill="#fff" d="M0 0h207v35H0z"/>
        </clipPath>
    
        <clipPath id="clip0_1901_33328">
            <path fill="#fff" transform="translate(11 11)" d="M0 0h38v38H0z"/>
        </clipPath>
    </defs><symbol id="ico-color-arrow-circle" viewBox="0 0 40 40">
    <circle r="19.5" transform="matrix(-1 0 0 1 20 20)" stroke="#EBEBEF"/>
    <path d="M22 11.002l-2 4.5-2 4.5 4 9" stroke="#EBEBEF" stroke-linecap="round" stroke-linejoin="round"/>
</symbol><symbol id="ico-color-emblem" viewBox="0 0 32 33">
    <path d="M11.873 0L2.138 5.563A4.225 4.225 0 000 9.228v11.088l3.36-1.92V9.228c0-.324.175-.624.458-.786l8.055-4.602V0z" fill="#D91745"/>
    <path d="M13.537 32.433L3.8 26.87l3.36-1.92 8.056 4.603a.925.925 0 00.916 0l8.022-4.584 3.36 1.92-9.702 5.544a4.315 4.315 0 01-4.276 0z" fill="#D91745"/>
    <path d="M31.35 20.354V9.228c0-1.512-.815-2.91-2.138-3.665L19.509.019v3.84l8.023 4.583a.905.905 0 01.458.786v9.206l3.36 1.92z" fill="#D91745"/>
    <path d="M22.444 22.183l.657-1.12-7.436-4.219-7.49 4.25.64 1.088h13.63z" fill="#D91745"/>
    <path d="M7.397 19.703l7.49-4.249v-8.69h-1.088L6.797 18.683l.6 1.021z" fill="#D91745"/>
    <path d="M16.438 6.765v8.69l7.436 4.218.64-1.087-6.945-11.821h-1.131z" fill="#D91745"/>
</symbol><symbol id="ico-color-exclamation" viewBox="0 0 15 73">
    <path d="M14.508 0l-1.416 49.756H2.203L.787 0h13.72z" fill="#4E5056"/>
    <path d="M15 64.594a7.5 7.5 0 11-15 0 7.5 7.5 0 0115 0z" fill="#D50032"/>
</symbol><symbol id="ico-color-logo" viewBox="0 0 173 33">
    <path d="M52.8 10.726H41.25v11.55h3.529v-8.868H52.8v-2.682z" fill="#fff"/>
    <path d="M62.914 16.705c.664 0 1.19-.02 1.571-.062.382-.042.672-.116.87-.225a.75.75 0 00.36-.492c.057-.218.085-.505.085-.86v-.144c0-.354-.028-.641-.084-.86a.688.688 0 00-.362-.493c-.197-.123-.487-.205-.869-.245a15.321 15.321 0 00-1.571-.062h-4.117v3.441h4.117v.002zm-4.117 5.57h-3.522v-11.55h8.254c1.174 0 2.136.055 2.886.164.751.109 1.338.314 1.762.614.425.287.715.702.869 1.249.17.532.254 1.23.254 2.088v.307c0 .86-.085 1.563-.254 2.11-.156.532-.446.95-.87 1.25-.425.299-1.012.504-1.76.613-.75.109-1.713.163-2.887.163h-4.732v2.993z" fill="#fff"/>
    <path d="M86.625 22.276H82.62l-1.15-2.069h-7.88l-1.13 2.069h-3.984l6.795-11.55h4.538l6.817 11.55zm-6.487-4.485l-2.59-4.649h-.09l-2.545 4.649h5.225z" fill="#fff"/>
    <path d="M88.275 22.274V10.726h9.696c.916 0 1.676.047 2.281.143.62.096 1.112.26 1.48.492.365.218.627.512.78.88.156.369.233.827.233 1.373 0 .806-.148 1.405-.444 1.803-.296.396-.704.668-1.225.818v.042c.661.11 1.169.376 1.521.8.352.422.528 1.043.528 1.862 0 .655-.084 1.201-.253 1.637a2.298 2.298 0 01-.781 1.024c-.352.245-.796.423-1.332.532-.535.096-1.168.144-1.9.144H88.275v-.002zm9.971-2.457c.536 0 .901-.096 1.098-.286.211-.206.316-.505.316-.9 0-.411-.105-.704-.316-.881-.197-.178-.564-.267-1.098-.267h-6.463v2.334h6.463zm-.084-4.546c.367 0 .648-.074.844-.225.212-.15.317-.43.317-.838 0-.438-.105-.73-.316-.88-.197-.152-.48-.226-.845-.226h-6.38v2.171h6.38v-.002z" fill="#fff"/>
    <path d="M105.6 22.276h5.529l7.27-8.643h.088v8.643h3.613v-11.55h-5.617l-7.182 8.643h-.066v-8.643H105.6v11.55z" fill="#fff"/>
    <path d="M132.542 22.276h-3.582v-8.95h-5.21v-2.6h14.025v2.6h-5.233v8.95z" fill="#fff"/>
    <path d="M146.983 22.274c-1.162 0-1.784-.028-2.631-.085-.832-.044-1.542-.135-2.129-.28-.588-.157-1.069-.37-1.443-.64a2.729 2.729 0 01-.84-1.072c-.2-.442-.337-.985-.408-1.627a21.173 21.173 0 01-.107-2.312v-.342c0-.9.037-1.67.107-2.312.073-.642.208-1.185.408-1.627.201-.458.481-.82.84-1.092.374-.272.853-.479 1.443-.621.587-.142 1.297-.235 2.129-.279a34.154 34.154 0 012.631-.086h.559c1.162 0 1.779.029 2.611.086.847.043 1.564.135 2.152.279.588.142 1.061.35 1.42.62.374.272.66.637.86 1.092.2.443.338.986.408 1.627.073.642.107 1.413.107 2.313v.342c0 .9-.036 1.67-.107 2.312-.072.642-.208 1.193-.408 1.648-.2.443-.488.8-.86 1.071-.359.271-.832.478-1.42.62-.588.143-1.305.236-2.152.28-.832.057-1.449.085-2.611.085h-.559zm.429-2.804c1.048 0 1.483-.028 2.073-.085.603-.057 1.047-.194 1.333-.407.302-.227.481-.563.538-1.006.073-.442.107-1.042.107-1.798v-.191c0-.771-.036-1.379-.107-1.821-.057-.458-.236-.792-.538-1.006-.286-.228-.73-.37-1.333-.43-.588-.057-1.025-.085-2.073-.085h-.301c-1.061 0-1.505.028-2.093.085-.588.057-1.032.2-1.334.43-.286.214-.465.548-.538 1.006-.057.442-.086 1.05-.086 1.82v.192c0 .758.029 1.356.086 1.798.073.443.252.779.538 1.006.302.215.746.35 1.334.407.588.057 1.032.085 2.093.085h.301z" fill="#fff"/>
    <path d="M172.425 22.276h-3.519V17.81h-7.812v4.465h-3.519v-11.55h3.519v4.218h7.812v-4.218h3.519v11.55z" fill="#fff"/>
    <path d="M11.873 0L2.138 5.563A4.225 4.225 0 000 9.228v11.088l3.36-1.92V9.228c0-.324.175-.624.458-.786l8.055-4.602V0z" fill="#D91745"/>
    <path d="M13.537 32.433L3.8 26.87l3.36-1.92 8.056 4.603a.925.925 0 00.916 0l8.022-4.584 3.36 1.92-9.702 5.544a4.315 4.315 0 01-4.276 0z" fill="#D91745"/>
    <path d="M31.35 20.354V9.228c0-1.512-.815-2.91-2.138-3.665L19.509.019v3.84l8.023 4.583a.905.905 0 01.458.786v9.206l3.36 1.92z" fill="#D91745"/>
    <path d="M22.444 22.183l.657-1.12-7.436-4.219-7.49 4.25.64 1.088h13.63z" fill="#D91745"/>
    <path d="M7.397 19.703l7.49-4.249v-8.69h-1.088L6.797 18.683l.6 1.021z" fill="#D91745"/>
    <path d="M16.438 6.765v8.69l7.436 4.218.64-1.087-6.945-11.821h-1.131z" fill="#D91745"/>
</symbol><symbol id="ico-color-minlogo" viewBox="0 0 207 35">
    <g clip-path="url(#clip0_1113_22113)" fill="#656669">
        <path d="M35.295 26.742H17.611a4.12 4.12 0 00-1.427.506 4.052 4.052 0 00-1.23 1.148l-3.566 6.173h28.433l-4.526-7.827z"/>
        <path d="M25.371 24.272c.519.29 1.093.467 1.685.518h7.108L19.898 0l-4.55 7.901L24.03 23c.347.52.805.954 1.341 1.272z"/>
        <path d="M18.176 17.752a4.037 4.037 0 00-.38-1.729l-3.543-6.148L0 34.566h9.1l8.61-14.963a4.135 4.135 0 00.466-1.852z"/>
        <path d="M60.26 16.248c0-.358.27-12.099.27-12.099l-3.185 12.099h-2.46L51.652 4.149s.259 11.617.259 12.099h-2.644V1.52h3.984l2.866 10.938L58.944 1.52h3.972v14.728H60.26z"/>
        <path d="M78.264 16.248h-2.742v-9.63l-6.567 7.877v1.753h-2.743V1.52h2.743v9.592l6.567-7.889V1.52h2.742v14.728z"/>
        <path d="M90.649 16.248V9.557h-6.297v6.69h-2.767V1.52h2.767v5.543h6.297V1.52h2.816v14.728h-2.816z"/>
        <path d="M108.37 1.52v14.728h-2.742V4.026h-6.15v12.222h-2.742V1.52h11.634z"/>
        <path d="M117.422 1.52c3.037 0 5.214 1.876 5.214 4.938 0 2.679-1.537 4.815-5.362 4.815h-2.804v5.012h-2.742V1.52h5.694zm-2.952 7.469h2.46c1.955 0 2.927-.914 2.927-2.655 0-2.37-1.907-2.469-3.235-2.469h-2.152V8.99z"/>
        <path d="M131.048 1.148c4.464 0 7.022 3.704 7.022 7.655 0 3.345-1.808 7.827-7.084 7.827-4.316 0-6.985-3.593-6.985-7.728 0-4.136 2.816-7.754 7.047-7.754zm0 12.914c2.176 0 4.23-1.691 4.23-5.037 0-2.617-1.34-5.321-4.255-5.321-2.459 0-4.193 1.901-4.193 5.136 0 2.271 1.069 5.222 4.242 5.222h-.024z"/>
        <path d="M151.573 16.248c0-.358.27-12.099.27-12.099l-3.173 12.099h-2.459l-3.173-12.099s.27 11.617.27 12.099h-2.681V1.52h3.985l2.878 10.938 2.816-10.938h3.972v14.728h-2.705z"/>
        <path d="M163.084 4v12.247h-2.742V4h-3.997V1.531h10.785v2.47h-4.046z"/>
        <path d="M175.603 1.148c4.477 0 7.022 3.704 7.022 7.655 0 3.345-1.807 7.827-7.083 7.827-4.317 0-6.973-3.593-6.973-7.728 0-4.136 2.804-7.754 7.034-7.754zm0 12.914c2.177 0 4.243-1.691 4.243-5.037 0-2.617-1.377-5.358-4.28-5.358-2.459 0-4.206 1.901-4.206 5.136.025 2.308 1.132 5.259 4.268 5.259h-.025z"/>
        <path d="M190.976 1.52c3.037 0 5.214 1.876 5.214 4.938 0 2.679-1.537 4.815-5.35 4.815h-2.804v5.012h-2.742V1.52h5.682zm-2.94 7.469h2.399c1.955 0 2.939-.914 2.939-2.655 0-2.37-1.919-2.469-3.247-2.469h-2.091V8.99z"/>
        <path d="M207 1.52v2.469h-6.026V16.21h-2.743V1.52H207z"/>
        <path d="M54.96 19.89c3.025 0 5.214 1.877 5.214 4.939 0 2.679-1.537 4.827-5.362 4.827h-2.804v4.914h-2.742V19.89h5.694zm-2.952 7.47h2.46c1.955 0 2.927-.914 2.927-2.642 0-2.383-1.907-2.47-3.235-2.47h-2.152v5.112z"/>
        <path d="M68.586 19.52c4.464 0 7.022 3.703 7.022 7.654 0 3.333-1.796 7.827-7.084 7.827-4.316 0-6.985-3.593-6.985-7.728 0-4.136 2.816-7.753 7.047-7.753zm0 12.913c2.177 0 4.23-1.691 4.23-5.037 0-2.617-1.365-5.346-4.28-5.346-2.459 0-4.193 1.89-4.193 5.124.025 2.296 1.131 5.26 4.267 5.26h-.024z"/>
        <path d="M90.526 30.506a6.664 6.664 0 01-2.445 3.272A6.624 6.624 0 0184.192 35c-3.468 0-6.862-2.383-6.862-7.889 0-3.271 1.845-7.593 6.96-7.593a5.814 5.814 0 013.806 1.184 5.854 5.854 0 012.16 3.36l-2.719.716a3.09 3.09 0 00-1.04-1.976 3.067 3.067 0 00-2.096-.753c-2.398 0-4.095 1.828-4.095 5.111 0 2 .812 5.235 4.07 5.235a3.804 3.804 0 002.279-.884 3.83 3.83 0 001.276-2.091l2.595 1.086z"/>
        <path d="M105.259 30.506a6.664 6.664 0 01-2.451 3.275 6.62 6.62 0 01-3.895 1.218c-3.468 0-6.85-2.382-6.85-7.888 0-3.272 1.845-7.593 6.96-7.593a5.826 5.826 0 013.803 1.186 5.868 5.868 0 012.162 3.357l-2.73.716a3.066 3.066 0 00-1.034-1.982 3.045 3.045 0 00-2.102-.746c-2.386 0-4.083 1.827-4.083 5.111 0 2 .8 5.235 4.07 5.235a3.795 3.795 0 002.274-.886 3.819 3.819 0 001.269-2.09l2.607 1.087z"/>
        <path d="M119.291 34.57h-2.743v-9.63l-6.554 7.877v1.753h-2.755V19.89h2.755v9.556l6.554-7.876v-1.68h2.743v14.68z"/>
        <path d="M134.676 34.57h-2.743v-9.63l-6.567 7.877v1.753h-2.742V19.89h2.742v9.556l6.567-7.876v-1.68h2.743v14.68z"/>
    </g>
    
</symbol><symbol id="ico-color-tg" viewBox="0 0 59 59">
    <g clip-path="url(#clip0_1901_33328)" fill="#fff">
        <mask id="a">
            <path fill-rule="evenodd" clip-rule="evenodd" d="M49 30c0 10.493-8.507 19-19 19s-19-8.507-19-19 8.507-19 19-19 19 8.507 19 19zm-18.319-4.974c-1.848.769-5.541 2.36-11.08 4.773-.9.358-1.371.707-1.414 1.05-.072.578.652.806 1.638 1.116.134.042.273.085.415.132.97.315 2.275.684 2.954.699.615.013 1.302-.24 2.06-.761 5.175-3.494 7.847-5.26 8.015-5.297.118-.027.282-.061.393.038.111.098.1.285.088.335-.071.306-2.914 2.949-4.385 4.316-.458.427-.783.729-.85.798-.149.155-.3.301-.447.442-.9.869-1.577 1.52.038 2.584.776.511 1.396.934 2.016 1.356.676.46 1.351.92 2.224 1.492.222.146.435.298.642.445.787.561 1.494 1.065 2.368.985.508-.047 1.032-.524 1.298-1.948.63-3.365 1.867-10.656 2.153-13.66.025-.263-.007-.6-.032-.748-.025-.148-.078-.358-.27-.514-.228-.185-.58-.224-.736-.221-.715.012-1.811.393-7.088 2.588z"/>
        </mask>
        <path d="M19.6 29.799l.37.93.015-.007.015-.006-.4-.917zm11.081-4.773l.384.924-.384-.924zM18.187 30.85l-.992-.125.992.125zm1.638 1.116l.3-.954-.3.954zm.415.132l.31-.951-.31.95zm2.954.699l.021-1-.021 1zm2.06-.761l-.56-.83-.006.005.566.825zm8.015-5.297l-.222-.976.222.976zm.481.373l-.973-.228.973.229zm-4.385 4.316l.681.733-.68-.733zm-.85.798l-.72-.694.72.694zm-.447.442l.694.72-.694-.72zm.038 2.584l.55-.835-.55.835zm2.016 1.356l.563-.827-.563.827zm2.224 1.492l.548-.836-.548.836zm.642.445l-.58.814.58-.814zm2.368.985l-.092-.996.092.996zm1.298-1.948l.983.184-.983-.184zm2.153-13.66l.995.095-.995-.095zm-.032-.748l-.986.169.986-.169zm-.27-.514l.63-.777-.63.776zm-.736-.221l.017 1-.017-1zM30 50c11.046 0 20-8.954 20-20h-2c0 9.941-8.059 18-18 18v2zM10 30c0 11.046 8.954 20 20 20v-2c-9.941 0-18-8.059-18-18h-2zm20-20c-11.046 0-20 8.954-20 20h2c0-9.941 8.059-18 18-18v-2zm20 20c0-11.046-8.954-20-20-20v2c9.941 0 18 8.059 18 18h2zm-30 .716c5.54-2.414 9.226-4.002 11.065-4.767l-.768-1.846c-1.857.772-5.558 2.366-11.096 4.78L20 30.715zm-.82.257a.466.466 0 01-.078.214c-.01.014.001-.006.067-.055.135-.1.387-.24.801-.404l-.739-1.858c-.485.193-.919.407-1.255.657-.31.23-.708.617-.781 1.197l1.984.249zm.945.038c-.252-.08-.461-.145-.643-.211a2.55 2.55 0 01-.378-.162c-.08-.045-.05-.045-.003.023.066.097.09.219.078.312l-1.984-.249c-.048.382.04.75.252 1.062.193.283.451.467.668.59.41.233.958.4 1.41.543l.6-1.908zm.424.135a42.041 42.041 0 00-.424-.135l-.6 1.908c.135.042.269.084.406.129l.618-1.902zm2.666.65c-.217-.005-.619-.075-1.145-.207a23.921 23.921 0 01-1.52-.443l-.619 1.902c.499.162 1.09.34 1.652.481.538.135 1.129.256 1.59.266l.042-2zm1.473-.586c-.666.458-1.147.593-1.473.586l-.043 2c.905.019 1.798-.353 2.648-.937l-1.132-1.649zm8.36-5.448c-.163.037-.302.116-.307.119-.051.026-.107.058-.162.091-.113.067-.261.16-.442.274-.363.23-.88.568-1.55 1.01-1.339.886-3.304 2.203-5.892 3.95l1.119 1.658a793.453 793.453 0 015.877-3.94c.666-.44 1.171-.77 1.519-.99a15.28 15.28 0 01.465-.285c.055-.03-.043.031-.185.064l-.443-1.95zm1.278.266a1.283 1.283 0 00-.85-.319c-.2-.001-.376.041-.429.053l.443 1.95c.065-.014.031-.002-.03-.003a.719.719 0 01-.462-.186l1.328-1.495zm.398 1.312a1.44 1.44 0 00.018-.525 1.302 1.302 0 00-.416-.787l-1.328 1.495a.7.7 0 01-.235-.415.503.503 0 01-.005-.092c0-.018.003-.065.019-.133l1.947.457zm-4.678 4.82c.734-.683 1.82-1.691 2.73-2.568.454-.438.874-.85 1.187-1.177.156-.162.296-.314.405-.443.053-.064.11-.136.161-.21.025-.036.143-.201.195-.422l-1.947-.457a.851.851 0 01.105-.255s-.012.017-.046.058c-.067.079-.172.194-.316.344-.285.298-.682.688-1.131 1.12-.896.864-1.968 1.86-2.704 2.545l1.361 1.465zm-.81.759a28.327 28.327 0 01.241-.228c.145-.137.34-.318.57-.531l-1.363-1.465c-.437.407-.797.741-.89.837l1.441 1.387zm-.474.468c.144-.14.31-.298.473-.468l-1.44-1.387c-.134.139-.273.272-.42.415l1.387 1.44zm-.106 1.03c-.352-.233-.488-.386-.532-.451-.02-.031.018.026 0 .113-.006.037-.01-.005.114-.155.122-.147.288-.31.524-.537l-1.388-1.44c-.214.206-.47.451-.678.704-.206.25-.446.6-.533 1.041-.21 1.06.538 1.831 1.393 2.394l1.1-1.67zm2.029 1.363c-.62-.421-1.246-.848-2.029-1.364l-1.1 1.67c.768.507 1.384.926 2.003 1.348l1.126-1.654zm2.21 1.483a140.93 140.93 0 01-2.21-1.483l-1.126 1.654c.677.46 1.358.924 2.239 1.502l1.096-1.673zm.673.467c-.204-.146-.432-.309-.674-.467l-1.096 1.673c.203.133.4.273.61.422l1.16-1.628zm1.696.803c-.438.04-.834-.189-1.696-.803l-1.16 1.628c.712.508 1.73 1.287 3.04 1.167l-.184-1.992zm.407-1.136c-.118.631-.274.94-.375 1.074-.08.106-.093.068-.032.062l.183 1.992c1.225-.113 1.906-1.241 2.19-2.76l-1.966-.368zm2.14-13.57c-.28 2.953-1.51 10.202-2.14 13.57l1.966.368c.63-3.361 1.875-10.694 2.166-13.75l-1.991-.189zm-.022-.485a2.302 2.302 0 01.023.484l1.99.19a4.336 4.336 0 00-.041-1.012l-1.972.338zm.086.093a.322.322 0 01-.086-.109c-.009-.02-.006-.025 0 .016l1.972-.338c-.036-.21-.142-.73-.626-1.122l-1.26 1.553zm-.089.003l.027.002a.522.522 0 01.101.021c.003.002-.013-.005-.04-.026l1.26-1.553a1.993 1.993 0 00-.791-.377 2.44 2.44 0 00-.592-.067l.035 2zm-6.721 2.512c2.642-1.1 4.214-1.734 5.212-2.096 1.014-.369 1.331-.413 1.51-.416l-.036-2c-.537.01-1.126.161-2.157.536-1.048.38-2.662 1.033-5.297 2.129l.768 1.846z" mask="url(#a)"/>
    </g>
    <rect x=".5" y=".5" width="58" height="58" rx="9.5" stroke="#424346"/>
    
</symbol><symbol id="ico-color-vk" viewBox="0 0 59 59">
    <path d="M17.413 22.058h-.51l.01.51c.104 5.016 1.411 9.096 3.854 11.93 2.452 2.846 6 4.378 10.452 4.378h.991v-5.578c2.679.491 4.72 2.554 5.579 5.23l.111.348h5.518l-.174-.633a13.082 13.082 0 00-5.999-7.844c2.016-1.426 4.426-4.162 5.059-7.754l.103-.587H37.348l-.103.364a9.833 9.833 0 01-2.284 3.994c-.86.907-1.823 1.54-2.75 1.793v-6.15h-5.086v10.765c-2.153-.892-4.747-3.8-4.874-10.275l-.01-.49h-4.828zM11.5 29.24c0-4.313.001-7.498.33-9.94.326-2.429.967-4.048 2.195-5.275 1.227-1.228 2.846-1.87 5.274-2.196 2.443-.328 5.628-.329 9.941-.329h1.52c4.313 0 7.498.001 9.94.33 2.429.326 4.048.967 5.275 2.195 1.227 1.227 1.87 2.846 2.196 5.274.328 2.443.329 5.628.329 9.941v1.52c0 4.313-.001 7.498-.33 9.94-.326 2.429-.968 4.048-2.195 5.275-1.227 1.227-2.846 1.87-5.275 2.196-2.442.328-5.627.329-9.94.329h-1.52c-4.313 0-7.498-.001-9.94-.33-2.429-.326-4.048-.968-5.275-2.195-1.228-1.227-1.87-2.846-2.196-5.275-.328-2.442-.329-5.627-.329-9.94v-1.52z" stroke="#CECED0"/>
    <rect x=".5" y=".5" width="58" height="58" rx="9.5" stroke="#424346"/>
</symbol><symbol id="ico-color-youtube" viewBox="0 0 59 59">
    <path d="M48.169 17.587h0l.007.006c.548.552.945 1.506 1.206 2.39a12.942 12.942 0 01.349 1.533l.003.022v.005l.004.029.013.114.048.434c.04.374.092.91.145 1.554.106 1.288.21 3 .21 4.706v3.232c0 1.71-.104 3.422-.21 4.709a67.307 67.307 0 01-.193 1.985l-.013.114-.003.028v.006l-.004.022-.003.018a12.932 12.932 0 01-.346 1.514c-.261.885-.658 1.839-1.206 2.39h0l-.007.007c-1.33 1.392-2.776 1.536-3.686 1.627-.098.01-.19.019-.274.029-2.967.21-6.683.32-9.664.378a366.473 366.473 0 01-4.823.06h-.37l-.02.001h-.005 0-.027l-.093-.001-.357-.004a538.654 538.654 0 01-5.484-.085c-3.19-.066-6.778-.171-8.473-.33-.196-.037-.419-.065-.66-.096-1.087-.136-2.553-.32-3.756-1.579h0l-.005-.006c-.545-.551-.94-1.505-1.2-2.39a13 13 0 01-.348-1.533l-.003-.022v-.006l-.004-.028-.014-.114c-.011-.1-.028-.247-.047-.434-.04-.375-.092-.91-.145-1.554-.106-1.288-.211-3-.211-4.706V28.38c0-1.706.107-3.418.215-4.705a66.777 66.777 0 01.196-1.988l.014-.114.003-.029v-.005l.001-.003.003-.021.015-.09a12.854 12.854 0 01.331-1.444c.258-.883.653-1.836 1.201-2.388h0l.007-.006c1.33-1.392 2.776-1.537 3.686-1.627.098-.01.19-.019.274-.029 2.966-.215 6.68-.323 9.659-.377a343.348 343.348 0 015.113-.054h.101V15v.5h.017V15v.5h.101a181.92 181.92 0 011.388.007c.931.007 2.235.02 3.725.047 2.979.054 6.692.162 9.659.377.085.01.176.02.274.029.91.09 2.355.235 3.686 1.627zM24.42 35.535v.822l.73-.378 11.522-5.973.854-.443-.853-.445-11.521-6.015-.732-.381V35.536z" stroke="#CECED0"/>
    <rect x=".5" y=".5" width="58" height="58" rx="9.5" stroke="#424346"/>
</symbol></svg>