<?xml version="1.0" encoding="UTF-8"?><!DOCTYPE svg PUBLIC "-//W3C//DTD SVG 1.1//EN" "http://www.w3.org/Graphics/SVG/1.1/DTD/svg11.dtd"><svg xmlns="http://www.w3.org/2000/svg" xmlns:xlink="http://www.w3.org/1999/xlink"><defs>
        <clipPath id="clip0_1113_22113">
            <path fill="#fff" d="M0 0h207v35H0z"/>
        </clipPath>
    
        <clipPath id="clip0_1501_21194">
            <path transform="translate(5.594 5.594)" d="M0 0h19.322v19.322H0z"/>
        </clipPath>
    </defs><symbol id="ico-color-arrow-circle" viewBox="0 0 40 40">
    <circle r="19.5" transform="matrix(-1 0 0 1 20 20)" stroke="#EBEBEF"/>
    <path d="M22 11.002l-2 4.5-2 4.5 4 9" stroke="#EBEBEF" stroke-linecap="round" stroke-linejoin="round"/>
</symbol><symbol id="ico-color-emblem" viewBox="0 0 32 33">
    <path d="M11.873 0L2.138 5.563A4.225 4.225 0 000 9.228v11.088l3.36-1.92V9.228c0-.324.175-.624.458-.786l8.055-4.602V0z" fill="#D91745"/>
    <path d="M13.537 32.433L3.8 26.87l3.36-1.92 8.056 4.603a.925.925 0 00.916 0l8.022-4.584 3.36 1.92-9.702 5.544a4.315 4.315 0 01-4.276 0z" fill="#D91745"/>
    <path d="M31.35 20.354V9.228c0-1.512-.815-2.91-2.138-3.665L19.509.019v3.84l8.023 4.583a.905.905 0 01.458.786v9.206l3.36 1.92z" fill="#D91745"/>
    <path d="M22.444 22.183l.657-1.12-7.436-4.219-7.49 4.25.64 1.088h13.63z" fill="#D91745"/>
    <path d="M7.397 19.703l7.49-4.249v-8.69h-1.088L6.797 18.683l.6 1.021z" fill="#D91745"/>
    <path d="M16.438 6.765v8.69l7.436 4.218.64-1.087-6.945-11.821h-1.131z" fill="#D91745"/>
</symbol><symbol id="ico-color-logo" viewBox="0 0 173 33">
    <path d="M52.8 10.726H41.25v11.55h3.529v-8.868H52.8v-2.682z" fill="#fff"/>
    <path d="M62.914 16.705c.664 0 1.19-.02 1.571-.062.382-.042.672-.116.87-.225a.75.75 0 00.36-.492c.057-.218.085-.505.085-.86v-.144c0-.354-.028-.641-.084-.86a.688.688 0 00-.362-.493c-.197-.123-.487-.205-.869-.245a15.321 15.321 0 00-1.571-.062h-4.117v3.441h4.117v.002zm-4.117 5.57h-3.522v-11.55h8.254c1.174 0 2.136.055 2.886.164.751.109 1.338.314 1.762.614.425.287.715.702.869 1.249.17.532.254 1.23.254 2.088v.307c0 .86-.085 1.563-.254 2.11-.156.532-.446.95-.87 1.25-.425.299-1.012.504-1.76.613-.75.109-1.713.163-2.887.163h-4.732v2.993z" fill="#fff"/>
    <path d="M86.625 22.276H82.62l-1.15-2.069h-7.88l-1.13 2.069h-3.984l6.795-11.55h4.538l6.817 11.55zm-6.487-4.485l-2.59-4.649h-.09l-2.545 4.649h5.225z" fill="#fff"/>
    <path d="M88.275 22.274V10.726h9.696c.916 0 1.676.047 2.281.143.62.096 1.112.26 1.48.492.365.218.627.512.78.88.156.369.233.827.233 1.373 0 .806-.148 1.405-.444 1.803-.296.396-.704.668-1.225.818v.042c.661.11 1.169.376 1.521.8.352.422.528 1.043.528 1.862 0 .655-.084 1.201-.253 1.637a2.298 2.298 0 01-.781 1.024c-.352.245-.796.423-1.332.532-.535.096-1.168.144-1.9.144H88.275v-.002zm9.971-2.457c.536 0 .901-.096 1.098-.286.211-.206.316-.505.316-.9 0-.411-.105-.704-.316-.881-.197-.178-.564-.267-1.098-.267h-6.463v2.334h6.463zm-.084-4.546c.367 0 .648-.074.844-.225.212-.15.317-.43.317-.838 0-.438-.105-.73-.316-.88-.197-.152-.48-.226-.845-.226h-6.38v2.171h6.38v-.002z" fill="#fff"/>
    <path d="M105.6 22.276h5.529l7.27-8.643h.088v8.643h3.613v-11.55h-5.617l-7.182 8.643h-.066v-8.643H105.6v11.55z" fill="#fff"/>
    <path d="M132.542 22.276h-3.582v-8.95h-5.21v-2.6h14.025v2.6h-5.233v8.95z" fill="#fff"/>
    <path d="M146.983 22.274c-1.162 0-1.784-.028-2.631-.085-.832-.044-1.542-.135-2.129-.28-.588-.157-1.069-.37-1.443-.64a2.729 2.729 0 01-.84-1.072c-.2-.442-.337-.985-.408-1.627a21.173 21.173 0 01-.107-2.312v-.342c0-.9.037-1.67.107-2.312.073-.642.208-1.185.408-1.627.201-.458.481-.82.84-1.092.374-.272.853-.479 1.443-.621.587-.142 1.297-.235 2.129-.279a34.154 34.154 0 012.631-.086h.559c1.162 0 1.779.029 2.611.086.847.043 1.564.135 2.152.279.588.142 1.061.35 1.42.62.374.272.66.637.86 1.092.2.443.338.986.408 1.627.073.642.107 1.413.107 2.313v.342c0 .9-.036 1.67-.107 2.312-.072.642-.208 1.193-.408 1.648-.2.443-.488.8-.86 1.071-.359.271-.832.478-1.42.62-.588.143-1.305.236-2.152.28-.832.057-1.449.085-2.611.085h-.559zm.429-2.804c1.048 0 1.483-.028 2.073-.085.603-.057 1.047-.194 1.333-.407.302-.227.481-.563.538-1.006.073-.442.107-1.042.107-1.798v-.191c0-.771-.036-1.379-.107-1.821-.057-.458-.236-.792-.538-1.006-.286-.228-.73-.37-1.333-.43-.588-.057-1.025-.085-2.073-.085h-.301c-1.061 0-1.505.028-2.093.085-.588.057-1.032.2-1.334.43-.286.214-.465.548-.538 1.006-.057.442-.086 1.05-.086 1.82v.192c0 .758.029 1.356.086 1.798.073.443.252.779.538 1.006.302.215.746.35 1.334.407.588.057 1.032.085 2.093.085h.301z" fill="#fff"/>
    <path d="M172.425 22.276h-3.519V17.81h-7.812v4.465h-3.519v-11.55h3.519v4.218h7.812v-4.218h3.519v11.55z" fill="#fff"/>
    <path d="M11.873 0L2.138 5.563A4.225 4.225 0 000 9.228v11.088l3.36-1.92V9.228c0-.324.175-.624.458-.786l8.055-4.602V0z" fill="#D91745"/>
    <path d="M13.537 32.433L3.8 26.87l3.36-1.92 8.056 4.603a.925.925 0 00.916 0l8.022-4.584 3.36 1.92-9.702 5.544a4.315 4.315 0 01-4.276 0z" fill="#D91745"/>
    <path d="M31.35 20.354V9.228c0-1.512-.815-2.91-2.138-3.665L19.509.019v3.84l8.023 4.583a.905.905 0 01.458.786v9.206l3.36 1.92z" fill="#D91745"/>
    <path d="M22.444 22.183l.657-1.12-7.436-4.219-7.49 4.25.64 1.088h13.63z" fill="#D91745"/>
    <path d="M7.397 19.703l7.49-4.249v-8.69h-1.088L6.797 18.683l.6 1.021z" fill="#D91745"/>
    <path d="M16.438 6.765v8.69l7.436 4.218.64-1.087-6.945-11.821h-1.131z" fill="#D91745"/>
</symbol><symbol id="ico-color-minlogo" viewBox="0 0 207 35">
    <g clip-path="url(#clip0_1113_22113)" fill="#656669">
        <path d="M35.295 26.742H17.611a4.12 4.12 0 00-1.427.506 4.052 4.052 0 00-1.23 1.148l-3.566 6.173h28.433l-4.526-7.827z"/>
        <path d="M25.371 24.272c.519.29 1.093.467 1.685.518h7.108L19.898 0l-4.55 7.901L24.03 23c.347.52.805.954 1.341 1.272z"/>
        <path d="M18.176 17.752a4.037 4.037 0 00-.38-1.729l-3.543-6.148L0 34.566h9.1l8.61-14.963a4.135 4.135 0 00.466-1.852z"/>
        <path d="M60.26 16.248c0-.358.27-12.099.27-12.099l-3.185 12.099h-2.46L51.652 4.149s.259 11.617.259 12.099h-2.644V1.52h3.984l2.866 10.938L58.944 1.52h3.972v14.728H60.26z"/>
        <path d="M78.264 16.248h-2.742v-9.63l-6.567 7.877v1.753h-2.743V1.52h2.743v9.592l6.567-7.889V1.52h2.742v14.728z"/>
        <path d="M90.649 16.248V9.557h-6.297v6.69h-2.767V1.52h2.767v5.543h6.297V1.52h2.816v14.728h-2.816z"/>
        <path d="M108.37 1.52v14.728h-2.742V4.026h-6.15v12.222h-2.742V1.52h11.634z"/>
        <path d="M117.422 1.52c3.037 0 5.214 1.876 5.214 4.938 0 2.679-1.537 4.815-5.362 4.815h-2.804v5.012h-2.742V1.52h5.694zm-2.952 7.469h2.46c1.955 0 2.927-.914 2.927-2.655 0-2.37-1.907-2.469-3.235-2.469h-2.152V8.99z"/>
        <path d="M131.048 1.148c4.464 0 7.022 3.704 7.022 7.655 0 3.345-1.808 7.827-7.084 7.827-4.316 0-6.985-3.593-6.985-7.728 0-4.136 2.816-7.754 7.047-7.754zm0 12.914c2.176 0 4.23-1.691 4.23-5.037 0-2.617-1.34-5.321-4.255-5.321-2.459 0-4.193 1.901-4.193 5.136 0 2.271 1.069 5.222 4.242 5.222h-.024z"/>
        <path d="M151.573 16.248c0-.358.27-12.099.27-12.099l-3.173 12.099h-2.459l-3.173-12.099s.27 11.617.27 12.099h-2.681V1.52h3.985l2.878 10.938 2.816-10.938h3.972v14.728h-2.705z"/>
        <path d="M163.084 4v12.247h-2.742V4h-3.997V1.531h10.785v2.47h-4.046z"/>
        <path d="M175.603 1.148c4.477 0 7.022 3.704 7.022 7.655 0 3.345-1.807 7.827-7.083 7.827-4.317 0-6.973-3.593-6.973-7.728 0-4.136 2.804-7.754 7.034-7.754zm0 12.914c2.177 0 4.243-1.691 4.243-5.037 0-2.617-1.377-5.358-4.28-5.358-2.459 0-4.206 1.901-4.206 5.136.025 2.308 1.132 5.259 4.268 5.259h-.025z"/>
        <path d="M190.976 1.52c3.037 0 5.214 1.876 5.214 4.938 0 2.679-1.537 4.815-5.35 4.815h-2.804v5.012h-2.742V1.52h5.682zm-2.94 7.469h2.399c1.955 0 2.939-.914 2.939-2.655 0-2.37-1.919-2.469-3.247-2.469h-2.091V8.99z"/>
        <path d="M207 1.52v2.469h-6.026V16.21h-2.743V1.52H207z"/>
        <path d="M54.96 19.89c3.025 0 5.214 1.877 5.214 4.939 0 2.679-1.537 4.827-5.362 4.827h-2.804v4.914h-2.742V19.89h5.694zm-2.952 7.47h2.46c1.955 0 2.927-.914 2.927-2.642 0-2.383-1.907-2.47-3.235-2.47h-2.152v5.112z"/>
        <path d="M68.586 19.52c4.464 0 7.022 3.703 7.022 7.654 0 3.333-1.796 7.827-7.084 7.827-4.316 0-6.985-3.593-6.985-7.728 0-4.136 2.816-7.753 7.047-7.753zm0 12.913c2.177 0 4.23-1.691 4.23-5.037 0-2.617-1.365-5.346-4.28-5.346-2.459 0-4.193 1.89-4.193 5.124.025 2.296 1.131 5.26 4.267 5.26h-.024z"/>
        <path d="M90.526 30.506a6.664 6.664 0 01-2.445 3.272A6.624 6.624 0 0184.192 35c-3.468 0-6.862-2.383-6.862-7.889 0-3.271 1.845-7.593 6.96-7.593a5.814 5.814 0 013.806 1.184 5.854 5.854 0 012.16 3.36l-2.719.716a3.09 3.09 0 00-1.04-1.976 3.067 3.067 0 00-2.096-.753c-2.398 0-4.095 1.828-4.095 5.111 0 2 .812 5.235 4.07 5.235a3.804 3.804 0 002.279-.884 3.83 3.83 0 001.276-2.091l2.595 1.086z"/>
        <path d="M105.259 30.506a6.664 6.664 0 01-2.451 3.275 6.62 6.62 0 01-3.895 1.218c-3.468 0-6.85-2.382-6.85-7.888 0-3.272 1.845-7.593 6.96-7.593a5.826 5.826 0 013.803 1.186 5.868 5.868 0 012.162 3.357l-2.73.716a3.066 3.066 0 00-1.034-1.982 3.045 3.045 0 00-2.102-.746c-2.386 0-4.083 1.827-4.083 5.111 0 2 .8 5.235 4.07 5.235a3.795 3.795 0 002.274-.886 3.819 3.819 0 001.269-2.09l2.607 1.087z"/>
        <path d="M119.291 34.57h-2.743v-9.63l-6.554 7.877v1.753h-2.755V19.89h2.755v9.556l6.554-7.876v-1.68h2.743v14.68z"/>
        <path d="M134.676 34.57h-2.743v-9.63l-6.567 7.877v1.753h-2.742V19.89h2.742v9.556l6.567-7.876v-1.68h2.743v14.68z"/>
    </g>
    
</symbol><symbol id="ico-color-tg" viewBox="0 0 30 30">
    <rect x=".5" y=".5" width="29" height="29" rx="9.5" stroke="#424346"/>
    <g clip-path="url(#clip0_1501_21194)">
        <mask id="a" fill="none">
            <path fill-rule="evenodd" clip-rule="evenodd" d="M24.916 15.255c0 5.335-4.326 9.66-9.661 9.66a9.661 9.661 0 010-19.322c5.335 0 9.66 4.326 9.66 9.662zm-9.315-2.53c-.94.392-2.818 1.2-5.634 2.428-.457.181-.697.36-.719.533-.037.294.332.41.833.568.068.021.139.043.211.067.494.16 1.157.348 1.502.355.313.007.662-.122 1.048-.387 2.631-1.776 3.99-2.674 4.075-2.693.06-.014.143-.031.2.02.056.05.05.145.045.17-.037.155-1.482 1.5-2.23 2.194-.233.217-.399.371-.432.406-.076.079-.153.153-.227.225-.459.441-.802.773.019 1.314.394.26.71.475 1.025.69.344.234.687.467 1.13.758.114.074.222.151.327.226.4.285.76.542 1.204.501.258-.024.525-.267.66-.99.32-1.711.95-5.419 1.095-6.946a1.703 1.703 0 00-.016-.38.407.407 0 00-.138-.262.635.635 0 00-.374-.113c-.363.007-.921.2-3.604 1.317z"/>
        </mask>
        <path d="M9.967 15.152l.37.93.014-.006.015-.007-.4-.916zm5.634-2.426l-.384-.924.384.924zm-6.353 2.96l-.992-.124.992.124zm.833.568l-.3.954.3-.954zm.211.067l.31-.951-.31.95zm1.502.355l-.022 1 .022-1zm1.048-.387l-.56-.829-.006.005.566.824zm4.075-2.693l.221.975-.221-.975zm.2.02l.664-.748-.664.747zm.045.17l-.974-.228.974.228zm-2.23 2.194l-.68-.732.68.732zm-.432.406l-.72-.693.72.693zm-.227.225l-.694-.72.694.72zm.019 1.314l-.55.835.55-.835zm1.025.69l-.563.826.563-.827zm1.13.758l-.548.836.549-.836zm.327.226l-.58.814.58-.814zm1.204.501l.092.996-.092-.996zm.66-.99l.983.183-.983-.183zm1.095-6.946l-.996-.095.996.095zm-.016-.38l.985-.17-.985.17zm-.138-.262l-.63.776.63-.776zm-.374-.113l-.018-1 .018 1zm-3.95 14.507c5.888 0 10.66-4.773 10.66-10.661h-2a8.661 8.661 0 01-8.66 8.66v2zM4.594 15.255c0 5.888 4.773 10.66 10.66 10.66v-2a8.661 8.661 0 01-8.66-8.66h-2zm10.66-10.661c-5.887 0-10.66 4.773-10.66 10.66h2a8.661 8.661 0 018.66-8.66v-2zm10.662 10.66c0-5.887-4.773-10.66-10.661-10.66v2a8.661 8.661 0 018.66 8.66h2zm-15.55.815a459.63 459.63 0 015.62-2.42l-.769-1.847c-.949.395-2.834 1.207-5.65 2.434l.8 1.833zm-.125-.258a.726.726 0 01-.133.34c-.042.058-.075.08-.068.074a.664.664 0 01.084-.048 2.39 2.39 0 01.212-.095l-.739-1.859c-.264.105-.529.233-.749.396-.194.145-.53.447-.592.943l1.985.249zm.14-.511a8.33 8.33 0 01-.308-.1 1.62 1.62 0 01-.088-.035l-.028-.013a.628.628 0 01.162.163.736.736 0 01.121.496l-1.984-.25c-.039.312.033.62.21.878.156.23.359.37.502.451.265.15.604.252.813.318l.6-1.908zm.22.07a21.815 21.815 0 00-.22-.07l-.6 1.908.202.064.618-1.902zm1.215.307a2.861 2.861 0 01-.474-.091 11.72 11.72 0 01-.74-.216l-.619 1.902c.26.085.573.179.872.254.277.07.623.144.917.15l.044-2zm.46-.212c-.294.202-.437.212-.46.212l-.044 2c.603.012 1.158-.235 1.636-.563l-1.132-1.649zm4.42-2.844c-.106.024-.186.06-.202.067a1.322 1.322 0 00-.178.096 9.437 9.437 0 00-.238.147c-.188.12-.454.293-.795.519-.684.451-1.684 1.122-3 2.01l1.118 1.658c1.315-.887 2.31-1.554 2.984-2 .339-.223.593-.39.765-.499l.185-.114.018-.011-.037.018c-.006.002-.078.036-.178.06l-.443-1.951zm1.085.247a1.144 1.144 0 00-.755-.286c-.166-.002-.307.033-.33.039l.442 1.95c.036-.008-.033.011-.128.01a.857.857 0 01-.558-.218l1.33-1.495zm.354 1.146c.034-.143.04-.3.017-.45a1.153 1.153 0 00-.37-.696l-1.33 1.495a.847.847 0 01-.279-.506.753.753 0 01.015-.3l1.947.457zm-2.522 2.699c.373-.347.928-.862 1.394-1.312.233-.223.451-.439.618-.612.081-.085.162-.171.227-.25.032-.038.072-.088.11-.143.013-.019.124-.17.173-.382l-1.947-.456a.93.93 0 01.127-.296c.013-.019.018-.023.005-.008a3.3 3.3 0 01-.138.15c-.139.145-.335.338-.562.556-.452.436-.993.94-1.369 1.288l1.362 1.465zm-.393.367l.018-.017.086-.081.289-.27-1.362-1.464c-.212.198-.412.383-.472.445l1.441 1.387zm-.253.25c.072-.069.162-.156.253-.25l-1.44-1.387c-.061.063-.125.125-.201.198l1.388 1.44zm-.125-.24a1.15 1.15 0 01-.135-.1c-.023-.021-.015-.019.003.009.02.029.051.087.07.172.02.088.019.176.004.253a.483.483 0 01-.05.14c-.01.018-.012.018.004-.001.016-.02.042-.048.082-.09l.147-.142-1.388-1.44c-.104.1-.256.245-.384.4a1.698 1.698 0 00-.374.746c-.17.861.463 1.421.92 1.723l1.1-1.67zm1.038.698c-.315-.215-.637-.434-1.038-.698l-1.1 1.67c.387.255.697.466 1.012.68l1.126-1.652zm1.116.749a70.17 70.17 0 01-1.116-.75l-1.126 1.654c.344.234.694.472 1.145.768l1.097-1.672zm.358.248c-.102-.073-.226-.162-.358-.248l-1.097 1.672c.095.062.187.128.294.204l1.161-1.628zm.533.32l-.012-.002a.386.386 0 01-.08-.031 3.404 3.404 0 01-.44-.287l-1.162 1.628c.326.232.997.764 1.877.683l-.183-1.992zm-.232-.18a1.642 1.642 0 01-.074.282c-.022.058-.035.071-.026.06a.377.377 0 01.108-.091.542.542 0 01.224-.072l.183 1.992c.975-.09 1.398-.983 1.551-1.803l-1.966-.367zm1.082-6.856c-.14 1.477-.76 5.142-1.082 6.857l1.966.367c.32-1.707.957-5.456 1.107-7.034l-1.99-.19zm-.006-.117l.001.011a.909.909 0 01.006.093v.013l1.99.19a2.69 2.69 0 00-.026-.644l-1.97.337zm.218.346c-.194-.157-.22-.359-.218-.346l1.971-.337a1.402 1.402 0 00-.493-.87l-1.26 1.553zm.273.111a.367.367 0 01-.076-.007.583.583 0 01-.197-.104l1.26-1.553a1.502 1.502 0 00-.598-.288 1.73 1.73 0 00-.424-.047l.035 2zm-3.237 1.24c1.345-.56 2.134-.878 2.629-1.057.512-.186.607-.183.608-.183l-.035-2c-.361.007-.727.11-1.255.302-.546.198-1.377.535-2.715 1.091l.768 1.847z" fill="#fff" mask="url(#a)"/>
    </g>
    
</symbol><symbol id="ico-color-vk" viewBox="0 0 31 30">
    <rect x=".855" y=".5" width="29" height="29" rx="9.5" stroke="#424346"/>
    <path d="M9.21 10.38H8.7l.01.51c.054 2.584.729 4.72 2.02 6.215 1.3 1.508 3.176 2.31 5.5 2.31h.75v-2.77c1.117.317 1.975 1.234 2.357 2.422l.111.347h3.307l-.174-.632a6.9 6.9 0 00-2.852-3.94c.995-.797 2.074-2.146 2.38-3.876l.103-.587h-3.051l-.103.364a4.747 4.747 0 01-1.103 1.926 3.28 3.28 0 01-.975.729v-3.019h-3.077v5.312c-.914-.562-1.931-1.959-1.987-4.822l-.01-.49H9.21zm-2.76 3.893c0-2.198 0-3.796.165-5.016.162-1.206.475-1.968 1.046-2.539.57-.57 1.334-.883 2.541-1.045 1.222-.164 2.822-.165 5.022-.165h.773c2.2 0 3.8 0 5.021.165 1.208.162 1.97.475 2.542 1.045.57.57.884 1.333 1.046 2.539.164 1.22.165 2.818.165 5.017v.772c0 2.198 0 3.796-.165 5.016-.162 1.206-.476 1.969-1.046 2.539-.571.57-1.334.883-2.541 1.045-1.222.164-2.822.165-5.022.165h-.773c-2.2 0-3.8 0-5.022-.165-1.207-.162-1.97-.475-2.541-1.045-.57-.57-.884-1.332-1.046-2.539-.165-1.22-.166-2.818-.166-5.016v-.772z" stroke="#CECED0"/>
</symbol><symbol id="ico-color-youtube" viewBox="0 0 31 30">
    <rect x="1.211" y=".5" width="29" height="29" rx="9.5" stroke="#424346"/>
    <path d="M25.027 8.523h0l.006.007c.233.234.421.667.552 1.11a6.344 6.344 0 01.17.747l.002.007.001.013.007.056a27.175 27.175 0 01.097 1.002c.053.651.106 1.513.106 2.37v1.643c0 .86-.053 1.722-.106 2.372a33.963 33.963 0 01-.097 1l-.007.057-.001.012-.002.008a3.88 3.88 0 01-.036.205c-.028.14-.072.331-.134.541-.13.444-.319.876-.552 1.11h0l-.006.007c-.612.64-1.262.705-1.72.752l-.14.014c-1.5.107-3.382.163-4.895.191a186.511 186.511 0 01-2.449.03l-.149.002h-.109l-.181-.003a262.703 262.703 0 01-2.786-.043c-1.619-.033-3.424-.087-4.28-.166-.116-.021-.239-.037-.367-.053-.549-.071-1.189-.154-1.734-.724h0l-.006-.005c-.231-.235-.419-.668-.55-1.111a6.356 6.356 0 01-.169-.747l-.001-.008-.002-.012-.006-.057a34.29 34.29 0 01-.097-1.002 29.861 29.861 0 01-.107-2.37v-1.642c0-.857.054-1.72.109-2.37a33.67 33.67 0 01.099-1.002l.006-.056.002-.014h0l.001-.009a3.13 3.13 0 01.037-.204c.027-.14.07-.332.132-.542.13-.443.317-.875.549-1.109h0l.007-.007c.611-.639 1.261-.705 1.72-.751l.14-.015c1.5-.108 3.38-.163 4.892-.19a176.07 176.07 0 012.447-.028h.199v-.5.5h.009v-.5.5h.2l.555.003c.473.004 1.135.01 1.892.024 1.512.028 3.392.083 4.892.191l.14.015c.458.046 1.108.112 1.72.751zm-12.144 8.948v.822l.73-.378 5.858-3.034.855-.443-.853-.445-5.859-3.055-.731-.382v6.915z" stroke="#CECED0"/>
</symbol></svg>