<svg width="10" height="10" viewBox="0 0 10 10" fill="none" xmlns="http://www.w3.org/2000/svg">
<path d="M7.5875 5.47061L4.16125 8.46811C3.7575 8.82186 3.125 8.53436 3.125 7.99749V2.00249C3.1249 1.88234 3.15943 1.7647 3.22446 1.66367C3.2895 1.56264 3.38227 1.48249 3.49168 1.43283C3.60109 1.38317 3.7225 1.3661 3.84136 1.38367C3.96022 1.40123 4.0715 1.45268 4.16188 1.53186L7.58687 4.52936C7.65401 4.58803 7.70781 4.66037 7.74467 4.74155C7.78154 4.82272 7.80061 4.91084 7.80061 4.99999C7.80061 5.08914 7.78154 5.17726 7.74467 5.25843C7.70781 5.33961 7.65401 5.41195 7.58687 5.47061H7.5875Z" fill="white"/>
</svg>
