<svg width="25" height="25" viewBox="0 0 25 25" fill="none" xmlns="http://www.w3.org/2000/svg">
<g clip-path="url(#clip0_1003_560)">
<path fill-rule="evenodd" clip-rule="evenodd" d="M10.1562 18.75C11.2848 18.75 12.4023 18.5277 13.4449 18.0958C14.4876 17.664 15.4349 17.031 16.233 16.233C17.031 15.4349 17.664 14.4876 18.0958 13.4449C18.5277 12.4023 18.75 11.2848 18.75 10.1562C18.75 9.0277 18.5277 7.91021 18.0958 6.86756C17.664 5.82492 17.031 4.87755 16.233 4.07955C15.4349 3.28155 14.4876 2.64854 13.4449 2.21666C12.4023 1.78478 11.2848 1.5625 10.1562 1.5625C7.87705 1.5625 5.69119 2.46791 4.07955 4.07955C2.46791 5.69119 1.5625 7.87705 1.5625 10.1562C1.5625 12.4355 2.46791 14.6213 4.07955 16.233C5.69119 17.8446 7.87705 18.75 10.1562 18.75ZM20.3125 10.1562C20.3125 12.8499 19.2425 15.4331 17.3378 17.3378C15.4331 19.2425 12.8499 20.3125 10.1562 20.3125C7.46265 20.3125 4.87936 19.2425 2.9747 17.3378C1.07003 15.4331 0 12.8499 0 10.1562C0 7.46265 1.07003 4.87936 2.9747 2.9747C4.87936 1.07003 7.46265 0 10.1562 0C12.8499 0 15.4331 1.07003 17.3378 2.9747C19.2425 4.87936 20.3125 7.46265 20.3125 10.1562Z" fill="#656669"/>
<path d="M14.0625 18.3468C14.1094 18.4093 14.1594 18.4687 14.2156 18.5265L20.2313 24.5421C20.5242 24.8353 20.9217 25.0001 21.3362 25.0003C21.7507 25.0004 22.1482 24.8359 22.4414 24.5429C22.7346 24.2499 22.8994 23.8525 22.8995 23.438C22.8997 23.0235 22.7352 22.626 22.4422 22.3328L16.4266 16.3171C16.3707 16.2606 16.3106 16.2084 16.2469 16.1609C15.6339 16.9966 14.8974 17.7343 14.0625 18.3484V18.3468Z" fill="#656669"/>
</g>
<defs>
<clipPath id="clip0_1003_560">
<rect width="25" height="25" fill="white"/>
</clipPath>
</defs>
</svg>
