<svg width="163" height="40" viewBox="0 0 163 40" fill="none" xmlns="http://www.w3.org/2000/svg"><path d="M16.298 39.31L5.024 32.8l4.047-2.337 9.251 5.342c.342.197.762.197 1.104 0l9.361-5.405 4.048 2.337L21.45 39.31a5.151 5.151 0 01-5.152 0zm12.013-13.88l-9.344-5.394-9.344 5.395v4.637l9.41-5.432 9.278 5.357V25.43zm9.619-14.396v13.02l-4.047-2.337V11.034c0-.394-.21-.759-.552-.956l-9.36-5.404V0l11.384 6.573a5.151 5.151 0 012.576 4.461zM19.905 7.57v10.79l9.344 5.395 4.016-2.319-9.41-5.432V5.29l-3.95 2.28zM0 11.034v13.02l4.048-2.337V11.034c0-.394.21-.759.551-.956l9.362-5.404V0L2.576 6.573A5.151 5.151 0 000 11.034zM18.026 7.57v10.79l-9.344 5.395-4.016-2.319 9.41-5.432V5.29l3.95 2.28zM69.77 18.023c0 .88-.125 1.59-.377 2.13-.251.521-.719.925-1.402 1.213-.683.27-1.636.45-2.858.54-1.204.09-3.239.134-5.18.134h-2.005c-1.707 0-3.083-.054-4.125-.162-1.043-.108-1.852-.332-2.427-.674a2.523 2.523 0 01-1.16-1.456c-.18-.629-.269-1.456-.269-2.48v-.701H54.2v.593c0 .377.036.674.108.89.072.215.243.377.513.485.27.09.656.153 1.159.189.521.018 1.222.027 2.103.027h1.762c1.114 0 2.466-.01 3.13-.027.666-.036 1.17-.1 1.51-.19.36-.089.594-.224.702-.404.108-.197.162-.449.162-.755v-.27c0-.287-.045-.512-.135-.673a.743.743 0 00-.404-.405c-.198-.09-.468-.144-.81-.162a23.273 23.273 0 00-1.24-.027h-3.91v-3.127h3.937c.863 0 1.447-.09 1.753-.27.305-.18.458-.54.458-1.079v-.296c0-.27-.063-.494-.189-.674-.107-.18-.332-.315-.674-.405-.323-.09-.8-.152-1.429-.188-.61-.036-1.872-.054-2.861-.054h-1.762c-.88 0-1.582.009-2.103.027-.503.018-.89.08-1.16.188-.27.108-.44.27-.512.486-.072.215-.108.512-.108.89v.485h-4.152v-.593c0-1.025.09-1.852.27-2.481.18-.63.548-1.114 1.105-1.456.575-.342 1.375-.566 2.4-.674 1.042-.108 2.418-.162 4.125-.162h2.005c1.887 0 3.877.045 5.045.135 1.187.09 2.103.279 2.75.566.666.27 1.106.665 1.322 1.187.233.503.35 1.168.35 1.995v.35c0 .647-.045 1.178-.135 1.591-.071.396-.215.72-.431.971-.198.234-.476.422-.836.566a9.244 9.244 0 01-1.294.35v.082c.54.09.998.197 1.375.323.377.108.692.279.944.513.251.233.431.539.54.916.125.378.188.854.188 1.43v.593zm17.583 3.759H72.322V6.574h4.53V18.25h10.501v3.532zm11.516.258c-1.456 0-2.253-.036-3.313-.108-1.043-.054-1.933-.17-2.67-.35-.737-.198-1.339-.468-1.806-.81a3.43 3.43 0 01-1.052-1.347c-.252-.558-.422-1.24-.512-2.05-.09-.808-.135-1.78-.135-2.912v-.431c0-1.133.045-2.103.135-2.912.09-.81.26-1.492.512-2.05.252-.575.602-1.033 1.052-1.375.467-.341 1.07-.602 1.806-.782.737-.18 1.627-.296 2.67-.35a42.912 42.912 0 013.313-.108h.668c1.456 0 2.244.036 3.286.108 1.061.054 1.96.17 2.697.35.737.18 1.33.44 1.779.782a3.3 3.3 0 011.079 1.376c.251.557.422 1.24.512 2.049.09.809.135 1.78.135 2.912v.431c0 1.133-.045 2.104-.135 2.912-.09.81-.261 1.501-.512 2.077a3.331 3.331 0 01-1.079 1.348c-.449.341-1.042.602-1.779.782-.737.18-1.636.296-2.697.35-1.042.072-1.83.108-3.286.108h-.668zm.506-3.532c1.312 0 1.875-.036 2.612-.108.755-.072 1.313-.243 1.672-.512.378-.288.602-.71.674-1.268.09-.557.135-1.312.135-2.265v-.242c0-.97-.045-1.735-.135-2.292-.072-.575-.296-.998-.674-1.267-.359-.288-.917-.468-1.672-.54-.737-.072-1.3-.108-2.612-.108h-.344c-1.33 0-1.903.036-2.64.108-.737.072-1.294.252-1.671.54-.36.27-.585.692-.674 1.267-.072.557-.108 1.321-.108 2.292v.242c0 .953.036 1.708.108 2.265.09.558.314.98.674 1.268.377.27.934.44 1.671.512.737.072 1.31.108 2.64.108h.344zm22.158 3.532c-2.157 0-3.883-.08-5.177-.242-1.295-.18-2.292-.54-2.993-1.08-.683-.538-1.133-1.302-1.349-2.291-.215-1.007-.323-2.328-.323-3.964v-.431c0-1.097.045-2.05.135-2.858.09-.81.26-1.492.512-2.05a3.66 3.66 0 011.079-1.348c.449-.36 1.033-.638 1.752-.836.737-.197 1.627-.323 2.67-.377a54.61 54.61 0 013.694-.108h1.146c1.797 0 3.253.063 4.368.189 1.132.126 2.013.368 2.642.728.647.341 1.088.836 1.321 1.483.234.629.351 1.447.351 2.454v.131h-4.395c0-.516-.33-.97-.809-1.156-.324-.144-.782-.243-1.375-.297-.576-.072-1.33-.108-2.265-.108h-.823c-1.294 0-2.309.036-3.046.108-.737.072-1.286.252-1.645.54-.36.287-.584.719-.674 1.294-.09.557-.135 1.321-.135 2.292v.27c0 .952.045 1.707.135 2.264.09.54.314.953.674 1.24.359.288.908.468 1.645.54.737.072 1.752.108 3.046.108h.823c1.042 0 1.869-.027 2.48-.081.63-.054 1.106-.153 1.43-.297.323-.161.53-.368.62-.62.09-.252.134-.584.134-.997v-.405h-3.708l.027-2.966h8.023v3.398c0 1.114-.117 2.022-.351 2.723a3.113 3.113 0 01-1.321 1.672c-.647.413-1.546.7-2.696.862-1.151.144-2.643.216-4.476.216h-1.146zm17.983-.258h-4.557V6.574h4.557v15.208zm12.842.258c-2.103 0-3.802-.08-5.096-.242-1.294-.162-2.301-.504-3.02-1.025-.701-.54-1.169-1.303-1.402-2.292-.234-1.007-.351-2.346-.351-4.018v-.431c0-1.654.108-2.975.324-3.964.234-1.006.701-1.77 1.402-2.292.701-.539 1.699-.89 2.993-1.051 1.294-.18 3.011-.27 5.15-.27h1.146c1.869 0 3.37.072 4.503.216 1.15.144 2.031.404 2.642.782.611.377 1.016.899 1.214 1.564.197.647.296 1.483.296 2.507v.378h-4.395c0-.36-.036-.665-.108-.917-.072-.252-.26-.458-.566-.62-.288-.162-.728-.279-1.321-.35-.575-.073-1.384-.109-2.427-.109h-.822c-1.276 0-2.283.036-3.02.108-.719.072-1.267.252-1.645.54-.359.27-.584.683-.674 1.24-.09.557-.135 1.33-.135 2.319v.27c0 .97.045 1.734.135 2.291.09.54.315.944.674 1.214.378.27.926.44 1.645.512.737.072 1.744.108 3.02.108h.66c1.079 0 1.924-.027 2.535-.081.611-.072 1.069-.189 1.375-.35.437-.232.701-.743.701-1.227v-.354h4.368v.448c0 .97-.099 1.789-.296 2.454-.198.647-.612 1.168-1.241 1.564-.629.395-1.528.674-2.696.835-1.151.162-2.678.243-4.584.243h-.984zm-92.272 9.7c0 .8-.05 1.443-.149 1.929-.099.485-.32.859-.661 1.12-.333.26-.823.436-1.47.526-.64.08-1.498.121-2.577.121h-5.262v-7.61h5.262c1.061 0 1.91.041 2.55.122.638.072 1.128.239 1.47.5.342.251.567.625.675 1.12.108.485.162 1.137.162 1.955v.216zm-5.046 1.929c.647 0 1.156-.018 1.524-.054.378-.045.661-.135.85-.27a.929.929 0 00.351-.607c.054-.27.081-.625.081-1.066v-.135c0-.45-.027-.805-.081-1.066-.045-.27-.162-.472-.35-.607-.19-.135-.473-.22-.85-.256a13.314 13.314 0 00-1.525-.068h-2.806v4.129h2.806zm9.249 1.767h-2.28v-7.61h2.28v7.61zm11.388-2.307c0 .477-.05.868-.148 1.174-.09.306-.288.553-.594.742-.306.18-.742.305-1.308.377-.558.072-1.3.108-2.226.108h-.351c-1.08 0-1.934-.031-2.563-.094-.63-.054-1.107-.166-1.43-.337-.315-.171-.518-.405-.608-.702-.08-.306-.121-.697-.121-1.174v-.283h2.24v.202a.82.82 0 00.08.392c.054.09.162.162.324.215.162.054.391.09.688.108.306.019.71.028 1.215.028h.283c.54 0 .962-.01 1.268-.027.315-.018.549-.054.701-.108.153-.054.248-.126.284-.216a.958.958 0 00.054-.351v-.04a.822.822 0 00-.068-.365c-.036-.099-.135-.17-.297-.216-.161-.054-.409-.09-.741-.108a25.839 25.839 0 00-1.35-.027c-.701 0-1.304-.009-1.808-.027a10.568 10.568 0 01-1.268-.134 3.264 3.264 0 01-.823-.27 1.334 1.334 0 01-.472-.419 1.571 1.571 0 01-.216-.607 7.796 7.796 0 01-.04-.85v-.054c0-.476.05-.863.148-1.16.1-.306.293-.544.58-.715.297-.18.71-.301 1.242-.364.54-.063 1.24-.095 2.104-.095h.459c1.043 0 1.866.04 2.469.122.602.072 1.057.198 1.362.378.315.17.513.4.594.688.081.287.121.643.121 1.065v.23h-2.24v-.122c0-.134-.017-.251-.053-.35-.036-.1-.121-.176-.256-.23-.126-.063-.32-.108-.58-.135-.261-.027-.621-.04-1.08-.04h-.337c-.54 0-.963.009-1.268.027-.306.018-.535.054-.688.108-.153.045-.252.117-.297.216a1.05 1.05 0 00-.054.377v.04c0 .136.018.248.054.338.045.081.153.144.324.19.17.035.431.062.782.08.36.009.85.014 1.47.014.972 0 1.75.026 2.335.08.584.054 1.03.167 1.335.338.315.162.522.4.621.715.099.306.148.71.148 1.214v.054zm6.935 2.307h-2.254V29.54H77.08v-1.713h8.823v1.713h-3.291v5.896zm9.882-3.778c.387 0 .697-.009.931-.027.234-.027.41-.076.526-.148a.493.493 0 00.243-.31 2.1 2.1 0 00.054-.526v-.135a1.94 1.94 0 00-.054-.513.492.492 0 00-.243-.31c-.117-.081-.292-.13-.526-.149a8.488 8.488 0 00-.93-.04h-2.82v2.158h2.82zm4.034 3.778h-2.24v-.62c0-.333-.026-.599-.08-.797a.672.672 0 00-.31-.445c-.163-.108-.401-.175-.716-.202-.306-.036-.72-.054-1.241-.054h-2.267v2.118h-2.24v-7.61h5.964c.63 0 1.147.041 1.552.122.404.072.724.198.957.378.234.18.396.418.486.715.09.288.135.652.135 1.093v.27c0 .593-.103 1.047-.31 1.362-.198.315-.54.531-1.026.648v.04c.27.045.49.104.662.176.18.063.319.162.418.297.099.135.166.31.202.526.036.216.054.49.054.823v1.16zm4.306 0h-2.28v-7.61h2.28v7.61zm2.107 0v-7.61h6.192c.585 0 1.071.032 1.458.095.395.063.71.171.944.324.234.144.4.337.499.58.099.243.149.544.149.904 0 .53-.095.927-.284 1.187-.189.261-.45.441-.782.54v.027c.422.072.746.247.971.526.225.279.337.688.337 1.228 0 .432-.054.791-.162 1.08a1.504 1.504 0 01-.499.674 2.221 2.221 0 01-.85.35 6.777 6.777 0 01-1.214.095h-6.759zm6.368-1.619c.342 0 .575-.063.701-.189.135-.135.203-.333.203-.593 0-.27-.068-.464-.203-.58-.126-.117-.359-.176-.701-.176h-4.128v1.538h4.128zm-.054-2.995c.234 0 .414-.05.54-.148.134-.1.202-.284.202-.554 0-.287-.068-.48-.202-.58-.126-.099-.306-.148-.54-.148h-4.074v1.43h4.074zm9.564 4.708c-.936 0-1.705-.036-2.307-.108-.594-.08-1.062-.224-1.404-.431a1.719 1.719 0 01-.715-.864c-.126-.36-.188-.823-.188-1.39v-4.91h2.266v4.182c0 .387.023.697.068.931a.911.911 0 00.323.54c.162.117.396.193.702.23.315.035.737.053 1.268.053h.189c.531 0 .953-.018 1.268-.054.315-.045.553-.126.715-.243a.85.85 0 00.31-.526 5.12 5.12 0 00.068-.93v-4.183h2.266v4.91c0 .567-.063 1.03-.188 1.39-.126.36-.36.648-.702.864-.333.207-.8.35-1.403.431-.594.072-1.363.108-2.307.108h-.229zm11.905-.094h-2.253V29.54h-3.278v-1.713h8.823v1.713h-3.292v5.896zm7.104 0h-2.28v-7.61h2.28v7.61zm6.909.094c-.728 0-1.358-.018-1.888-.054a7.315 7.315 0 01-1.336-.175c-.369-.099-.67-.234-.904-.405-.225-.17-.4-.395-.526-.674a3.415 3.415 0 01-.256-1.026c-.045-.404-.068-.89-.068-1.457v-.216c0-.566.023-1.052.068-1.457a3.42 3.42 0 01.256-1.025c.126-.288.301-.517.526-.688.234-.17.535-.301.904-.391a7.31 7.31 0 011.336-.176c.53-.036 1.16-.054 1.888-.054h.351c.729 0 1.354.018 1.876.054.53.027.98.086 1.349.176.368.09.665.22.89.391.234.17.414.4.54.688.126.279.211.62.256 1.025.045.405.068.89.068 1.457v.216c0 .567-.023 1.053-.068 1.457a3.6 3.6 0 01-.256 1.04 1.668 1.668 0 01-.54.674c-.225.17-.522.301-.89.391-.369.09-.819.148-1.349.175-.522.036-1.147.054-1.876.054h-.351zm.27-1.767c.657 0 1.17-.018 1.538-.054.378-.036.657-.121.837-.256.189-.144.301-.356.337-.634.045-.28.067-.657.067-1.134v-.121c0-.486-.022-.868-.067-1.147-.036-.288-.148-.499-.337-.634-.18-.144-.459-.234-.837-.27a16.79 16.79 0 00-1.538-.054h-.189c-.665 0-1.182.018-1.551.054-.369.036-.648.126-.837.27-.179.135-.292.346-.337.634a9.452 9.452 0 00-.054 1.147v.121c0 .477.018.855.054 1.134.045.278.158.49.337.634.189.135.468.22.837.256.369.036.886.054 1.551.054h.189zm17.087 1.673h-3.386l-4.452-5.693h-.054v5.693h-2.213v-7.61h3.441l4.398 5.694h.04v-5.693h2.226v7.609z" fill="#424346"/></svg>