<svg width="127" height="40" viewBox="0 0 127 40" fill="none" xmlns="http://www.w3.org/2000/svg">
<path d="M122.388 22.1802C120.049 20.8607 116.965 20.4559 113.851 20.1172C112.495 19.9696 111.263 19.7781 110.415 19.3504C110.035 19.1919 109.718 18.913 109.513 18.5566C109.307 18.2003 109.224 17.7862 109.276 17.3781C109.361 16.219 110.42 15.4315 111.727 15.0728C112.318 14.9135 112.929 14.8396 113.54 14.8534C114.131 14.861 114.716 14.9633 115.274 15.1564C116.182 15.483 116.882 16.0854 117.061 16.9811C117.136 17.2841 117.102 17.8637 117.806 17.819H124.608C124.713 17.8208 124.817 17.8008 124.914 17.7602C125.012 17.7197 125.099 17.6595 125.172 17.5834C125.245 17.5073 125.301 17.417 125.337 17.3182C125.374 17.2193 125.389 17.1141 125.383 17.009C125.265 12.3115 122.218 9.27304 118.308 7.89313C114.961 6.74759 111.327 6.75325 107.984 7.90921C103.985 9.34021 100.909 12.5184 100.996 17.4456C101.057 20.9386 102.239 23.2989 104.287 24.8511C106.306 26.3814 109.154 27.1003 112.589 27.3322C114.104 27.4344 115.486 27.5948 116.468 27.9868C117.349 28.3387 117.9 28.8889 117.9 29.7865C117.9 30.848 116.837 31.5491 115.457 31.8699C114.839 32.0095 114.207 32.077 113.574 32.0711C112.933 32.0694 112.293 31.9941 111.669 31.8467C110.451 31.5523 109.436 30.9692 109.093 30.0984C108.892 29.6829 108.929 29.0697 108.2 29.0529H101.286C100.711 29.0697 100.591 29.4299 100.557 29.7822C100.645 34.6358 103.874 37.7383 108.024 39.1385C109.743 39.706 111.541 39.9966 113.35 39.9993C115.161 40.0151 116.963 39.7477 118.691 39.2068C122.996 37.8333 126.36 34.6919 126.36 29.8304C126.36 25.7965 124.778 23.5301 122.388 22.1802ZM80.3167 7.54691H58.9736C58.3186 7.5687 57.8866 7.92458 57.8448 8.48125V14.6587C57.8431 14.7536 57.8604 14.8479 57.8955 14.9361C57.9306 15.0243 57.983 15.1046 58.0495 15.1723C58.1161 15.24 58.1954 15.2938 58.283 15.3305C58.3705 15.3672 58.4645 15.3861 58.5594 15.3861H65.4554V38.4768C65.4456 38.5865 65.4603 38.697 65.4984 38.8004C65.5364 38.9037 65.5969 38.9973 65.6755 39.0745C65.7541 39.1517 65.8488 39.2104 65.9529 39.2466C66.0569 39.2827 66.1677 39.2954 66.2772 39.2836H73.3042C73.4961 39.2868 73.6815 39.2146 73.8206 39.0825C73.9597 38.9504 74.0414 38.7689 74.0482 38.5772V15.3883H80.5175C80.6597 15.3956 80.8018 15.3738 80.9353 15.3242C81.0687 15.2746 81.1906 15.1982 81.2935 15.0998C81.3963 15.0013 81.4779 14.8829 81.5333 14.7517C81.5887 14.6206 81.6166 14.4795 81.6155 14.3371V8.73744C81.6004 8.40757 81.4553 8.0971 81.2119 7.87397C80.9685 7.65084 80.6466 7.53324 80.3167 7.54691ZM94.6231 7.54691H87.5974C87.4879 7.53512 87.3772 7.54775 87.2731 7.58391C87.1691 7.62006 87.0744 7.67883 86.9958 7.75599C86.9172 7.83315 86.8567 7.92678 86.8186 8.03013C86.7805 8.13349 86.7659 8.24399 86.7756 8.3537V38.4768C86.7659 38.5865 86.7805 38.697 86.8186 38.8004C86.8567 38.9037 86.9172 38.9973 86.9958 39.0745C87.0744 39.1517 87.1691 39.2104 87.2731 39.2466C87.3772 39.2827 87.4879 39.2954 87.5974 39.2836H94.6231C94.8149 39.2868 95.0003 39.2146 95.1394 39.0825C95.2785 38.9504 95.3603 38.7689 95.367 38.5772V8.2533C95.3603 8.06156 95.2785 7.88013 95.1394 7.74802C95.0003 7.61592 94.8149 7.5437 94.6231 7.54691Z" fill="#424346"/>
<path d="M56.5657 31.2841H52.5489V8.8387C52.5442 7.78858 51.8257 7.36268 50.8624 7.56134L38.5137 10.7771C38.2515 10.8526 38.021 11.0111 37.8566 11.2288C37.6921 11.4465 37.6028 11.7116 37.6018 11.9844V16.823C37.5973 16.9177 37.6132 17.0123 37.6484 17.1004C37.6837 17.1885 37.7374 17.268 37.806 17.3335C37.8746 17.399 37.9565 17.449 38.0461 17.4802C38.1357 17.5113 38.2309 17.5229 38.3254 17.514H42.8806V31.2841H38.846C38.31 31.2812 38.1085 31.5567 38.1078 31.9776V35.079L22.335 1.08738C22.0295 0.56107 21.5164 -0.00882889 20.2966 0.000103674H19.046C18.1246 0.0254722 17.6526 0.210555 17.0212 1.15026L0.149738 37.7359C-0.249012 38.4505 0.144022 39.4099 1.38422 39.4231H8.51062C9.41209 39.3873 9.97949 38.9972 10.2121 38.5166L12.0522 34.5073H27.3883L29.0766 38.1314C29.5736 39.1108 30.1599 39.3991 31.1029 39.3974H56.153C56.4327 39.3979 56.7032 39.2973 56.9146 39.1142C57.126 38.9311 57.2641 38.6777 57.3035 38.4008V31.9776C57.3046 31.5567 57.1016 31.2812 56.5657 31.2841ZM15.2751 26.0053L19.6649 15.7811L24.1669 26.0053H15.2751Z" fill="#424346"/>
</svg>
