<svg width="119" height="86" viewBox="0 0 119 86" fill="none" xmlns="http://www.w3.org/2000/svg">
<path d="M115.107 80.7301C113.212 79.7462 111.578 80.5843 112.064 76.1749C112.41 73.0166 110.631 70.5751 108.226 68.9838C105.675 67.2953 102.474 66.9248 99.6678 65.8255C99.2123 65.6494 98.7628 65.455 98.3195 65.2546C96.2544 64.3253 94.0922 62.9466 92.4584 61.3614C92.4463 61.3493 92.4402 61.3432 92.4281 61.331C91.9422 60.8573 91.4867 60.3592 91.0311 59.8491C90.7214 54.9234 92.3552 49.8155 92.5435 45.6551C92.6103 44.1731 92.4949 42.6669 92.2641 41.2031C91.7903 38.2089 89.6585 34.6558 91.7357 31.8923C91.9786 31.5704 92.2519 31.3517 92.6103 31.0116C93.7096 29.9609 94.7543 28.6125 94.9243 27.0516C94.9668 26.6872 94.9608 26.3896 94.979 26.177C95.2766 25.843 95.4527 25.3328 95.3981 24.8955C95.3677 24.6769 95.2827 24.4764 95.1308 24.3246C94.9729 24.1727 94.7482 24.0695 94.4324 24.0452C94.4627 24.1303 94.481 24.2213 94.4931 24.3185C94.4992 24.4096 94.4992 24.5068 94.4749 24.6101C94.4445 24.7619 94.3777 24.9137 94.2623 25.0717C94.2259 25.1263 94.1773 25.1749 94.1287 25.2295C94.1408 25.1749 94.1408 25.1202 94.1408 25.0656C94.1408 25.0109 94.1348 24.9623 94.1226 24.9077C94.0922 24.7558 94.0133 24.61 93.9161 24.4825C93.8189 24.355 93.7035 24.2396 93.5821 24.1363C93.576 24.1302 93.5699 24.1241 93.5638 24.1241C93.0779 24.2031 92.586 24.2335 92.0394 24.2213C91.7114 24.2153 91.3652 24.197 90.9886 24.1667C90.2294 24.1059 89.3487 23.9966 88.2494 23.863C86.3788 23.6322 84.4717 23.4925 82.6192 23.9359C79.9893 24.5675 77.9122 26.3471 77.0315 28.9405C76.3938 30.8173 76.2723 32.8094 75.8532 34.7347C75.5981 35.913 74.6446 37.6076 72.6221 40.0552C70.5449 40.4561 68.0912 40.0917 67.3988 39.9823C67.168 39.9459 66.9433 39.9034 66.7185 39.8548C66.6456 39.9277 66.5849 40.0066 66.5242 40.0856C66.4088 40.2496 66.3237 40.4257 66.2995 40.614C66.2873 40.7051 66.2995 40.8023 66.3238 40.8995C65.8925 40.529 65.85 40.1281 65.9472 39.788C65.9593 39.7394 65.9776 39.6908 65.9958 39.6483C65.9715 39.6422 65.9411 39.6301 65.9168 39.624C65.6496 39.5268 65.4431 39.5147 65.2852 39.5693C65.1272 39.6179 65.0179 39.7333 64.945 39.8851C64.9147 39.9519 64.8904 40.0188 64.8722 40.0795C64.8539 40.1463 64.8418 40.207 64.8357 40.2739C64.8175 40.4014 64.8236 40.5229 64.8479 40.6443C64.86 40.7051 64.8722 40.7658 64.8904 40.8205C64.9207 40.9055 64.9572 40.9905 64.9997 41.0756C65.0301 41.1363 65.0665 41.2031 65.109 41.2639C65.1333 41.3003 65.1515 41.3307 65.1758 41.3671C65.4674 41.774 66.0626 42.6183 67.8847 43.3835C67.3502 43.4807 66.263 43.2985 65.0422 42.2721C63.5542 44.2885 67.4291 46.639 68.8018 47.6715C68.9232 49.9066 67.4899 51.7044 66.342 52.743C64.2769 54.5954 61.6106 55.8709 59.327 57.4318C56.3084 59.4968 53.5449 61.7865 51.4677 64.8294C51.1033 65.3639 50.7936 65.9287 50.5506 66.5118C49.8096 68.2489 49.5849 70.1438 49.7793 71.972C50.0283 74.3528 50.6842 77.0738 48.1758 78.5314C47.198 79.1024 41.7743 80.5054 40.2559 84.605C44.0519 82.5522 46.2687 83.8276 49.1355 83.2385C51.7167 82.704 53.1562 80.809 52.974 78.6833C53.138 80.9609 54.1097 83.0806 56.3509 83.9491C57.5231 84.4046 58.8168 84.5079 60.0619 84.3864C61.1855 84.2771 62.3273 83.7912 63.4692 83.9977C65.8804 84.4471 68.1641 85.0849 70.5935 84.435C71.3588 84.2285 72.0147 84.0281 72.6403 83.8094C73.7457 84.192 74.8389 84.5079 75.9018 84.7448C77.5538 85.1153 79.1694 85.3096 80.7182 85.3278C82.6071 85.346 84.3927 85.1092 86.0265 84.6111C86.81 84.3743 87.5449 84.0645 88.2434 83.7183C89.1848 83.9066 90.1383 84.022 91.0979 84.0827C91.1283 84.0827 91.1648 84.0827 91.2133 84.0888C91.3287 84.0888 91.5049 84.0888 91.7114 84.0766C92.1608 84.2771 92.7257 84.5079 93.333 84.514C94.0254 84.52 94.6085 84.2406 95.0215 83.694C95.3981 83.196 95.4831 82.5947 95.2584 82.0481C95.2037 81.9145 95.1308 81.7869 95.0397 81.6594C95.0276 81.3739 94.9729 81.0945 94.8697 80.8334C97.372 81.1856 99.9715 80.809 101.915 80.3171C101.071 82.5582 97.9247 83.3053 95.7989 82.8984C97.5481 84.5504 100.117 84.8419 102.377 84.2892C103.634 83.9795 104.824 83.4146 105.826 82.5886C106.646 81.9205 107.436 80.9184 108.626 81.2585C109.331 81.4589 109.647 82.0724 110.133 82.5582C110.728 83.1474 111.445 83.5786 112.24 83.8458C114.457 84.599 116.643 83.5422 119 84.605C118.223 82.9409 117.002 81.714 115.107 80.7301Z" fill="#000203"/>
<path d="M75.4395 65.6676C74.9354 65.2668 74.5224 65.4126 74.5224 65.4126C74.4677 65.6434 74.8139 66.0624 75.0629 66.7002C75.3119 67.3379 75.8221 67.6476 75.9679 66.9978C76.1136 66.354 75.7553 65.9227 75.4395 65.6676Z" fill="#424346"/>
<path d="M70.7023 65.0479C70.7144 65.0418 70.7266 65.0297 70.7448 65.0236C71.0181 64.8718 71.2914 64.8111 71.4918 64.7686C71.6922 64.726 71.8076 64.7017 71.7591 64.6167C71.7226 64.556 71.6133 64.4892 71.4554 64.4466C71.2367 64.3859 70.9391 64.3798 70.6415 64.4831C70.5747 64.5074 70.514 64.5317 70.4472 64.5681C69.8945 64.8779 69.6029 65.3152 69.7001 65.4852C69.8034 65.6553 70.1739 65.3516 70.7023 65.0479Z" fill="#424346"/>
<path d="M73.4666 66.8034C73.4544 66.6637 73.4119 66.5301 73.3148 66.4087C73.6002 66.3904 73.8067 66.2993 73.8492 66.1475C73.916 65.8802 73.4605 65.5341 72.8228 65.3701C72.2154 65.2121 71.6749 65.285 71.5656 65.5219C71.5595 65.5341 71.5473 65.5462 71.5473 65.5583C71.5291 65.6252 71.5534 65.698 71.5959 65.7709C71.6324 65.8256 71.681 65.8863 71.7478 65.941H71.7417C71.6992 65.9531 71.6627 65.9713 71.6263 65.9956C71.5595 66.0321 71.4988 66.0746 71.4441 66.1232C71.2923 66.1171 71.0675 66.1232 70.8307 66.1475C70.4662 66.1839 70.0654 66.269 69.8042 66.4755C70.2294 66.4329 70.5938 66.4451 70.8732 66.4755C70.9825 66.4876 71.0858 66.4998 71.1647 66.5119C71.1526 66.5423 71.1404 66.5666 71.1283 66.5969C71.0675 66.6091 70.9886 66.6273 70.9035 66.6516C70.4966 66.7548 69.8407 66.9735 69.5491 67.3501C70.1686 67.1253 70.691 67.0646 70.9643 67.0464C70.9703 67.0464 70.9764 67.0464 70.9764 67.0464C70.9764 67.0585 70.9704 67.0646 70.9704 67.0767C70.9643 67.1071 70.9521 67.1435 70.9461 67.1739C70.6363 67.2954 69.786 67.678 69.5127 68.1943C70.1079 67.8481 70.6302 67.7023 70.8853 67.6477C70.8732 67.9635 70.9461 68.2186 71.0675 68.4129C70.8975 68.4494 70.7699 68.5344 70.7213 68.6559C70.6302 68.917 70.9218 69.2571 71.3712 69.4151C71.4016 69.4272 71.4259 69.4272 71.4562 69.4333C71.8024 69.5305 72.1183 69.494 72.2701 69.3361C72.3065 69.3057 72.343 69.2693 72.3551 69.2268C72.3976 69.0992 72.3551 68.9596 72.2458 68.8259C72.5191 68.7531 72.7864 68.5891 72.9929 68.334C73.1386 68.498 73.5091 68.9474 73.8067 69.6519C73.9039 69.0264 73.3694 68.1214 73.2358 67.9149C73.248 67.8845 73.2601 67.8481 73.2723 67.8117C73.4605 67.9635 73.8857 68.3401 74.2805 68.9535C74.2683 68.3097 73.5577 67.4958 73.4119 67.3318C73.418 67.3136 73.4241 67.2954 73.4241 67.2772C73.6731 67.3987 74.1226 67.6537 74.6024 68.0971C74.4566 67.5505 73.7703 67.016 73.4666 66.8034Z" fill="#424346"/>
<path d="M115.107 80.7301C113.212 79.7462 111.578 80.5843 112.064 76.1749C112.41 73.0166 110.631 70.5751 108.226 68.9838C105.675 67.2953 102.474 66.9248 99.6678 65.8255C99.2123 65.6494 98.7628 65.455 98.3195 65.2546C96.2544 64.3253 94.0922 62.9466 92.4584 61.3614C92.4463 61.3493 92.4402 61.3432 92.4281 61.331C91.9422 60.8573 91.4867 60.3592 91.0311 59.8491C90.7214 54.9234 92.3552 49.8155 92.5435 45.6551C92.6103 44.1731 92.4949 42.6669 92.2641 41.2031C91.7903 38.2089 89.6585 34.6558 91.7357 31.8923C91.9786 31.5704 92.2519 31.3517 92.6103 31.0116C93.7096 29.9609 94.7543 28.6125 94.9243 27.0516C94.9668 26.6872 94.9608 26.3896 94.979 26.177C95.2766 25.843 95.4527 25.3328 95.3981 24.8955C95.3677 24.6769 95.2827 24.4764 95.1308 24.3246C94.9729 24.1727 94.7482 24.0695 94.4324 24.0452C94.4627 24.1303 94.481 24.2213 94.4931 24.3185C94.4992 24.4096 94.4992 24.5068 94.4749 24.6101C94.4445 24.7619 94.3777 24.9137 94.2623 25.0717C94.2259 25.1263 94.1773 25.1749 94.1287 25.2295C94.1408 25.1749 94.1408 25.1202 94.1408 25.0656C94.1408 25.0109 94.1348 24.9623 94.1226 24.9077C94.0922 24.7558 94.0133 24.61 93.9161 24.4825C93.8189 24.355 93.7035 24.2396 93.5821 24.1363C93.576 24.1302 93.5699 24.1241 93.5638 24.1241C93.0779 24.2031 92.586 24.2335 92.0394 24.2213C91.7114 24.2153 91.3652 24.197 90.9886 24.1667C90.2294 24.1059 89.3487 23.9966 88.2494 23.863C86.3788 23.6322 84.4717 23.4925 82.6192 23.9359C79.9893 24.5675 77.9122 26.3471 77.0315 28.9405C76.3938 30.8173 76.2723 32.8094 75.8532 34.7347C75.5981 35.913 74.6446 37.6076 72.6221 40.0552C70.5449 40.4561 68.0912 40.0917 67.3988 39.9823C67.168 39.9459 66.9433 39.9034 66.7185 39.8548C66.6456 39.9277 66.5849 40.0066 66.5242 40.0856C66.4088 40.2496 66.3237 40.4257 66.2995 40.614C66.2873 40.7051 66.2995 40.8023 66.3238 40.8995C65.8925 40.529 65.85 40.1281 65.9472 39.788C65.9593 39.7394 65.9776 39.6908 65.9958 39.6483C65.9715 39.6422 65.9411 39.6301 65.9168 39.624C65.6496 39.5268 65.4431 39.5147 65.2852 39.5693C65.1272 39.6179 65.0179 39.7333 64.945 39.8851C64.9147 39.9519 64.8904 40.0188 64.8722 40.0795C64.8539 40.1463 64.8418 40.207 64.8357 40.2739C64.8175 40.4014 64.8236 40.5229 64.8479 40.6443C64.86 40.7051 64.8722 40.7658 64.8904 40.8205C64.9207 40.9055 64.9572 40.9905 64.9997 41.0756C65.0301 41.1363 65.0665 41.2031 65.109 41.2639C65.1333 41.3003 65.1515 41.3307 65.1758 41.3671C65.4674 41.774 66.0626 42.6183 67.8847 43.3835C67.3502 43.4807 66.263 43.2985 65.0422 42.2721C63.5542 44.2885 67.4291 46.639 68.8018 47.6715C68.9232 49.9066 67.4899 51.7044 66.342 52.743C64.2769 54.5954 61.6106 55.8709 59.327 57.4318C56.3084 59.4968 53.5449 61.7865 51.4677 64.8294C51.1033 65.3639 50.7936 65.9287 50.5506 66.5118C49.8096 68.2489 49.5849 70.1438 49.7793 71.972C50.0283 74.3528 50.6842 77.0738 48.1758 78.5314C47.198 79.1024 41.7743 80.5054 40.2559 84.605C44.0519 82.5522 46.2687 83.8276 49.1355 83.2385C51.7167 82.704 53.1562 80.809 52.974 78.6833C53.138 80.9609 54.1097 83.0806 56.3509 83.9491C57.5231 84.4046 58.8168 84.5079 60.0619 84.3864C61.1855 84.2771 62.3273 83.7912 63.4692 83.9977C65.8804 84.4471 68.1641 85.0849 70.5935 84.435C71.3588 84.2285 72.0147 84.0281 72.6403 83.8094C73.7457 84.192 74.8389 84.5079 75.9018 84.7448C77.5538 85.1153 79.1694 85.3096 80.7182 85.3278C82.6071 85.346 84.3927 85.1092 86.0265 84.6111C86.81 84.3743 87.5449 84.0645 88.2434 83.7183C89.1848 83.9066 90.1383 84.022 91.0979 84.0827C91.1283 84.0827 91.1648 84.0827 91.2133 84.0888C91.3287 84.0888 91.5049 84.0888 91.7114 84.0766C92.1608 84.2771 92.7257 84.5079 93.333 84.514C94.0254 84.52 94.6085 84.2406 95.0215 83.694C95.3981 83.196 95.4831 82.5947 95.2584 82.0481C95.2037 81.9145 95.1308 81.7869 95.0397 81.6594C95.0276 81.3739 94.9729 81.0945 94.8697 80.8334C97.372 81.1856 99.9715 80.809 101.915 80.3171C101.071 82.5582 97.9247 83.3053 95.7989 82.8984C97.5481 84.5504 100.117 84.8419 102.377 84.2892C103.634 83.9795 104.824 83.4146 105.826 82.5886C106.646 81.9205 107.436 80.9184 108.626 81.2585C109.331 81.4589 109.647 82.0724 110.133 82.5582C110.728 83.1474 111.444 83.5786 112.24 83.8458C114.457 84.599 116.644 83.5422 119 84.605C118.223 82.9409 117.002 81.714 115.107 80.7301ZM76.5456 35.7187C77.3048 34.182 77.6875 32.4571 78.1126 31.1635C78.1551 31.0359 78.2037 30.9144 78.2462 30.7869C78.9022 31.042 79.7282 30.5804 80.1108 29.7179C80.4449 28.977 80.3416 28.1874 79.9043 27.7805C81.4531 25.8065 83.6942 24.4886 86.397 24.7862C89.0147 25.0716 90.2659 25.0899 93.2237 24.6343C92.2823 25.7276 90.5027 25.8551 89.3427 25.6669C89.6524 25.928 89.7982 26.2195 89.7982 26.2195C89.7982 26.2195 88.8082 28.5822 86.2269 27.1853C87.3262 27.4829 88.2434 27.5922 89.1483 26.0434C88.0429 25.0959 86.5367 25.6 86.2026 26.0799C85.7653 26.7115 85.158 26.918 84.2894 27.8291C83.4209 28.7401 83.0869 30.4771 83.0869 30.4771C83.0869 30.4771 82.7285 29.803 83.3359 28.2603C82.2791 29.1592 81.5624 30.137 81.0158 31.3214C80.2991 32.8762 80.0015 37.0184 82.0787 40.7172C80.8761 39.6543 79.8071 37.8991 79.6614 35.4028C78.2887 39.0652 81.532 42.7155 83.0261 45.7887C84.5203 48.8619 84.9333 50.5443 85.5102 51.8987C86.5367 54.3221 87.2594 55.6158 88.6078 57.3407C86.0083 55.7311 84.2712 50.3986 83.1719 48.0663C83.0929 47.9023 83.014 47.7383 82.9411 47.5683C82.103 45.7826 81.1676 43.8877 79.7039 42.5272C79.467 42.3085 79.2301 42.1081 78.9811 41.9259C77.9182 41.1485 76.333 40.0492 73.4967 40.1038C74.3045 39.0592 75.1791 38.4882 76.5456 35.7187ZM87.3627 26.4078C87.4113 26.59 87.5206 26.7054 87.6664 26.7601C87.6421 26.7722 87.6299 26.7966 87.6056 26.8087C87.2898 26.9909 86.9801 26.9302 86.9132 26.6751C86.8464 26.4139 87.0529 26.0556 87.3688 25.8733C87.387 25.8612 87.4052 25.8612 87.4295 25.8491C87.3445 26.0373 87.3141 26.2317 87.3627 26.4078ZM58.0272 72.4822C55.9257 73.3446 54.2191 74.5775 52.9315 76.4846C53.1258 76.1931 51.6439 72.4761 51.5771 71.8262C50.7146 63.6633 58.337 59.8308 64.0947 56.1381C68.1155 53.5568 69.7918 51.0484 69.3605 48.3153C71.1583 50.0645 72.0694 52.4696 71.6199 55.7919C71.0551 59.9827 71.6138 61.4525 71.6138 61.4525C71.6138 61.4525 68.4738 62.1631 66.7368 66.8701C65.3641 69.7794 63.6028 70.49 62.1998 70.982C63.1837 70.1438 63.7911 68.9716 63.949 68.1031C62.0419 70.2592 60.3352 71.5347 58.0272 72.4822ZM76.3452 83.4389C75.4888 83.2567 74.596 83.0198 73.6606 82.7162C73.5574 82.6797 73.4542 82.6494 73.3448 82.6129C73.7396 82.455 74.1344 82.2789 74.5595 82.0845C75.1365 81.8173 75.5495 81.1431 75.835 80.4082C76.0476 79.8555 76.1873 79.2664 76.2662 78.7744C76.2905 78.6226 76.3148 78.4829 76.327 78.3553C76.3756 77.9666 76.3695 77.7054 76.3391 77.7054C76.3148 77.7054 76.2602 77.8269 76.1751 78.0213C76.1083 78.1792 76.0233 78.3796 75.9261 78.6104C75.6771 79.1935 75.3309 79.9466 74.9058 80.56C74.6021 80.9973 74.2619 81.3678 73.8854 81.544C72.6099 82.1331 71.954 82.5886 70.6846 82.9895C70.5449 83.032 70.3991 83.0745 70.2412 83.1231C68.7289 83.53 67.9029 83.4936 66.7489 83.2081C66.7246 83.202 66.7064 83.196 66.6821 83.1899C66.591 83.1656 66.4999 83.1413 66.4027 83.117C65.9593 82.9955 65.6071 82.9227 65.2973 82.868C64.9936 82.8194 64.7385 82.7891 64.5017 82.7648C64.1798 82.7283 63.87 82.698 63.4874 82.6129C63.2201 82.5522 63.0622 82.455 63.0076 82.3274C62.959 82.206 62.9833 82.0298 63.0744 81.799C63.1533 81.5865 63.293 81.3375 63.4874 81.0398C64.1433 80.0316 65.6496 80.0984 66.7428 80.4568C68.1398 80.9184 69.0143 80.5661 69.5185 79.977C69.567 79.9162 69.6217 79.8555 69.6764 79.7948C70.3323 79.0659 70.144 78.2095 69.9315 77.2013C69.8221 76.6729 69.7067 76.1081 69.7007 75.4886C69.7007 75.3428 69.7007 75.197 69.7128 75.0452C69.6581 75.0209 69.5245 75.2092 69.4091 75.5372C69.2694 75.9198 69.154 76.5029 69.1966 77.2074C69.2026 77.2681 69.1966 77.3228 69.2026 77.3835L69.2269 77.6265C69.3423 78.738 69.3484 78.7562 68.8625 79.3089C68.8078 79.3757 68.7532 79.4364 68.6985 79.4972C68.6803 79.5154 68.6682 79.5336 68.6499 79.5518C68.4859 79.4364 68.0183 79.0477 67.581 78.1731C67.5749 78.1367 67.5688 78.1063 67.5445 78.0759C67.5324 78.0516 67.5142 78.0334 67.502 78.0152C67.417 77.8269 67.332 77.6143 67.2469 77.3835C67.1072 76.9766 66.9797 76.4968 66.8825 75.9441C66.8279 75.6465 66.7853 75.3307 66.755 74.9905C66.6517 73.8973 66.6578 72.8587 66.7671 71.8505C66.9554 70.0831 67.4777 68.3946 68.3766 66.6029C68.4131 66.5361 68.4495 66.4693 68.486 66.4025C68.6317 66.1231 68.7714 65.8437 68.9354 65.5643C69.3545 64.8355 69.8221 64.3132 70.308 63.9305C70.557 63.7362 70.8121 63.5722 71.0733 63.4507C71.3405 63.3231 71.6017 63.2321 71.8629 63.1713C72.2334 63.0802 72.5978 63.0559 72.9318 63.062C73.7214 63.0802 74.3834 63.2928 74.7235 63.4325C76.7886 64.2706 77.7603 65.9652 77.2744 67.8662C77.153 68.3339 77.0133 68.7712 76.8797 69.1963C76.3209 70.9637 76.169 72.2756 77.8696 73.4053C78.6046 73.8973 79.3577 74.0491 80.7303 74.5229C81.4774 78.2339 79.1026 82.1149 76.3452 83.4389ZM93.9282 82.8741C93.8675 82.953 93.8007 83.0077 93.7339 83.0502C93.3452 83.2871 92.7803 83.0745 92.094 82.7648C91.9786 82.7101 91.8632 82.6615 91.76 82.619C91.4563 82.4915 91.2012 82.4064 90.9704 82.3396C90.5149 82.206 90.1505 82.1696 89.7192 82.1635C89.9986 81.9691 90.1201 81.7322 90.1626 81.5257C90.2051 81.3253 90.1687 81.1613 90.1201 81.1188C90.108 81.1067 90.0411 81.1553 89.9197 81.2403C89.5978 81.465 88.875 81.9752 87.7635 82.4914C87.2898 82.7101 86.7371 82.9348 86.1176 83.1352C85.1823 83.4389 83.4088 83.6879 81.5624 83.8216C85.0001 82.8133 87.0833 79.5518 87.9518 78.574C89.4216 78.7258 90.3448 79.9284 90.7335 80.2078C91.183 80.5297 91.6446 80.724 92.5556 80.8758C93.5092 81.0398 93.6489 81.2463 93.6732 81.6776C93.333 81.5075 92.5252 81.3678 92.1487 81.5865C93.0172 81.6411 93.8614 82.2485 93.989 82.5704C94.0194 82.6311 94.0376 82.7283 93.9282 82.8741ZM97.7242 70.9455C95.8839 70.8362 94.7178 70.2835 93.8068 69.5608C93.0597 68.9716 92.4767 68.261 91.845 67.5929C91.3045 67.0159 90.4542 66.6272 90.0047 67.4897C89.6099 68.2488 89.9743 69.1113 90.0472 69.9009C90.1748 71.2735 89.5188 72.5915 88.7839 73.7029C88.5653 74.037 88.2191 74.6079 87.7696 75.3003C88.1219 74.0977 88.4256 72.6218 88.541 70.9455C87.8121 73.6118 86.3241 76.6608 85.1762 78.8108C83.5545 80.6754 81.5503 82.3517 79.3638 82.5947C81.2284 80.56 81.8904 78.3432 82.1758 76.6122C81.9815 74.9298 81.7385 70.9334 83.3359 68.3521C83.0201 69.3117 82.9229 70.5265 82.935 71.7472C83.0626 71.3099 83.2023 70.8848 83.3966 70.4718C84.0101 69.1599 85.1033 68.3157 86.0933 67.3014C87.0894 66.2749 86.3848 65.127 85.2734 64.5865C83.591 63.7666 79.8922 60.0131 78.8293 53.2592C78.3798 55.1542 78.5317 57.5047 78.7928 58.9198C76.9829 55.221 78.0033 50.8237 77.4263 46.8516C77.1044 44.6226 75.9808 42.928 73.7275 42.3449C73.2173 42.2113 72.6889 42.1384 72.1665 42.0899C72.1362 42.0899 72.1119 42.0838 72.0876 42.0777C71.7839 42.1749 71.4438 42.351 71.1948 42.6972C71.3345 42.9159 71.4985 43.0859 71.6746 43.2135C71.8568 43.3471 72.0572 43.4443 72.2516 43.505C72.4034 43.4078 72.5127 43.256 72.5492 43.0434C72.5856 42.8126 72.5188 42.5636 72.3913 42.3328C72.4156 42.345 72.4399 42.3449 72.4702 42.3571C72.9015 42.5515 73.2112 42.9887 73.1565 43.3349C73.1383 43.4746 73.0472 43.5658 72.9318 43.6265C73.4481 43.6508 73.8489 43.5354 73.8489 43.5354C73.8489 43.5354 72.6828 44.2217 71.9418 43.8512C71.8021 43.7844 71.6624 43.7055 71.5288 43.6326C71.0854 43.3836 70.7089 43.1345 70.551 43.0313C70.5024 43.0009 70.472 42.9766 70.472 42.9766C70.472 42.9766 70.5935 42.6669 70.8911 42.3814C71.0247 42.2539 71.1887 42.1324 71.4013 42.0473C71.4073 42.0413 71.4195 42.0413 71.4256 42.0413C71.3952 42.0413 71.3648 42.0352 71.3345 42.0352C71.2494 42.0352 71.1705 42.0291 71.0854 42.0231C68.4677 41.8773 68.0608 40.8144 68.0608 40.8144C69.0447 41.191 70.2959 41.1606 71.6989 41.0938C72.0754 41.0756 72.4581 41.0574 72.8529 41.0391C73.0594 41.0331 73.2719 41.0209 73.4845 41.0149C75.5435 40.9663 77.2987 41.768 78.8596 43.7662C78.7868 43.7905 78.72 43.8269 78.6592 43.8755C78.2098 44.246 78.3312 45.1449 78.9386 45.8859C78.9508 45.9041 78.969 45.9162 78.9811 45.9284C79.2484 46.2381 79.552 46.4629 79.8557 46.5904C80.1959 46.7301 80.5238 46.7483 80.7668 46.6086C80.8093 46.6876 80.8579 46.7726 80.9004 46.8516C81.4774 47.8841 82.0422 49.0381 82.8379 50.599C83.8582 52.6033 84.7024 54.7169 85.9597 56.5936C87.3262 58.6404 89.5127 59.9948 91.4198 61.5375C93.2419 63.0195 94.8089 64.5925 96.8193 65.8559C99.6131 67.6111 102.966 67.3196 105.741 69.4757C101.751 69.8037 100.233 71.0974 97.7242 70.9455Z" fill="#424346"/>
<path d="M48.0482 69.5244H11.88V62.886C11.3333 63.0864 10.7563 63.2504 10.1611 63.3719V71.2493H47.9996C47.9814 70.6663 47.9997 70.0893 48.0482 69.5244Z" fill="#424346"/>
<path d="M11.886 40.0493V1.72492H79.6856V23.2558C80.2262 22.9582 80.8031 22.7092 81.4044 22.5088V0H10.1611V40.0371C10.3008 40.0371 10.4405 40.0311 10.5802 40.0311C11.0357 40.0311 11.467 40.0372 11.886 40.0493Z" fill="#424346"/>
<path d="M7.67096 48.449L0.58914 47.7019C0.856378 46.4629 1.23901 45.4911 1.74312 44.7805C2.24723 44.0699 2.97 43.4564 3.91748 42.9341C4.59772 42.5576 5.53305 42.266 6.72348 42.0595C7.9139 41.853 9.20151 41.7498 10.5802 41.7498C12.8032 41.7498 14.5827 41.8773 15.9311 42.1202C17.2794 42.3693 18.403 42.8855 19.2958 43.6751C19.9275 44.2217 20.4255 44.9931 20.7899 45.9952C21.1544 46.9973 21.3366 47.9509 21.3366 48.862V57.4014C21.3366 58.3125 21.3912 59.0231 21.5066 59.5393C21.622 60.0556 21.871 60.7116 22.2597 61.5133H15.3055C15.0261 61.0152 14.8439 60.6386 14.7588 60.3775C14.6738 60.1163 14.5888 59.7094 14.5038 59.1506C13.532 60.086 12.5663 60.7541 11.6127 61.1549C10.3008 61.6894 8.77635 61.9566 7.04538 61.9566C4.73741 61.9566 2.98822 61.4221 1.79172 60.3532C0.59522 59.2842 0 57.9663 0 56.4054C0 54.9355 0.431228 53.7269 1.29368 52.7855C2.15613 51.838 3.74742 51.1335 6.06146 50.6719C8.84317 50.1131 10.6409 49.7244 11.467 49.4997C12.293 49.275 13.1676 48.9834 14.0908 48.619C14.0908 47.708 13.9025 47.0702 13.5259 46.7058C13.1493 46.3414 12.4873 46.1592 11.5398 46.1592C10.3251 46.1592 9.41408 46.3536 8.80672 46.7423C8.34512 47.046 7.96249 47.6169 7.67096 48.449ZM14.0968 52.3482C13.0765 52.7126 12.0136 53.0345 10.9143 53.3139C9.408 53.7148 8.45445 54.1095 8.0536 54.4982C7.64059 54.8991 7.43408 55.3546 7.43408 55.8648C7.43408 56.4479 7.63451 56.9216 8.04144 57.2921C8.44837 57.6626 9.04359 57.8448 9.83316 57.8448C10.6592 57.8448 11.4244 57.6444 12.1351 57.2435C12.8457 56.8427 13.3498 56.3568 13.6474 55.7798C13.945 55.2028 14.0908 54.4557 14.0908 53.5326V52.3482H14.0968Z" fill="#424346"/>
<path d="M26.0322 34.8381H33.4602V61.5194H26.0322V34.8381Z" fill="#424346"/>
<path d="M47.1304 34.8381V42.1933H51.2058V47.617H47.1304V54.468C47.1304 55.294 47.2094 55.8346 47.3673 56.1018C47.6102 56.5148 48.0354 56.7213 48.6427 56.7213C49.1894 56.7213 49.9546 56.5634 50.9386 56.2476L51.4852 61.3616C49.651 61.7624 47.9443 61.9628 46.353 61.9628C44.5066 61.9628 43.1522 61.7259 42.2776 61.2522C41.403 60.7785 40.7592 60.0618 40.3401 59.0961C39.9211 58.1304 39.7146 56.5695 39.7146 54.4134V47.617H36.9814V42.1933H39.7146V38.6463L47.1304 34.8381Z" fill="#424346"/>
<path d="M17.1514 12.9673H21.7126V19.132C22.1621 18.6157 22.6783 18.227 23.2493 17.9659C23.8202 17.7047 24.4579 17.5772 25.1503 17.5772C26.5837 17.5772 27.7741 18.142 28.7155 19.2717C29.6569 20.4014 30.1246 22.0169 30.1246 24.1306C30.1246 25.5396 29.912 26.7786 29.4808 27.8476C29.0496 28.9166 28.4604 29.7183 27.7012 30.2528C26.942 30.7812 26.1039 31.0484 25.1746 31.0484C24.385 31.0484 23.6562 30.8601 23.0002 30.4896C22.5022 30.1981 21.9617 29.6515 21.3786 28.8498V30.7569H17.1514V12.9673ZM21.6762 24.2763C21.6762 25.3817 21.8645 26.1895 22.2471 26.6876C22.6298 27.1856 23.1096 27.4346 23.6987 27.4346C24.2393 27.4346 24.6948 27.1917 25.0592 26.6997C25.4236 26.2078 25.6058 25.3878 25.6058 24.2278C25.6058 23.2074 25.4236 22.4603 25.0653 21.9805C24.7069 21.5007 24.2696 21.2638 23.7594 21.2638C23.146 21.2638 22.6419 21.5128 22.2532 22.0109C21.8706 22.5089 21.6762 23.262 21.6762 24.2763Z" fill="#424346"/>
<path d="M36.4056 22.0412L32.0873 21.5432C32.2513 20.7172 32.4821 20.0673 32.7918 19.5936C33.1016 19.1198 33.5389 18.7068 34.1159 18.3606C34.5289 18.1116 35.0998 17.9173 35.8226 17.7776C36.5453 17.6379 37.3288 17.571 38.173 17.571C39.5274 17.571 40.6146 17.6561 41.4346 17.8201C42.2545 17.9841 42.9408 18.3302 43.4874 18.8586C43.8701 19.2231 44.1737 19.7393 44.3985 20.4074C44.6232 21.0755 44.7325 21.7132 44.7325 22.3206V28.0116C44.7325 28.6189 44.769 29.0926 44.8358 29.4388C44.9087 29.785 45.0605 30.2224 45.2974 30.7568H41.058C40.8879 30.4228 40.7786 30.1738 40.7239 29.9976C40.6693 29.8215 40.6207 29.5482 40.566 29.1777C39.9708 29.8033 39.3878 30.2466 38.7986 30.5139C37.9969 30.8722 37.0737 31.0484 36.0108 31.0484C34.6078 31.0484 33.5389 30.69 32.81 29.9794C32.0812 29.2688 31.7168 28.3881 31.7168 27.3496C31.7168 26.3717 31.978 25.5639 32.5064 24.9383C33.0287 24.3067 34.0005 23.839 35.4156 23.5292C37.1101 23.1588 38.2095 22.8976 38.7136 22.7458C39.2177 22.5939 39.7522 22.3995 40.3109 22.1566C40.3109 21.5492 40.1955 21.1241 39.9647 20.8812C39.7339 20.6382 39.3331 20.5168 38.7561 20.5168C38.0151 20.5168 37.4624 20.6443 37.0919 20.9054C36.8186 21.1059 36.5817 21.4824 36.4056 22.0412ZM40.3231 24.6407C39.7036 24.8837 39.0537 25.0962 38.3795 25.2845C37.4624 25.5518 36.8794 25.8129 36.6364 26.0741C36.3874 26.3413 36.2599 26.645 36.2599 26.9851C36.2599 27.3738 36.3813 27.6897 36.6303 27.9387C36.8794 28.1877 37.2438 28.3092 37.7236 28.3092C38.2277 28.3092 38.6954 28.1756 39.1266 27.9083C39.5578 27.6411 39.8676 27.3131 40.0498 26.9305C40.232 26.5478 40.3231 26.0437 40.3231 25.4303V24.6407Z" fill="#424346"/>
<path d="M46.6504 27.1734L51.1327 26.7118C51.3149 27.2949 51.5761 27.7079 51.9101 27.963C52.2442 28.212 52.6876 28.3395 53.2402 28.3395C53.8476 28.3395 54.3153 28.1999 54.6493 27.9144C54.9105 27.7018 55.038 27.4406 55.038 27.1248C55.038 26.7725 54.868 26.4932 54.5278 26.2988C54.2849 26.1591 53.635 25.9891 52.5843 25.7886C51.0173 25.491 49.9241 25.2117 49.3167 24.9566C48.7093 24.7015 48.1931 24.2702 47.774 23.6629C47.3549 23.0555 47.1484 22.3631 47.1484 21.5918C47.1484 20.7415 47.3731 20.0126 47.8226 19.3992C48.272 18.7858 48.8976 18.3242 49.6872 18.0266C50.4768 17.7229 51.5396 17.571 52.8697 17.571C54.2728 17.571 55.3113 17.6865 55.9855 17.9233C56.6536 18.1602 57.2124 18.5246 57.6618 19.0166C58.1113 19.5085 58.4818 20.1766 58.7794 21.0208L54.4975 21.4824C54.3882 21.0694 54.1999 20.7658 53.9448 20.5714C53.5925 20.3102 53.1613 20.1827 52.6572 20.1827C52.147 20.1827 51.7765 20.2799 51.5396 20.4803C51.3089 20.6807 51.1874 20.9176 51.1874 21.203C51.1874 21.5189 51.3331 21.7558 51.6307 21.9198C51.9284 22.0837 52.5722 22.2295 53.5621 22.357C55.0623 22.5453 56.1799 22.8004 56.9148 23.1345C57.6497 23.4685 58.2085 23.9362 58.5972 24.5496C58.9859 25.163 59.1802 25.8372 59.1802 26.5721C59.1802 27.3131 58.9737 28.0419 58.5668 28.7404C58.1538 29.4449 57.51 30.0037 56.6232 30.4167C55.7365 30.8358 54.5339 31.0423 53.0094 31.0423C50.8533 31.0423 49.3228 30.7083 48.4117 30.0341C47.4946 29.366 46.9055 28.4124 46.6504 27.1734Z" fill="#424346"/>
<path d="M74.4191 25.5335H65.3633C65.4423 26.3292 65.6427 26.9183 65.9525 27.307C66.3898 27.8658 66.9607 28.1452 67.6592 28.1452C68.1025 28.1452 68.5277 28.0237 68.9225 27.7808C69.1654 27.6289 69.4266 27.3556 69.712 26.9669L74.164 27.4164C73.4838 28.71 72.6638 29.6393 71.6981 30.198C70.7385 30.7629 69.3537 31.0423 67.5559 31.0423C65.995 31.0423 64.7681 30.7993 63.8692 30.3195C62.9764 29.8397 62.2354 29.0745 61.6463 28.0237C61.0572 26.9791 60.7656 25.7461 60.7656 24.331C60.7656 22.3145 61.3548 20.6868 62.533 19.4417C63.7113 18.1966 65.3451 17.571 67.4223 17.571C69.1108 17.571 70.4409 17.8504 71.4187 18.4092C72.3966 18.968 73.1376 19.7758 73.6477 20.8386C74.1579 21.8954 74.413 23.2802 74.413 24.9748V25.5335H74.4191ZM69.8214 23.1709C69.7303 22.2174 69.4995 21.531 69.1168 21.118C68.7342 20.705 68.2362 20.4985 67.6106 20.4985C66.8939 20.4985 66.3169 20.8083 65.8917 21.4338C65.6184 21.8226 65.4423 22.3996 65.3694 23.1709H69.8214Z" fill="#424346"/>
</svg>
