<svg width="162" height="42" viewBox="0 0 162 42" fill="none" xmlns="http://www.w3.org/2000/svg"><path d="M50.359 4.5h4.405l-.024 5.993h.796L60.349 4.5h5.266l-6.608 7.696 6.924 8.196h-5.45l-4.949-6.085h-.795l.024 6.085h-4.406V4.5h.004z" fill="#424346"/><path d="M65.315 12.492v-.044c0-4.562 3.678-8.264 8.584-8.264 4.905 0 8.535 3.654 8.535 8.22v.044c0 4.561-3.678 8.263-8.583 8.263-4.902 0-8.536-3.654-8.536-8.22zm12.601 0v-.044c0-2.315-1.635-4.29-4.065-4.29-2.43 0-4.042 1.951-4.042 4.245v.045c0 2.294 1.659 4.29 4.086 4.29 2.41 0 4.021-1.952 4.021-4.246zm7.003 3.892l5.197-12.101h4.838l5.177 12.101h1.974v7.332H98.02V20.29H87.03v3.426h-4.062v-7.332h1.95zm4.494.156h6.129l-3.067-7.763-3.062 7.763zM51.124 35.77c-.86-.86-1.33-2.094-1.33-3.91 0-3.847 1.408-5.706 4.444-6.223l2.97-.5.296 1.737-2.94.47c-1.893.329-2.753 1.155-2.988 2.814.673-.72 1.75-1.203 3.002-1.203 2.423 0 3.83 1.563 3.83 3.77 0 2.345-1.736 4.174-4.347 4.174-1.278 0-2.294-.486-2.937-1.129zm5.412-3.019c0-1.39-.891-2.376-2.329-2.376-1.563 0-2.519 1.064-2.519 2.441 0 1.438 1 2.471 2.407 2.471 1.455 0 2.44-1.08 2.44-2.535zm3.358-.139v-.03c0-2.363 1.672-4.3 4.035-4.3 2.627 0 3.956 2.063 3.956 4.442 0 .174-.017.344-.03.53h-6.068c.204 1.347 1.156 2.095 2.376 2.095.921 0 1.58-.344 2.237-.986l1.111.986c-.782.938-1.86 1.546-3.379 1.546-2.393.004-4.238-1.734-4.238-4.283zm6.115-.608c-.126-1.22-.843-2.172-2.098-2.172-1.155 0-1.971.89-2.141 2.172h4.239zm3.896 2.423c.812.578 1.781.922 2.784.922 1.19 0 1.846-.422 1.846-1.095 0-.642-.626-1-1.737-1h-1.799v-1.39h1.782c1.016 0 1.533-.374 1.533-1.016 0-.625-.595-1.016-1.625-1.016-.969 0-1.815.33-2.641.938l-1-1.204c.986-.798 2.159-1.281 3.74-1.281 2.08 0 3.392.955 3.392 2.328v.017c0 1-.626 1.547-1.455 1.877.955.251 1.672.86 1.672 1.924v.017c0 1.346-1.329 2.454-3.705 2.454-1.533 0-2.72-.438-3.739-1.19l.952-1.285zm7.957-1.797v-.032c0-2.362 1.877-4.316 4.41-4.316 2.531 0 4.394 1.924 4.394 4.286v.03c0 2.346-1.876 4.3-4.425 4.3-2.52 0-4.379-1.923-4.379-4.269zm6.91 0v-.032c0-1.454-1.046-2.658-2.532-2.658-1.515 0-2.488 1.19-2.488 2.628v.03c0 1.438 1.047 2.642 2.52 2.642 1.532 0 2.5-1.19 2.5-2.61zm3.801-4.179h7.6v8.257h-1.892v-6.554h-3.8v6.554h-1.908v-8.257zm9.412 5.881v-.03c0-1.782 1.408-2.659 3.427-2.659.921 0 1.58.14 2.219.343v-.203c0-1.173-.72-1.799-2.049-1.799-.921 0-1.611.204-2.363.517l-.516-1.485c.92-.408 1.815-.673 3.127-.673 1.234 0 2.158.33 2.736.92.609.596.891 1.47.891 2.55v4.895h-1.846v-1.033c-.564.673-1.424 1.203-2.689 1.203-1.546.003-2.937-.887-2.937-2.546zm5.677-.595v-.56a5.26 5.26 0 00-1.876-.33c-1.221 0-1.941.516-1.941 1.376v.03c0 .8.703 1.252 1.611 1.252 1.251 0 2.206-.718 2.206-1.768zm3.61-1.107v-.032c0-2.345 1.816-4.316 4.3-4.316 1.547 0 2.519.577 3.301 1.424l-1.19 1.268c-.577-.595-1.189-1.034-2.127-1.034-1.377 0-2.394 1.19-2.394 2.628v.03c0 1.469 1.017 2.642 2.472 2.642.89 0 1.533-.408 2.141-1.017l1.142 1.126c-.812.907-1.767 1.546-3.379 1.546-2.45.004-4.266-1.92-4.266-4.266zm9.37-4.179h1.907v3.236h3.814v-3.236h1.893v8.257h-1.893v-3.283h-3.814v3.283h-1.907v-8.257zm9.52 4.179v-.032c0-2.362 1.876-4.316 4.409-4.316 2.532 0 4.395 1.924 4.395 4.286v.03c0 2.346-1.876 4.3-4.426 4.3-2.515 0-4.378-1.923-4.378-4.269zm6.914 0v-.032c0-1.454-1.047-2.658-2.532-2.658-1.516 0-2.489 1.19-2.489 2.628v.03c0 1.438 1.047 2.642 2.519 2.642 1.53 0 2.502-1.19 2.502-2.61zm3.359 0v-.032c0-2.345 1.815-4.316 4.3-4.316 1.546 0 2.518.577 3.3 1.424l-1.189 1.268c-.578-.595-1.19-1.034-2.128-1.034-1.377 0-2.393 1.19-2.393 2.628v.03c0 1.469 1.016 2.642 2.471 2.642.89 0 1.533-.408 2.141-1.017l1.142 1.126c-.812.907-1.767 1.546-3.378 1.546-2.451.004-4.266-1.92-4.266-4.266zm11.414-2.49h-2.941v-1.689h7.771v1.69h-2.94v6.567h-1.894v-6.567h.004zm6.52-1.689h1.894v5.286l3.939-5.286H162v8.257h-1.893v-5.411l-4.018 5.411h-1.72v-8.257zM19.154 17.648c-.173 0-.346-.02-.523-.06-4.78-1.16-7.723-5.99-6.567-10.77C13.223 2.04 18.054-.905 22.832.251a8.93 8.93 0 016.67 7.043 2.209 2.209 0 11-4.345.81 4.514 4.514 0 00-3.365-3.556 4.503 4.503 0 00-4.902 6.717 4.466 4.466 0 002.781 2.029 2.213 2.213 0 011.628 2.668 2.212 2.212 0 01-2.145 1.686zm1.585 23.819a8.93 8.93 0 01-8.77-7.295 2.209 2.209 0 114.344-.809 4.514 4.514 0 003.365 3.556 4.507 4.507 0 005.432-3.315 4.475 4.475 0 00-.53-3.402 4.466 4.466 0 00-2.78-2.03 2.213 2.213 0 01-1.629-2.668 2.213 2.213 0 012.668-1.628c4.78 1.159 7.724 5.99 6.568 10.768-.99 4.08-4.65 6.823-8.668 6.823zM8.936 29.658a9.017 9.017 0 01-2.118-.255C2.04 28.243-.905 23.413.251 18.634a8.93 8.93 0 017.043-6.67 2.21 2.21 0 01.81 4.345 4.514 4.514 0 00-3.556 3.365 4.503 4.503 0 006.717 4.902 4.466 4.466 0 002.029-2.78 2.211 2.211 0 014.297 1.04 8.865 8.865 0 01-4.025 5.513 8.889 8.889 0 01-4.63 1.309zm24.836-.118a2.21 2.21 0 01-.401-4.383 4.514 4.514 0 003.555-3.365 4.503 4.503 0 00-6.717-4.902 4.466 4.466 0 00-2.03 2.781 2.211 2.211 0 01-4.296-1.04 8.866 8.866 0 014.025-5.514 8.859 8.859 0 016.744-1.053c4.78 1.159 7.723 5.989 6.567 10.768a8.93 8.93 0 01-7.043 6.67 2.356 2.356 0 01-.404.037z" fill="#424346"/></svg>