<svg width="187" height="51" viewBox="0 0 187 51" fill="none" xmlns="http://www.w3.org/2000/svg">
<path d="M23.9042 37.1132C19.1698 37.0985 14.6311 35.1986 11.269 31.8241C7.90684 28.4497 5.99117 23.8716 5.93589 19.0791H0.931641C0.931641 25.248 3.35238 31.1642 7.66134 35.5263C11.9703 39.8884 17.8145 42.339 23.9083 42.339C30.0021 42.339 35.8462 39.8884 40.1552 35.5263C44.4642 31.1642 46.8849 25.248 46.8849 19.0791H41.8726C41.8194 23.8723 39.9043 28.4516 36.5417 31.8265C33.1792 35.2014 28.6393 37.1006 23.9042 37.1132Z" fill="#424346"/>
<path d="M21.4501 23.9979H26.3573V5.14398H35.556V0.225586H12.2676V5.19317H21.4501V23.9979Z" fill="#424346"/>
<path d="M177.15 32.5725V26.5475H186.057V25.5721H177.15V20.1127H186.057V19.1289H176.064V33.548H186.041V32.5725H177.15Z" fill="#424346"/>
<path d="M186.252 33.761H175.838V18.9238H186.227V20.3256H177.32V25.367H186.227V26.7605H177.32V32.3593H186.227L186.252 33.761ZM176.275 33.3429H185.838V32.7856H176.931V26.3343H185.838V25.7768H176.931V19.8993H185.838V19.3419H176.284L176.275 33.3429Z" fill="#424346"/>
<path d="M186.364 33.8347H175.765V18.8335H186.291V20.4074H177.457V25.2684H186.364V26.8423H177.457V32.2689H186.364V33.8347ZM176.388 33.2362H185.773V32.8592H176.866V26.2521H185.773V25.875H176.866V19.809H185.773V19.4319H176.355L176.388 33.2362Z" fill="#424346"/>
<path d="M186.542 34.0557H175.562V18.6201H186.542V20.6203H177.635V25.0632H186.542V27.0634H177.635V32.0638H186.542V34.0557ZM175.975 33.6376H186.129V32.4818H177.222V26.6371H186.129V25.4813H177.222V20.2022H186.129V19.0791H175.975V33.6376ZM185.951 33.4572H176.153V19.2185H185.951V20.0382H177.044V25.6371H185.951V26.4568H177.044V32.6621H185.951V33.4572ZM176.566 33.0146H176.647V19.6447H176.566V33.0146Z" fill="#424346"/>
<path d="M116.336 23.1777C116.336 19.6201 113.713 19.0791 112.142 19.0791H106.069V20.0628H112.094C112.512 20.0183 112.936 20.0676 113.334 20.2071C113.732 20.3465 114.095 20.5729 114.397 20.8701C114.699 21.1672 114.933 21.528 115.082 21.9268C115.231 22.3255 115.291 22.7525 115.26 23.1777C115.26 24.6533 114.401 26.2272 111.98 26.2272H106.077V33.531H107.163V27.2272H111.867C114.693 27.2272 116.336 25.7681 116.336 23.1777Z" fill="#424346"/>
<path d="M107.365 33.761H105.867V26.0309H111.981C114.248 26.0309 115.057 24.5636 115.057 23.1947C115.057 22.3257 114.766 20.3174 112.102 20.3174H105.875V18.9238H112.159C113.778 18.9238 116.563 19.4813 116.563 23.2192C116.563 25.8998 114.847 27.4327 111.851 27.4327H107.381L107.365 33.761ZM106.28 33.3429H106.952V27.0146H111.81C114.54 27.0146 116.11 25.6293 116.11 23.2192C116.11 20.0141 113.94 19.3419 112.127 19.3419H106.28V19.8993H112.094C112.537 19.8533 112.984 19.9054 113.405 20.0519C113.826 20.1984 114.211 20.4359 114.532 20.7478C114.853 21.0598 115.103 21.4388 115.265 21.8584C115.428 22.2781 115.497 22.7285 115.47 23.1783C115.47 24.7522 114.556 26.4572 111.981 26.4572H106.313L106.28 33.3429Z" fill="#424346"/>
<path d="M107.454 33.8347H105.778V25.9488H111.98C114.75 25.9488 114.969 23.8421 114.969 23.2027C114.969 22.383 114.685 20.4156 112.102 20.4156H105.785V18.8335H112.158C113.511 18.8335 116.653 19.2598 116.653 23.2191C116.653 25.916 114.855 27.5227 111.85 27.5227H107.47L107.454 33.8347ZM106.369 33.2362H106.863V26.9243H111.867C114.579 26.9243 116.078 25.6045 116.078 23.2191C116.078 20.0877 113.956 19.4319 112.183 19.4319H106.401V19.8172H112.126C112.577 19.7777 113.03 19.8367 113.457 19.9902C113.883 20.1437 114.271 20.388 114.596 20.7067C114.921 21.0253 115.174 21.4109 115.339 21.8373C115.504 22.2637 115.576 22.721 115.552 23.1781C115.552 24.7192 114.612 26.5308 111.972 26.5308H106.361L106.369 33.2362Z" fill="#424346"/>
<path d="M107.657 34.0557H105.567V25.7354H111.981C114.491 25.7354 114.758 23.9565 114.758 23.1942C114.758 22.2351 114.41 20.6203 112.094 20.6203H105.567V18.6201H112.151C113.56 18.6201 116.847 19.071 116.847 23.2188C116.847 26.0469 114.977 27.7355 111.835 27.7355H107.657V34.0557ZM105.98 33.6376H107.244V27.2765H111.867C114.742 27.2765 116.458 25.7436 116.458 23.1778C116.458 19.4071 113.462 18.9972 112.175 18.9972H106.012V20.1612H112.126C112.531 20.1185 112.94 20.1658 113.325 20.2999C113.71 20.4339 114.061 20.6514 114.354 20.9371C114.647 21.2228 114.875 21.57 115.022 21.9542C115.168 22.3384 115.23 22.7504 115.203 23.1614C115.203 24.596 114.394 26.1207 112.013 26.1207H106.021L105.98 33.6376ZM107.066 33.4572H106.199V26.3337H112.013C114.499 26.3337 115.382 24.6451 115.382 23.1942C115.408 22.7611 115.341 22.3273 115.187 21.9227C115.032 21.518 114.792 21.1521 114.484 20.8499C114.177 20.5478 113.808 20.3166 113.404 20.1723C112.999 20.0279 112.57 19.9738 112.143 20.0137H106.199V19.1939H112.183C114.831 19.1939 116.289 20.612 116.289 23.1942C116.289 25.7764 114.717 27.1125 111.876 27.1125H107.106L107.066 33.4572ZM106.572 33.0392H106.645V26.7518H106.572V33.0392ZM113.382 19.7677C114.101 19.9785 114.729 20.4307 115.162 21.0504C115.595 21.6701 115.806 22.4203 115.762 23.1778C115.797 23.8675 115.623 24.5516 115.262 25.1378C114.902 25.7242 114.372 26.1845 113.746 26.4568C114.415 26.2394 114.989 25.7938 115.37 25.1958C115.751 24.5979 115.916 23.8847 115.835 23.1778C115.835 21.2842 115.009 20.1284 113.382 19.7677Z" fill="#424346"/>
<path d="M62.1889 18.8008C60.7183 18.8008 59.2808 19.2423 58.0582 20.0696C56.8356 20.8968 55.8828 22.0726 55.3205 23.4481C54.758 24.8236 54.6113 26.3371 54.8988 27.797C55.1863 29.257 55.895 30.5978 56.9354 31.6499C57.9759 32.702 59.3012 33.418 60.7436 33.7075C62.1861 33.9969 63.681 33.8468 65.0392 33.2759C66.3973 32.7051 67.5577 31.7393 68.3735 30.5007C69.1894 29.2621 69.6239 27.8064 69.6224 26.3177C69.6181 24.324 68.8332 22.4133 67.4399 21.0043C66.0465 19.5953 64.1583 18.803 62.1889 18.8008ZM62.1889 32.7362C60.9288 32.7346 59.6975 32.3549 58.6506 31.645C57.6036 30.9352 56.7881 29.9271 56.307 28.7481C55.8259 27.5691 55.7008 26.2723 55.9476 25.0213C56.1944 23.7704 56.802 22.6217 57.6936 21.7203C58.5852 20.8189 59.7207 20.2053 60.9567 19.957C62.1926 19.7087 63.4736 19.837 64.6375 20.3255C65.8015 20.814 66.7964 21.6409 67.4963 22.7017C68.1961 23.7624 68.5697 25.0093 68.5697 26.2849C68.5729 27.1353 68.4101 27.9779 68.091 28.7644C67.7717 29.551 67.3023 30.2659 66.7094 30.8684C66.1165 31.4708 65.4121 31.9488 64.6363 32.275C63.8606 32.6011 63.0288 32.7691 62.1889 32.7691V32.7362Z" fill="#424346"/>
<path d="M62.1889 34.0559C60.6794 34.0543 59.2041 33.5997 57.9496 32.7497C56.6952 31.8997 55.7177 30.6924 55.1407 29.2802C54.5638 27.868 54.4133 26.3145 54.7081 24.8157C55.0031 23.3171 55.7302 21.9404 56.7976 20.8598C57.865 19.7792 59.2248 19.0432 60.7053 18.7446C62.1858 18.4461 63.7204 18.5985 65.1154 19.1826C66.5103 19.7666 67.703 20.7561 68.5426 22.0261C69.3823 23.296 69.8313 24.7895 69.8329 26.3176C69.8308 28.3693 69.0247 30.3363 67.5917 31.787C66.1586 33.2378 64.2155 34.0537 62.1889 34.0559ZM62.1889 19.0138C60.7603 19.0138 59.3638 19.4426 58.176 20.2461C56.9882 21.0495 56.0624 22.1916 55.5158 23.5276C54.9691 24.8637 54.826 26.3339 55.1047 27.7523C55.3835 29.1708 56.0713 30.4736 57.0815 31.4962C58.0917 32.5188 59.3787 33.2152 60.7798 33.4973C62.1809 33.7795 63.6332 33.6347 64.953 33.0813C66.2729 32.5279 67.4009 31.5906 68.1946 30.3882C68.9883 29.1857 69.4119 27.772 69.4119 26.3258C69.4119 24.3858 68.6511 22.5251 67.2968 21.1525C65.9425 19.78 64.1053 19.0078 62.1889 19.0056V19.0138ZM62.1889 32.9492C60.8868 32.9492 59.614 32.5584 58.5315 31.8261C57.4488 31.0939 56.605 30.0529 56.1067 28.8352C55.6085 27.6175 55.4781 26.2774 55.7321 24.9847C55.9861 23.6919 56.6131 22.5044 57.5338 21.5724C58.4545 20.6403 59.6275 20.0056 60.9046 19.7485C62.1816 19.4913 63.5052 19.6233 64.7082 20.1277C65.9111 20.6321 66.9393 21.4863 67.6626 22.5823C68.386 23.6782 68.7722 24.9668 68.7722 26.2849C68.7807 27.1655 68.6167 28.0392 68.2897 28.8553C67.9628 29.6715 67.4792 30.414 66.867 31.0397C66.2549 31.6656 65.5263 32.1624 64.7232 32.5013C63.9203 32.8404 63.0589 33.0149 62.1889 33.0148V32.9492ZM62.1889 20.0467C60.9705 20.0483 59.7799 20.4155 58.7676 21.1019C57.7553 21.7884 56.9667 22.7632 56.5015 23.9032C56.0364 25.0433 55.9155 26.2974 56.1542 27.5069C56.3929 28.7164 56.9804 29.8272 57.8425 30.6988C58.7046 31.5704 59.8027 32.1637 60.9978 32.4037C62.1929 32.6438 63.4315 32.5197 64.557 32.0474C65.6825 31.575 66.6445 30.7754 67.3213 29.7498C67.998 28.7241 68.3591 27.5183 68.3591 26.2849C68.3485 24.6353 67.6937 23.057 66.5377 21.8945C65.3817 20.7319 63.8184 20.0794 62.1889 20.0794V20.0467Z" fill="#424346"/>
<path d="M62.1896 34.1463C60.6624 34.1447 59.17 33.6849 57.9008 32.825C56.6317 31.9651 55.6428 30.7436 55.0592 29.315C54.4755 27.8864 54.3232 26.3146 54.6215 24.7985C54.9198 23.2822 55.6554 21.8895 56.7352 20.7963C57.8151 19.7032 59.1908 18.9585 60.6886 18.6565C62.1863 18.3545 63.7389 18.5087 65.1502 19.0995C66.5614 19.6904 67.768 20.6915 68.6174 21.9763C69.4669 23.261 69.9211 24.7719 69.9227 26.3179C69.9205 28.3935 69.1051 30.3834 67.6553 31.851C66.2055 33.3187 64.2398 34.1442 62.1896 34.1463ZM62.1896 19.1042C60.7786 19.1042 59.3993 19.5278 58.2261 20.3214C57.053 21.1149 56.1387 22.2428 55.5987 23.5624C55.0587 24.882 54.9175 26.3341 55.1927 27.735C55.468 29.1359 56.1474 30.4227 57.1451 31.4327C58.1428 32.4427 59.414 33.1305 60.7978 33.4092C62.1816 33.6878 63.6161 33.5448 64.9196 32.9982C66.2232 32.4516 67.3373 31.526 68.1211 30.3383C68.905 29.1507 69.3235 27.7544 69.3235 26.3261C69.3256 25.3759 69.1427 24.4347 68.7853 23.5561C68.4278 22.6776 67.9027 21.879 67.2402 21.206C66.5777 20.533 65.7906 19.9988 64.924 19.6339C64.0573 19.269 63.1281 19.0807 62.1896 19.0797V19.1042ZM62.1896 33.0397C60.8699 33.0397 59.5798 32.6435 58.4826 31.9013C57.3853 31.1591 56.5301 30.1042 56.0251 28.87C55.5201 27.6357 55.388 26.2776 55.6454 24.9673C55.9029 23.6571 56.5384 22.4536 57.4715 21.5089C58.4046 20.5642 59.5936 19.9209 60.8878 19.6603C62.1821 19.3997 63.5238 19.5334 64.7429 20.0447C65.9621 20.5559 67.0043 21.4217 67.7374 22.5324C68.4706 23.6432 68.8619 24.9492 68.8619 26.2851C68.8661 27.1749 68.6967 28.0568 68.3633 28.88C68.0299 29.7034 67.5391 30.4518 66.9191 31.0826C66.2991 31.7132 65.5621 32.2137 64.7505 32.5552C63.9388 32.8967 63.0685 33.0725 62.1896 33.0725V33.0397ZM62.1896 20.1371C60.9865 20.1371 59.8104 20.4984 58.8102 21.1752C57.8099 21.852 57.0305 22.814 56.5705 23.9393C56.1104 25.0647 55.9904 26.303 56.2258 27.4973C56.4611 28.6917 57.041 29.7886 57.8923 30.6493C58.7437 31.5099 59.828 32.0956 61.0081 32.3322C62.1883 32.5688 63.4113 32.4457 64.5223 31.9785C65.6334 31.5113 66.5826 30.721 67.2499 29.7076C67.9171 28.6941 68.2723 27.503 68.2708 26.2851C68.26 24.6595 67.6146 23.1042 66.4754 21.9585C65.336 20.8128 63.7954 20.1699 62.1896 20.1699V20.1371Z" fill="#424346"/>
<path d="M62.1894 34.3592C60.62 34.3592 59.0857 33.8881 57.7807 33.0054C56.4757 32.1226 55.4585 30.868 54.858 29.4001C54.2573 27.9322 54.1002 26.317 54.4064 24.7586C54.7125 23.2003 55.4684 21.7689 56.5781 20.6454C57.688 19.5219 59.1019 18.7568 60.6413 18.4468C62.1806 18.1369 63.7762 18.296 65.2262 18.904C66.6763 19.512 67.9156 20.5416 68.7876 21.8628C69.6596 23.1838 70.125 24.737 70.125 26.3258C70.1229 28.4558 69.2861 30.4978 67.7983 32.0039C66.3106 33.51 64.2934 34.3571 62.1894 34.3592ZM62.1894 18.7106C60.7012 18.7106 59.2465 19.1574 58.0093 19.9945C56.772 20.8316 55.8078 22.0215 55.2387 23.4135C54.6696 24.8055 54.5211 26.3371 54.812 27.8146C55.1029 29.292 55.8202 30.6489 56.8731 31.7136C57.9259 32.7783 59.267 33.5029 60.7268 33.7958C62.1866 34.0888 63.6994 33.9368 65.0738 33.3592C66.4482 32.7815 67.6225 31.8042 68.4481 30.5508C69.2738 29.2974 69.7136 27.8242 69.712 26.3177C69.7077 24.3 68.9135 22.3665 67.5035 20.9405C66.0934 19.5146 64.1825 18.7127 62.1894 18.7106ZM62.1894 33.7527C60.7368 33.7527 59.3169 33.3166 58.1091 32.4996C56.9013 31.6827 55.9599 30.5215 55.404 29.1629C54.8482 27.8043 54.7028 26.3094 54.9861 24.8672C55.2695 23.4249 55.969 22.1002 56.9961 21.0604C58.0233 20.0206 59.3319 19.3125 60.7566 19.0256C62.1813 18.7387 63.658 18.8859 65 19.4486C66.342 20.0113 67.4891 20.9644 68.2961 22.187C69.1031 23.4097 69.5338 24.8472 69.5338 26.3177C69.5317 28.2889 68.7572 30.1787 67.3803 31.5726C66.0035 32.9665 64.1366 33.7505 62.1894 33.7527ZM62.1894 19.3089C60.8205 19.3106 59.4827 19.723 58.3452 20.4941C57.2078 21.2652 56.3217 22.3604 55.7989 23.6412C55.2761 24.9221 55.1401 26.331 55.4082 27.69C55.6763 29.0491 56.3362 30.2971 57.3048 31.2764C58.2734 32.2559 59.507 32.9225 60.8498 33.1923C62.1926 33.4621 63.5842 33.3228 64.8488 32.7921C66.1134 32.2614 67.1943 31.363 67.9546 30.2106C68.715 29.0583 69.1209 27.7035 69.1209 26.3177C69.1187 24.4581 68.3875 22.6754 67.0878 21.3613C65.7882 20.0471 64.0264 19.3089 62.1894 19.3089ZM62.1894 33.2444C60.8301 33.2428 59.5017 32.8333 58.3722 32.0675C57.2428 31.3018 56.3629 30.2143 55.8437 28.9425C55.3246 27.6707 55.1897 26.2716 55.4558 24.9222C55.722 23.5727 56.3774 22.3334 57.3392 21.3608C58.301 20.3883 59.5259 19.7263 60.8593 19.4584C62.1926 19.1906 63.5745 19.3289 64.8303 19.8559C66.086 20.3829 67.1592 21.2749 67.9143 22.4192C68.6693 23.5636 69.0723 24.9087 69.0723 26.2849C69.0766 27.2026 68.9016 28.1122 68.5577 28.9614C68.2137 29.8105 67.7074 30.5825 67.0678 31.233C66.4283 31.8835 65.668 32.3996 64.8309 32.7519C63.9937 33.1041 63.096 33.2854 62.1894 33.2854V33.2444ZM62.1894 19.7352C60.9082 19.7352 59.6558 20.1198 58.5904 20.8404C57.5252 21.561 56.6948 22.5852 56.2045 23.7835C55.7142 24.9818 55.5859 26.3004 55.8359 27.5724C56.0859 28.8446 56.7028 30.0131 57.6088 30.9302C58.5148 31.8473 59.669 32.4719 60.9257 32.7249C62.1822 32.978 63.4848 32.8481 64.6685 32.3518C65.8521 31.8554 66.8639 31.0149 67.5757 29.9364C68.2875 28.858 68.6674 27.5901 68.6674 26.2931C68.6567 24.5609 67.9695 22.9034 66.7558 21.6824C65.5421 20.4614 63.9005 19.7761 62.1894 19.7762V19.7352ZM62.1894 32.6378C60.947 32.6362 59.7329 32.2617 58.7006 31.5618C57.6683 30.8618 56.8643 29.8678 56.3899 28.7053C55.9155 27.5428 55.7922 26.264 56.0356 25.0306C56.279 23.7972 56.8781 22.6646 57.7571 21.7758C58.6363 20.8869 59.756 20.2819 60.9746 20.0372C62.1933 19.7924 63.4563 19.9188 64.604 20.4006C65.7518 20.8822 66.7326 21.6975 67.4228 22.7435C68.1128 23.7894 68.4812 25.0189 68.4812 26.2767C68.4865 27.1165 68.3277 27.9492 68.0139 28.7267C67.7001 29.5042 67.2375 30.2112 66.6527 30.807C66.068 31.4028 65.3726 31.8756 64.6066 32.1983C63.8406 32.5209 63.0191 32.687 62.1894 32.687V32.6378ZM62.1894 20.3418C61.0283 20.3418 59.8933 20.6904 58.9278 21.3434C57.9624 21.9964 57.21 22.9246 56.7656 24.0106C56.3213 25.0965 56.205 26.2915 56.4316 27.4443C56.6581 28.5971 57.2172 29.6561 58.0383 30.4873C58.8593 31.3184 59.9053 31.8845 61.0441 32.1138C62.1829 32.3431 63.3633 32.2254 64.4361 31.7756C65.5088 31.3257 66.4257 30.564 67.0707 29.5867C67.7158 28.6094 68.0601 27.4603 68.0601 26.2849C68.0516 24.7144 67.4292 23.2112 66.3292 22.1036C65.2292 20.9962 63.7408 20.3746 62.1894 20.3746V20.3418Z" fill="#424346"/>
<path d="M79.5581 33.5558V20.1204H85.4693V19.1367H72.5942V20.1204H78.473V33.564L79.5581 33.5558Z" fill="#424346"/>
<path d="M79.7684 33.7692H78.2704V20.3256H72.3916V18.9238H85.6795V20.3256H79.7684V33.7692ZM78.6671 33.3511H79.3311V19.8993H85.2423V19.3419H72.8045V19.8993H78.6671V33.3511Z" fill="#424346"/>
<path d="M79.8578 33.8347H78.1816V20.4156H72.3027V18.8335H85.7689V20.4156H79.8578V33.8347ZM78.7727 33.2362H79.2586V19.8172H85.1454V19.4401H72.8939V19.8172H78.7727V33.2362Z" fill="#424346"/>
<path d="M80.0607 34.0727H77.9715V20.6291H72.0928V18.6289H85.9556V20.6291H80.0445L80.0607 34.0727ZM78.3845 33.6546H79.6477V20.211H85.5589V19.0797H72.5138V20.2438H78.3926L78.3845 33.6546ZM79.4777 33.4661H78.5627V20.0307H72.6839V19.2109H85.3808V20.0307H79.4777V33.4661ZM78.9918 33.048H79.0647V19.6454H78.9918V33.048Z" fill="#424346"/>
<path d="M139.756 20.1204H145.634V33.564H146.687V20.1204H152.598V19.1367H139.723L139.756 20.1204Z" fill="#424346"/>
<path d="M146.921 33.7692H145.423V20.3256H139.544V18.9238H152.832V20.3256H146.921V33.7692ZM145.876 33.3511H146.541V19.8993H152.452V19.3419H139.966V19.8993H145.876V33.3511Z" fill="#424346"/>
<path d="M147.011 33.8347H145.334V20.4156H139.456V18.8335H152.921V20.4156H147.011V33.8347ZM145.926 33.2362H146.411V19.8172H152.355V19.4401H140.055V19.8172H145.933L145.926 33.2362Z" fill="#424346"/>
<path d="M147.221 34.0727H145.132V20.6291H139.253V18.6289H153.164V20.6291H147.254L147.221 34.0727ZM145.545 33.6546H146.808V20.211H152.719V19.0797H139.667V20.2438H145.545V33.6546ZM146.63 33.4743H145.723V20.0307H139.845V19.2109H152.541V20.0307H146.63V33.4743ZM146.144 33.0562H146.217V19.6454H146.144V33.0562Z" fill="#424346"/>
<path d="M90.8864 28.4896L93.6808 25.9074L100.004 33.5719H101.341L94.4495 25.1615L101.025 19.0791H99.5839L90.8949 27.1288V19.0791H89.8101V33.5719H90.8949L90.8864 28.4896Z" fill="#424346"/>
<path d="M101.811 33.7854H99.8994L99.8341 33.7117L93.6565 26.211L91.0893 28.5801V33.7854H89.5908V18.9072H91.0893V26.6947L99.4299 18.9646L99.4867 18.9072H101.551L101.155 19.2761L94.7489 25.1782L101.519 33.4412L101.811 33.7854ZM100.093 33.3674H100.904L94.2879 25.293L94.1658 25.1372L94.3116 25.0061L100.466 19.3335H99.6562L91.024 27.3341L90.6765 27.6538V19.3335H90.0044V33.3674H90.668V28.3997L90.7409 28.3341L93.5344 25.7602L93.6963 25.6044L93.8344 25.7766L100.093 33.3674Z" fill="#424346"/>
<path d="M101.996 33.8345H99.8582L99.7692 33.7279L93.6475 26.3011L91.2176 28.58V33.8345H89.542V18.8169H91.2176V26.4569L99.4124 18.8662L99.4938 18.7842H101.818L101.251 19.3088L94.862 25.1863L101.574 33.3836L101.996 33.8345ZM100.134 33.2361H100.733L94.2543 25.3092L94.0763 25.088L94.2873 24.8993L100.271 19.3826H99.7201L91.1125 27.3586L90.6184 27.8177V19.4236H90.1251V33.2771H90.6184V28.3587L90.7158 28.2685L93.5017 25.6863L93.728 25.465L93.9305 25.7109L100.134 33.2361Z" fill="#424346"/>
<path d="M102.442 34.0889H99.762L99.6077 33.9003L93.6241 26.6457L91.3807 28.7114V34.0807H89.2915V18.6123H91.3807V25.9899L99.373 18.6123H102.312L101.341 19.4976L95.1463 25.2358L100.004 31.1461L101.754 33.2774L102.442 34.0889ZM99.9561 33.6709H101.576L101.454 33.5233L99.7213 31.3755L94.6276 25.1538L94.7734 25.0226L101.114 19.178L101.284 19.0222H99.5509L90.9756 26.9654V19.0304H89.7127V33.6626H90.9756V28.5311L91.0408 28.4655L93.4699 26.1866L93.6317 26.0391L99.9561 33.6709ZM101.179 33.4905H100.045L99.9806 33.4167L93.7453 25.8588L93.6885 25.785L93.6156 25.8506L90.8137 28.4246V33.4577H89.9068V19.2107H90.8137V27.408L90.9595 27.2687L99.567 19.2927L99.6238 19.2353H100.806L94.3284 25.1784L94.3852 25.244L99.4941 31.474L101.179 33.4905ZM100.239 33.0725H100.296L99.195 31.728L94.053 25.4817L93.786 25.1456L93.7292 25.203L94.0369 25.5801L100.239 33.0725ZM90.3119 33.0725H90.3848V19.6288H90.3119V33.0725Z" fill="#424346"/>
<path d="M131.471 29.4658C131.471 26.9164 129.851 25.4573 126.969 25.4573H122.288V19.1289H121.203V26.4574H127.106C129.535 26.4574 130.394 28.0312 130.394 29.5067C130.418 29.9257 130.352 30.3448 130.201 30.7357C130.051 31.1264 129.817 31.4795 129.519 31.7707C129.221 32.0619 128.864 32.2844 128.472 32.4228C128.081 32.5611 127.665 32.6122 127.252 32.5725H121.228V33.5562H127.252C128.872 33.548 131.471 33.0152 131.471 29.4658Z" fill="#424346"/>
<path d="M127.252 33.761H120.968V32.3593H127.252C129.924 32.3593 130.208 30.3427 130.208 29.482C130.208 28.8181 129.989 26.6457 127.131 26.6457H121.017V18.9238H122.515V25.2522H126.985C129.981 25.2522 131.698 26.7933 131.698 29.4656C131.673 33.2036 128.921 33.761 127.252 33.761ZM121.389 33.3429H127.252C129.074 33.3429 131.236 32.6708 131.236 29.4656C131.236 27.0556 129.673 25.6703 126.937 25.6703H122.078V19.3419H121.406V26.2276H127.074C129.649 26.2276 130.564 27.9081 130.564 29.5066C130.591 29.9564 130.521 30.4068 130.359 30.8265C130.197 31.2462 129.946 31.6251 129.625 31.9371C129.304 32.249 128.92 32.4864 128.499 32.633C128.077 32.7795 127.63 32.8316 127.187 32.7856H121.373L121.389 33.3429Z" fill="#424346"/>
<path d="M127.253 33.8347H120.88V32.2689H127.253C129.843 32.2689 130.119 30.318 130.119 29.4818C130.119 28.8343 129.9 26.7357 127.13 26.7357H120.928V18.8335H122.605V25.1537H126.985C129.989 25.1537 131.787 26.7931 131.787 29.4573C131.762 33.4248 128.62 33.8347 127.253 33.8347ZM121.479 33.2362H127.253C129.034 33.2362 131.147 32.5804 131.147 29.4491C131.147 27.0555 129.649 25.7439 126.936 25.7439H121.989V19.4319H121.495V26.1373H127.098C129.738 26.1373 130.677 27.9408 130.677 29.49C130.706 29.9492 130.637 30.4092 130.473 30.8386C130.31 31.268 130.057 31.6567 129.732 31.9781C129.407 32.2994 129.017 32.546 128.589 32.701C128.161 32.8558 127.705 32.9154 127.253 32.8756H121.527L121.479 33.2362Z" fill="#424346"/>
<path d="M127.252 34.0557H120.693V32.0556H127.252C129.568 32.0556 129.916 30.4161 129.916 29.4815C129.916 28.7192 129.649 26.9404 127.139 26.9404H120.693V18.6201H122.783V24.9403H126.961C130.094 24.9403 131.973 26.6289 131.973 29.457C131.973 33.613 128.686 34.0557 127.252 34.0557ZM121.09 33.6376H127.252C128.54 33.6376 131.536 33.2278 131.536 29.4652C131.536 26.8994 129.819 25.3665 126.945 25.3665H122.394V19.0791H121.131V26.5633H127.123C129.479 26.5633 130.321 28.088 130.321 29.5226C130.348 29.9336 130.286 30.3456 130.139 30.7298C129.993 31.1139 129.765 31.4611 129.471 31.7468C129.179 32.0326 128.827 32.2501 128.442 32.3842C128.058 32.5181 127.649 32.5655 127.244 32.5228H121.131L121.09 33.6376ZM127.252 33.4572H121.268V32.6375H127.252C127.679 32.6774 128.109 32.6233 128.514 32.4789C128.918 32.3345 129.287 32.1034 129.594 31.8013C129.902 31.4991 130.142 31.1332 130.296 30.7285C130.451 30.3239 130.517 29.8901 130.491 29.457C130.491 28.006 129.609 26.3174 127.114 26.3174H121.3V19.2185H122.208V25.5386H126.977C129.827 25.5386 131.39 26.9322 131.39 29.457C131.39 31.9818 129.925 33.4572 127.252 33.4572ZM128.872 26.2519C129.487 26.5246 130.007 26.9786 130.364 27.5547C130.721 28.1307 130.898 28.8022 130.871 29.4815C130.921 30.2396 130.713 30.992 130.283 31.6148C129.854 32.2376 129.227 32.6937 128.508 32.908C130.126 32.5392 130.937 31.3834 130.937 29.457C131.001 28.7651 130.832 28.0716 130.457 27.4895C130.082 26.9074 129.523 26.4711 128.872 26.2519ZM121.689 19.6365V25.9157H121.762V19.6447L121.689 19.6365Z" fill="#424346"/>
<path d="M134.759 19.1123H133.673V33.556H134.759V19.1123Z" fill="#424346"/>
<path d="M134.962 33.7694H133.463V18.8994H134.962V33.7694ZM133.876 33.3513H134.541V19.3257H133.876V33.3513Z" fill="#424346"/>
<path d="M135.05 33.8347H133.374V18.8091H135.05V33.8347ZM133.965 33.2364H134.45V19.4157H133.965V33.2364Z" fill="#424346"/>
<path d="M135.261 34.0724H133.172V18.604H135.261V34.0724ZM133.585 33.6543H134.848V19.022H133.585V33.6543ZM134.67 33.474H133.731V19.2024H134.638L134.67 33.474ZM134.185 33.0559H134.258V19.6204H134.185V33.0559Z" fill="#424346"/>
<path d="M163.278 25.4573H158.598V19.1289H157.513V26.4574H163.416C165.845 26.4574 166.696 28.0313 166.696 29.5067C166.724 29.93 166.66 30.3542 166.509 30.7499C166.358 31.1457 166.124 31.5033 165.823 31.7977C165.521 32.0921 165.16 32.3161 164.763 32.4543C164.367 32.5924 163.946 32.6411 163.529 32.5971H157.505V33.5809H163.586C165.149 33.5809 167.78 33.048 167.78 29.4822C167.78 26.9164 166.12 25.4573 163.278 25.4573Z" fill="#424346"/>
<path d="M163.586 33.761H157.302V32.3593H163.529C166.202 32.3593 166.485 30.3427 166.485 29.482C166.485 28.1131 165.675 26.6457 163.408 26.6457H157.294V18.9238H158.833V25.2522H163.302C166.298 25.2522 168.015 26.7933 168.015 29.4656C167.991 33.2036 165.238 33.761 163.586 33.761ZM157.715 33.3429H163.586C165.407 33.3429 167.569 32.6708 167.569 29.4656C167.569 27.0556 165.999 25.6703 163.27 25.6703H158.412V19.3419H157.74V26.2276H163.408C165.983 26.2276 166.897 27.9081 166.897 29.5066C166.924 29.9556 166.855 30.4052 166.693 30.8243C166.531 31.2433 166.282 31.6218 165.962 31.9336C165.641 32.2455 165.257 32.4831 164.838 32.6302C164.417 32.7773 163.972 32.8303 163.529 32.7856H157.715V33.3429Z" fill="#424346"/>
<path d="M163.594 33.8347H157.213V32.2689H163.53C166.121 32.2689 166.396 30.318 166.396 29.4818C166.396 28.8343 166.177 26.7357 163.408 26.7357H157.213V18.8335H158.889V25.1537H163.27C166.282 25.1537 168.072 26.7931 168.072 29.4573C168.08 33.4248 164.938 33.8347 163.594 33.8347ZM157.812 33.2362H163.594C165.376 33.2362 167.488 32.5804 167.488 29.4491C167.488 27.0555 165.991 25.7439 163.278 25.7439H158.306V19.4319H157.812V26.1373H163.424C166.064 26.1373 167.003 27.9408 167.003 29.49C167.032 29.9523 166.962 30.4153 166.797 30.8472C166.632 31.2791 166.376 31.6696 166.047 31.9916C165.718 32.3135 165.324 32.5594 164.892 32.712C164.46 32.8646 164.001 32.9204 163.546 32.8756H157.821L157.812 33.2362Z" fill="#424346"/>
<path d="M163.586 34.0557H157.002V32.0556H163.529C165.845 32.0556 166.193 30.4161 166.193 29.4815C166.193 28.7192 165.926 26.9404 163.415 26.9404H157.01V18.6201H159.108V24.9403H163.278C166.42 24.9403 168.29 26.6289 168.29 29.457C168.29 33.613 165.003 34.0557 163.586 34.0557ZM157.423 33.6376H163.586C164.873 33.6376 167.869 33.2278 167.869 29.4652C167.869 26.8994 166.153 25.3665 163.269 25.3665H158.678V19.0791H157.416V26.5633H163.408C165.764 26.5633 166.598 28.088 166.598 29.5226C166.625 29.9336 166.563 30.3456 166.416 30.7298C166.269 31.1139 166.042 31.4611 165.749 31.7468C165.455 32.0326 165.104 32.2501 164.72 32.3842C164.335 32.5181 163.925 32.5655 163.521 32.5228H157.407L157.423 33.6376ZM163.586 33.4572H157.594V32.6375H163.529C163.956 32.6774 164.386 32.6233 164.79 32.4789C165.194 32.3345 165.563 32.1034 165.871 31.8013C166.178 31.4991 166.418 31.1332 166.573 30.7285C166.727 30.3239 166.794 29.8901 166.768 29.457C166.768 28.006 165.885 26.3174 163.399 26.3174H157.585V19.2185H158.492V25.5386H163.262C166.112 25.5386 167.683 26.9322 167.683 29.457C167.683 31.9818 166.233 33.4572 163.586 33.4572ZM165.205 26.2519C165.821 26.5234 166.344 26.9767 166.701 27.553C167.06 28.1291 167.239 28.8012 167.213 29.4815C167.263 30.2432 167.055 30.999 166.621 31.6238C166.188 32.2487 165.557 32.7046 164.832 32.9162C166.452 32.5555 167.262 31.3997 167.262 29.4652C167.328 28.7719 167.16 28.0765 166.785 27.4928C166.41 26.909 165.85 26.4715 165.197 26.2519H165.205ZM158.022 19.6447V25.9239H158.095V19.6447H158.022Z" fill="#424346"/>
<path d="M171.075 19.1123H169.99V33.556H171.075V19.1123Z" fill="#424346"/>
<path d="M171.279 33.7694H169.78V18.8994H171.279V33.7694ZM170.169 33.3513H170.841V19.3257H170.169V33.3513Z" fill="#424346"/>
<path d="M171.368 33.8347H169.691V18.8091H171.368V33.8347ZM170.283 33.2364H170.777V19.4157H170.283V33.2364Z" fill="#424346"/>
<path d="M171.577 34.0724H169.488V18.604H171.577V34.0724ZM169.902 33.6543H171.165V19.022H169.902V33.6543ZM170.987 33.474H170.08V19.2024H170.978L170.987 33.474ZM170.493 33.0149H170.565V19.6204H170.493V33.0149Z" fill="#424346"/>
<path d="M58.6746 45.1472V38.4747H61.6059V37.9746H55.1846V38.4747H58.0997V45.1472H58.6746Z" fill="#424346"/>
<path d="M58.8848 45.352H57.9131V38.6876H54.998V37.7695H61.808V38.6876H58.8848V45.352ZM58.3342 44.934H58.4718V38.2696H61.4031V38.1958H55.4191V38.2696H58.3342V44.934Z" fill="#424346"/>
<path d="M58.9741 45.4421H57.8323V38.7776H54.9092V37.6792H61.8973V38.7776H58.9741V45.4421Z" fill="#424346"/>
<path d="M59.1761 45.655H57.6133V38.9906H54.6982V37.4658H62.0994V38.9824H59.1761V45.655ZM58.0344 45.2369H58.7632V38.5643H61.6621V37.8839H55.1193V38.5643H58.0344V45.2369Z" fill="#424346"/>
<path d="M64.4969 41.6716H69.0315V41.2126H64.4969V38.4747H69.0315V37.9746H63.9463V45.1472H69.0315V44.6473H64.4969V41.6716Z" fill="#424346"/>
<path d="M69.234 45.352H63.7358V37.7695H69.234V38.6876H64.6994V40.9665H69.234V41.8846H64.6994V44.434H69.234V45.352ZM64.1488 44.934H68.8129V44.8603H64.2784V41.4665H68.8129V41.3927H64.2784V38.2778H68.8129V38.204H64.1569L64.1488 44.934Z" fill="#424346"/>
<path d="M69.3228 45.4421H63.6465V37.6792H69.3228V38.7776H64.7963V40.8761H69.3228V41.9746H64.7963V44.3437H69.3228V45.4421Z" fill="#424346"/>
<path d="M69.5331 45.6553H63.4438V37.458H69.5331V38.9745H64.9986V40.614H69.5331V42.1305H64.9986V44.0814H69.5331V45.6553ZM63.8649 45.2372H69.1283V44.5569H64.5937V41.7616H69.1283V41.0812H64.5937V38.5647H69.1283V37.8843H63.8649V45.2372Z" fill="#424346"/>
<path d="M85.7039 41.2122H80.6756V38.0153H80.125V45.1469H80.6756V41.6712H85.7124V45.1469H86.2548V37.9824H85.7124L85.7039 41.2122Z" fill="#424346"/>
<path d="M86.4571 45.352H85.4932V41.8846H80.8777V45.352H79.9141V37.7695H80.8777V40.9665H85.4932V37.7695H86.4571V45.352ZM85.9147 44.934H86.0435V38.1876H85.9147V41.3845H80.4647V38.1876H80.3271V44.934H80.4647V41.4665H85.9147V44.934Z" fill="#424346"/>
<path d="M86.5469 45.4421H85.4129V41.9746H80.9674V45.4421H79.8257V37.6792H80.9674V40.8761H85.4129V37.6792H86.5469V45.4421Z" fill="#424346"/>
<path d="M86.7651 45.6553H85.2106V42.1879H81.1618V45.6553H79.6152V37.458H81.178V40.6549H85.2268V37.458H86.7651V45.6553ZM85.6236 45.2372H86.3439V37.8597H85.6236V41.0566H80.7651V37.8597H80.0363V45.2372H80.7651V41.7616H85.6236V45.2372Z" fill="#424346"/>
<path d="M92.1248 37.8105C91.3934 37.8105 90.6772 38.0302 90.0687 38.4418C89.4601 38.8535 88.9864 39.4386 88.7058 40.1231C88.4261 40.8076 88.3524 41.5608 88.4956 42.2876C88.638 43.0142 88.9906 43.6817 89.5084 44.2057C90.0254 44.7295 90.6848 45.0863 91.4027 45.2309C92.1205 45.3754 92.8647 45.3013 93.541 45.0177C94.2174 44.7342 94.7954 44.2541 95.2022 43.638C95.6082 43.0219 95.8251 42.2976 95.8251 41.5567C95.8251 40.5631 95.4353 39.6103 94.742 38.9078C94.0478 38.2052 93.1062 37.8105 92.1248 37.8105ZM92.1248 44.7536C91.501 44.752 90.8908 44.5631 90.3729 44.2109C89.8542 43.8586 89.4508 43.3588 89.2135 42.7745C88.9753 42.1901 88.9143 41.5476 89.0364 40.9279C89.1593 40.3084 89.461 39.7395 89.9025 39.2932C90.345 38.8469 90.9077 38.5433 91.5196 38.4205C92.1324 38.2979 92.7672 38.3617 93.3435 38.6039C93.9199 38.8461 94.4131 39.2559 94.7598 39.7814C95.1064 40.307 95.2912 40.9247 95.2912 41.5567C95.2912 41.9772 95.209 42.3936 95.0496 42.782C94.8903 43.1704 94.6572 43.5232 94.3631 43.8202C94.069 44.1172 93.7198 44.3525 93.3359 44.5127C92.952 44.6728 92.5401 44.7547 92.1248 44.7536Z" fill="#424346"/>
<path d="M92.1256 45.516C91.3535 45.5144 90.6 45.2813 89.9593 44.8461C89.3185 44.411 88.8193 43.7934 88.5252 43.0712C88.2311 42.3491 88.1549 41.555 88.3066 40.789C88.4583 40.0231 88.8303 39.3199 89.3762 38.7681C89.9228 38.2164 90.6178 37.8409 91.3746 37.6891C92.1315 37.5373 92.9163 37.616 93.6291 37.9153C94.3419 38.2146 94.9504 38.7211 95.3793 39.3707C95.8081 40.0202 96.0361 40.7838 96.0361 41.5648C96.0344 42.6135 95.6216 43.6185 94.8877 44.3592C94.1546 45.1 93.1612 45.516 92.1256 45.516ZM92.1256 38.0236C91.4348 38.0236 90.7602 38.2309 90.1864 38.6191C89.6126 39.0073 89.1651 39.5591 88.9007 40.2046C88.6371 40.8502 88.5676 41.5606 88.7024 42.2459C88.8371 42.9313 89.1693 43.5608 89.6575 44.0549C90.1457 44.549 90.7678 44.8855 91.4441 45.0218C92.1213 45.1582 92.8231 45.0882 93.4613 44.8208C94.0986 44.5534 94.6436 44.1005 95.0275 43.5195C95.4106 42.9386 95.6157 42.2555 95.6157 41.5566C95.6157 40.6197 95.2479 39.721 94.5927 39.0584C93.9384 38.3959 93.0511 38.0236 92.1256 38.0236ZM92.1256 44.9668C91.4594 44.9668 90.8076 44.7667 90.2542 44.3921C89.6999 44.0174 89.2685 43.4848 89.0134 42.8616C88.7583 42.2386 88.6913 41.5529 88.8219 40.8914C88.9515 40.23 89.2719 39.6223 89.7431 39.1454C90.2144 38.6685 90.8144 38.3437 91.4679 38.2121C92.1213 38.0805 92.7985 38.1481 93.4147 38.4062C94.03 38.6642 94.5563 39.1013 94.9258 39.6621C95.2962 40.2229 95.4937 40.8822 95.4937 41.5566C95.4937 42.4611 95.1385 43.3284 94.5071 43.968C93.8757 44.6075 93.0189 44.9668 92.1256 44.9668ZM92.1256 38.5646C91.5408 38.5646 90.9695 38.7401 90.483 39.0689C89.9974 39.3977 89.6185 39.865 89.3948 40.4116C89.171 40.9584 89.1126 41.56 89.2261 42.1404C89.3406 42.7208 89.6219 43.2539 90.0355 43.6724C90.4491 44.0908 90.9755 44.3758 91.5484 44.4912C92.1222 44.6067 92.7163 44.5474 93.2562 44.321C93.7961 44.0945 94.258 43.711 94.5826 43.2189C94.9072 42.7269 95.0809 42.1485 95.0809 41.5566C95.0809 41.1637 95.0046 40.7747 94.8563 40.4116C94.7072 40.0487 94.4893 39.7188 94.2156 39.441C93.941 39.1631 93.6147 38.9428 93.2562 38.7924C92.8977 38.642 92.5137 38.5646 92.1256 38.5646Z" fill="#424346"/>
<path d="M92.1257 45.606C91.3366 45.6044 90.5654 45.366 89.9102 44.9209C89.2551 44.4759 88.744 43.8441 88.4431 43.1056C88.1423 42.367 88.0643 41.5547 88.2194 40.7713C88.3745 39.9879 88.755 39.2686 89.3136 38.7042C89.8729 38.1399 90.584 37.7557 91.3578 37.6005C92.1325 37.4452 92.9342 37.5258 93.6631 37.8318C94.392 38.1379 95.0158 38.656 95.454 39.3204C95.8921 39.9848 96.1261 40.7658 96.1261 41.5647C96.1235 42.6373 95.7014 43.6652 94.9514 44.4228C94.2013 45.1805 93.1851 45.606 92.1257 45.606ZM92.1257 38.6628C91.5587 38.6628 91.0044 38.833 90.5332 39.1519C90.0619 39.4708 89.6941 39.924 89.4771 40.4542C89.2602 40.9845 89.2034 41.568 89.3144 42.1309C89.4246 42.6937 89.6983 43.2109 90.0992 43.6166C90.5001 44.0225 91.0103 44.2989 91.5663 44.4108C92.1223 44.5228 92.6986 44.4654 93.2224 44.2457C93.7462 44.0261 94.1945 43.6541 94.509 43.1769C94.8242 42.6997 94.9921 42.1386 94.9921 41.5647C94.9938 41.183 94.92 40.8048 94.7768 40.4517C94.6327 40.0987 94.4217 39.7779 94.1555 39.5075C93.8894 39.2372 93.5733 39.0227 93.2249 38.8763C92.8766 38.73 92.5028 38.6546 92.1257 38.6546V38.6628Z" fill="#424346"/>
<path d="M92.1258 45.8111C91.2944 45.8111 90.4816 45.5616 89.7909 45.0941C89.0993 44.6266 88.5611 43.9622 88.2433 43.1848C87.9246 42.4074 87.8416 41.552 88.0034 40.7267C88.1662 39.9014 88.5662 39.1433 89.1535 38.5484C89.7417 37.9533 90.4901 37.5482 91.3054 37.384C92.1208 37.2198 92.9658 37.3041 93.7336 37.6261C94.5015 37.9481 95.1583 38.4934 95.6202 39.1931C96.0822 39.8927 96.3279 40.7152 96.3279 41.5567C96.3279 42.6851 95.8855 43.7672 95.0973 44.565C94.3091 45.3629 93.2404 45.8111 92.1258 45.8111ZM92.1258 37.7203C91.3758 37.7203 90.6435 37.9453 90.0206 38.3669C89.3968 38.7884 88.9111 39.3876 88.6247 40.0886C88.3374 40.7896 88.2628 41.5609 88.4086 42.3051C88.5552 43.0493 88.9162 43.7329 89.4459 44.2694C89.9756 44.8059 90.6511 45.1713 91.3859 45.3193C92.1216 45.4674 92.8835 45.3914 93.576 45.101C94.2684 44.8106 94.86 44.3189 95.277 43.6881C95.6931 43.0571 95.9152 42.3154 95.9152 41.5567C95.9152 41.0529 95.8169 40.554 95.627 40.0886C95.4363 39.6231 95.1575 39.2002 94.8049 38.844C94.4532 38.4878 94.0353 38.2052 93.576 38.0123C93.1158 37.8196 92.6234 37.7203 92.1258 37.7203ZM92.1258 44.6635C91.519 44.6618 90.9266 44.4783 90.4231 44.1359C89.9189 43.7935 89.5273 43.3078 89.2959 42.7399C89.0654 42.1721 89.0052 41.5477 89.1247 40.9456C89.2442 40.3435 89.5366 39.7906 89.9663 39.3569C90.396 38.9233 90.9427 38.6282 91.5377 38.509C92.1335 38.3898 92.7496 38.4518 93.3099 38.6872C93.8701 38.9226 94.3489 39.3208 94.6863 39.8315C95.0227 40.3422 95.2024 40.9426 95.2024 41.5567C95.2007 42.3814 94.8753 43.1716 94.2989 43.754C93.7218 44.3364 92.9403 44.6635 92.1258 44.6635ZM92.1258 38.8679C91.6004 38.8679 91.0868 39.0256 90.6503 39.3211C90.213 39.6165 89.8731 40.0365 89.6722 40.5278C89.4705 41.0191 89.418 41.5596 89.5205 42.0812C89.6231 42.6027 89.8765 43.0819 90.2477 43.4579C90.6189 43.834 91.0919 44.09 91.6072 44.1938C92.1225 44.2975 92.6564 44.2443 93.142 44.0407C93.6277 43.8372 94.0421 43.4926 94.3337 43.0505C94.6261 42.6083 94.782 42.0885 94.782 41.5567C94.782 41.2036 94.7125 40.854 94.5795 40.5278C94.4456 40.2015 94.2506 39.9051 94.004 39.6555C93.7574 39.4058 93.4641 39.2077 93.142 39.0726C92.82 38.9375 92.4742 38.8679 92.1258 38.8679Z" fill="#424346"/>
<path d="M109.559 37.8105C108.827 37.8105 108.112 38.0302 107.503 38.4418C106.895 38.8535 106.421 39.4386 106.14 40.1231C105.861 40.8076 105.787 41.5608 105.93 42.2876C106.073 43.0142 106.425 43.6817 106.943 44.2057C107.46 44.7295 108.119 45.0863 108.837 45.2309C109.555 45.3754 110.299 45.3013 110.976 45.0177C111.652 44.7342 112.23 44.2541 112.636 43.638C113.043 43.0219 113.26 42.2976 113.26 41.5567C113.26 40.5631 112.87 39.6103 112.176 38.9078C111.482 38.2052 110.541 37.8105 109.559 37.8105ZM109.559 44.7536C108.935 44.752 108.325 44.5631 107.807 44.2109C107.289 43.8586 106.885 43.3588 106.647 42.7745C106.41 42.1901 106.348 41.5476 106.471 40.9279C106.594 40.3084 106.896 39.7395 107.337 39.2932C107.78 38.8469 108.342 38.5433 108.954 38.4205C109.567 38.2979 110.201 38.3617 110.778 38.6039C111.354 38.8461 111.847 39.2559 112.193 39.7814C112.54 40.307 112.726 40.9247 112.726 41.5567C112.726 41.9772 112.644 42.3936 112.484 42.782C112.325 43.1704 112.092 43.5232 111.798 43.8202C111.504 44.1172 111.154 44.3525 110.77 44.5127C110.387 44.6728 109.975 44.7547 109.559 44.7536Z" fill="#424346"/>
<path d="M109.559 45.516C108.788 45.5111 108.036 45.2754 107.398 44.8387C106.76 44.4019 106.263 43.7837 105.971 43.0617C105.679 42.3399 105.605 41.5466 105.757 40.782C105.91 40.0175 106.283 39.3157 106.83 38.7652C107.375 38.2148 108.069 37.8403 108.825 37.6889C109.582 37.5375 110.365 37.616 111.077 37.9145C111.788 38.213 112.398 38.7182 112.826 39.3663C113.255 40.0144 113.484 40.7765 113.486 41.5567C113.486 42.0779 113.384 42.5941 113.187 43.0756C112.989 43.557 112.7 43.9942 112.335 44.3621C111.97 44.7299 111.537 45.0212 111.06 45.2193C110.584 45.4173 110.074 45.5181 109.559 45.516ZM109.559 38.0235C108.869 38.0235 108.194 38.2308 107.62 38.619C107.047 39.0072 106.599 39.559 106.335 40.2045C106.07 40.8502 106.002 41.5605 106.136 42.2458C106.271 42.9312 106.603 43.5607 107.091 44.0549C107.58 44.5489 108.201 44.8855 108.878 45.0218C109.555 45.1581 110.257 45.0882 110.894 44.8207C111.533 44.5533 112.077 44.1004 112.461 43.5195C112.845 42.9385 113.049 42.2554 113.049 41.5567C113.049 41.0926 112.959 40.6332 112.783 40.2045C112.608 39.7759 112.351 39.3864 112.027 39.0584C111.703 38.7303 111.318 38.4701 110.894 38.2925C110.471 38.115 110.017 38.0235 109.559 38.0235ZM109.559 44.9667C108.892 44.9667 108.242 44.7667 107.687 44.392C107.134 44.0173 106.702 43.4847 106.446 42.8616C106.192 42.2385 106.125 41.5528 106.255 40.8914C106.385 40.2299 106.706 39.6222 107.177 39.1453C107.648 38.6684 108.248 38.3436 108.902 38.2121C109.555 38.0804 110.232 38.148 110.848 38.4061C111.464 38.6642 111.989 39.1012 112.36 39.6621C112.73 40.2229 112.928 40.8822 112.928 41.5567C112.928 42.461 112.572 43.3284 111.941 43.9679C111.31 44.6074 110.453 44.9667 109.559 44.9667ZM109.559 38.5646C108.975 38.5646 108.403 38.7401 107.917 39.0688C107.431 39.3976 107.052 39.8649 106.829 40.4116C106.605 40.9583 106.546 41.5599 106.66 42.1403C106.774 42.7207 107.056 43.2538 107.469 43.6723C107.882 44.0907 108.409 44.3757 108.982 44.4912C109.556 44.6066 110.15 44.5473 110.69 44.3209C111.23 44.0945 111.692 43.7109 112.016 43.2189C112.341 42.7268 112.515 42.1484 112.515 41.5567C112.515 40.7631 112.203 40.0021 111.649 39.4409C111.094 38.8798 110.343 38.5646 109.559 38.5646Z" fill="#424346"/>
<path d="M109.559 45.606C108.77 45.606 107.998 45.369 107.341 44.9249C106.685 44.4809 106.173 43.8497 105.872 43.1113C105.569 42.3728 105.49 41.5602 105.644 40.7763C105.798 39.9924 106.178 39.2723 106.737 38.7071C107.295 38.1419 108.007 37.757 108.78 37.6011C109.555 37.4452 110.358 37.5252 111.087 37.8311C111.816 38.137 112.44 38.6549 112.879 39.3195C113.317 39.9841 113.551 40.7654 113.551 41.5647C113.55 42.6359 113.128 43.6626 112.38 44.42C111.632 45.1774 110.618 45.6039 109.559 45.606ZM109.559 38.6629C108.992 38.6629 108.438 38.8331 107.967 39.1519C107.496 39.4708 107.128 39.924 106.911 40.4542C106.694 40.9845 106.638 41.568 106.748 42.1309C106.859 42.6938 107.132 43.2109 107.533 43.6166C107.934 44.0225 108.444 44.2989 109 44.4108C109.556 44.5228 110.132 44.4654 110.656 44.2457C111.181 44.0261 111.628 43.6541 111.943 43.1769C112.258 42.6998 112.426 42.1386 112.426 41.5647C112.427 41.183 112.354 40.8048 112.21 40.4517C112.066 40.0987 111.855 39.7779 111.589 39.5075C111.323 39.2372 111.007 39.0227 110.659 38.8764C110.31 38.7301 109.936 38.6547 109.559 38.6547V38.6629Z" fill="#424346"/>
<path d="M109.559 45.8111C108.728 45.8111 107.916 45.5616 107.225 45.0941C106.534 44.6266 105.995 43.9622 105.677 43.1848C105.359 42.4074 105.275 41.552 105.438 40.7267C105.6 39.9014 106 39.1433 106.588 38.5484C107.175 37.9533 107.925 37.5482 108.74 37.384C109.555 37.2198 110.4 37.3041 111.168 37.6261C111.936 37.9481 112.592 38.4934 113.054 39.1931C113.516 39.8927 113.762 40.7152 113.762 41.5567C113.762 42.6851 113.319 43.7672 112.531 44.565C111.743 45.3629 110.674 45.8111 109.559 45.8111ZM109.559 37.7203C108.81 37.7203 108.077 37.9453 107.454 38.3669C106.831 38.7884 106.346 39.3876 106.058 40.0886C105.772 40.7896 105.696 41.5609 105.843 42.3051C105.989 43.0493 106.35 43.7329 106.88 44.2694C107.41 44.8059 108.085 45.1713 108.82 45.3193C109.555 45.4674 110.317 45.3914 111.01 45.101C111.702 44.8106 112.294 44.3189 112.711 43.6881C113.127 43.0571 113.349 42.3154 113.349 41.5567C113.349 40.5393 112.95 39.5634 112.239 38.844C111.528 38.1245 110.565 37.7203 109.559 37.7203ZM109.559 44.6635C108.953 44.6618 108.36 44.4783 107.857 44.1359C107.353 43.7935 106.961 43.3078 106.73 42.7399C106.499 42.1721 106.44 41.5477 106.558 40.9456C106.678 40.3435 106.971 39.7906 107.401 39.3569C107.83 38.9233 108.377 38.6282 108.972 38.509C109.567 38.3898 110.183 38.4518 110.744 38.6872C111.305 38.9226 111.783 39.3208 112.12 39.8315C112.457 40.3422 112.637 40.9426 112.637 41.5567C112.634 42.3814 112.31 43.1716 111.733 43.754C111.155 44.3364 110.374 44.6635 109.559 44.6635ZM109.559 38.8679C109.034 38.8679 108.52 39.0256 108.084 39.3211C107.647 39.6165 107.307 40.0365 107.106 40.5278C106.905 41.0191 106.852 41.5596 106.955 42.0812C107.057 42.6027 107.31 43.0819 107.681 43.4579C108.053 43.834 108.526 44.09 109.042 44.1938C109.557 44.2975 110.091 44.2443 110.576 44.0407C111.061 43.8372 111.476 43.4926 111.768 43.0505C112.06 42.6083 112.216 42.0885 112.216 41.5567C112.213 40.8443 111.933 40.1616 111.435 39.6578C110.938 39.1541 110.263 38.8701 109.559 38.8679Z" fill="#424346"/>
<path d="M122.831 44.3439V37.9336H122.28V45.0981H122.872L128.176 38.6714V45.0981H128.727V37.9336H128.062L122.831 44.3439Z" fill="#424346"/>
<path d="M128.929 45.3105H127.965V39.2855L123.033 45.2696L122.969 45.3433H122.07V37.7607H123.033V43.7694L127.932 37.8345L127.997 37.7607H128.929V45.3105ZM128.378 44.8924H128.515V38.1788H128.378V44.8924ZM122.628 44.8924H122.774L128.014 38.5395L128.337 38.1461H128.192L122.985 44.4908L122.628 44.8924ZM122.491 44.8924H122.628V38.1788H122.491V44.8924Z" fill="#424346"/>
<path d="M129.017 45.4338H127.876V39.5727L123.098 45.3108L123.009 45.4175H121.981V37.6709H123.123V43.5238L127.868 37.7857L127.957 37.6791H129.017V45.4338Z" fill="#424346"/>
<path d="M129.229 45.6465H127.674V40.1134L123.115 45.6465H121.779V37.4492H123.334V42.9333L127.706 37.6377L127.86 37.4574H129.229V45.6465ZM128.063 45.2203H128.792V37.8427H128.063L123.318 43.5808L122.953 44.0235V37.8755H122.224V45.2531H122.945L128.063 38.9575V45.2203Z" fill="#424346"/>
<path d="M131.593 44.3439V37.9336H131.042V45.0981H131.634L136.97 38.7042V45.1309H137.521V37.9336H136.897L131.593 44.3439Z" fill="#424346"/>
<path d="M137.69 45.3105H136.726V39.2855L131.787 45.2696L131.722 45.3433H130.823V37.7607H131.787V43.7694L136.686 37.8345L136.751 37.7607H137.682L137.69 45.3105ZM137.139 44.8924H137.269V38.1788H137.139V44.8924ZM131.39 44.8924H131.528L136.767 38.5395L137.091 38.1461H136.97L131.746 44.4908L131.39 44.8924ZM131.244 44.8924H131.382V38.1788H131.244V44.8924Z" fill="#424346"/>
<path d="M137.779 45.4338H136.637V39.5727L131.86 45.3108L131.771 45.4175H130.743V37.6709H131.884V43.5238L136.629 37.7857L136.719 37.6791H137.779V45.4338Z" fill="#424346"/>
<path d="M137.982 45.6465H136.426V40.1134L131.867 45.6465H130.532V37.4492H132.111V42.9333L136.637 37.4492H138.006L137.982 45.6465ZM136.84 45.2285H137.569V37.8509H136.815L136.143 38.6706L131.682 44.0809V37.8755H130.953V45.2531H131.673L136.824 39.0149L136.84 45.2285Z" fill="#424346"/>
<path d="M115.478 45.1309H116.021V38.4664H119.964V37.9336H115.471L115.478 45.1309Z" fill="#424346"/>
<path d="M116.224 45.3105H115.269V37.7607H120.176V38.6789H116.224V45.3105ZM115.681 44.8925H115.811V38.2608H119.762V38.1788H115.714L115.681 44.8925Z" fill="#424346"/>
<path d="M116.313 45.4338H115.18V37.6709H120.265V38.7694H116.313V45.4338Z" fill="#424346"/>
<path d="M116.523 45.6465H114.968V37.4492H120.466V38.974H116.515L116.523 45.6465ZM115.389 45.2285H116.11V38.5559H120.062V37.8755H115.389V45.2285Z" fill="#424346"/>
<path d="M100.571 37.9824L97.7285 45.1469H98.3116L100.854 38.589L103.332 45.1469H103.916L101.122 37.9824H100.571Z" fill="#424346"/>
<path d="M104.223 45.352H103.186L103.138 45.2209L100.854 39.1877L98.5059 45.2209L98.4576 45.352H97.4287L100.442 37.7695H101.251L104.223 45.352ZM103.47 44.934H103.607L100.976 38.1876H100.919L101.049 38.5319L103.47 44.934ZM98.0364 44.934H98.1737L100.668 38.5319L100.806 38.1876H100.725L98.0364 44.934Z" fill="#424346"/>
<path d="M104.353 45.4421H103.121L103.048 45.2453L100.846 39.4334L98.5869 45.2535L98.514 45.4421H97.291L100.376 37.6792H101.34L104.353 45.4421Z" fill="#424346"/>
<path d="M104.66 45.6553H102.959L100.822 40.0156L98.6276 45.6553H96.9512L100.19 37.458H101.421L104.66 45.6553ZM103.267 45.2372H104.077L101.21 37.8597H100.53L97.6148 45.2372H98.425L100.902 38.8598L103.267 45.2372Z" fill="#424346"/>
<path d="M77.7038 37.9824H76.9993L74.5701 41.0646L72.1408 37.9824H71.3796L74.1894 41.5073L71.2905 45.1469H71.995L74.5457 41.9499L77.0964 45.1469H77.801L74.8939 41.5073L77.7038 37.9824Z" fill="#424346"/>
<path d="M78.2384 45.352H76.9995L74.5703 42.278L72.1896 45.3111L72.1248 45.393H70.8535L71.1288 45.0487L73.9306 41.5403L71.226 38.1465L70.9507 37.8022H72.1896L72.2544 37.8842L74.546 40.7615L76.9024 37.8104H78.1413L77.866 38.1547L75.1614 41.5485L77.9632 45.0569L78.2384 45.352ZM77.202 44.9339H77.372L74.7403 41.655L74.6189 41.4992L74.7241 41.3681L77.2587 38.1958H77.0886L74.5379 41.4009L74.376 41.2124L71.9872 38.2121H71.8171L74.3516 41.3927L74.4569 41.5239L74.3598 41.655L71.7281 44.9339H71.8981L74.384 41.819L74.546 41.6141L77.202 44.9339Z" fill="#424346"/>
<path d="M78.4243 45.442H76.9587L76.8696 45.3108L74.5457 42.4008L72.1893 45.3108L72.1003 45.4256H70.667L71.0557 44.9338L73.8088 41.4991L71.1528 38.1628L70.7641 37.6709H72.2379L72.327 37.7857L74.5457 40.5728L76.7725 37.7857L76.8616 37.6709H78.3272L77.9385 38.1628L75.2825 41.4991L78.0356 44.9502L78.4243 45.442Z" fill="#424346"/>
<path d="M78.8533 45.6553H76.8532L74.5374 42.7617L72.2295 45.6553H70.2295L73.5413 41.4993L70.3023 37.4662H72.3105L72.4644 37.6547L74.5212 40.2369L76.7398 37.458H78.7399L75.5009 41.4911L76.3107 42.5404L78.1245 44.8111L78.8533 45.6553ZM77.0476 45.2372H77.9788L77.8573 45.0897L76.0596 42.8518L75.0151 41.5402L77.8573 37.8925H76.9585L74.5292 40.9173L74.3673 40.7124L72.1891 37.9334H71.2012L74.0758 41.5484L71.0959 45.2783H72.0271L74.5374 42.1305L77.0476 45.2372Z" fill="#424346"/>
<path d="M55.1846 49.721H65.347V48.7373H55.1846V49.721Z" fill="#424346"/>
<path d="M65.558 49.934H55.0312V48.5322H65.558V49.934ZM55.4199 49.5159H65.1369V48.9585H55.4199V49.5159Z" fill="#424346"/>
<path d="M65.6464 50.0245H54.9092V48.4424H65.6464V50.0245ZM55.5084 49.4097H65.0553V49.0326H55.5084V49.4097Z" fill="#424346"/>
<path d="M65.8573 50.2292H54.707V48.2373H65.8573V50.2292ZM55.12 49.8112H65.4362V48.6553H55.12V49.8112ZM65.2581 49.6309H55.2982V48.8111H65.2581V49.6309Z" fill="#424346"/>
</svg>
