<svg width="14" height="10" viewBox="0 0 14 10" fill="none" xmlns="http://www.w3.org/2000/svg">
<path d="M6.09173 8.68353L0.301065 2.08841C-0.382321 1.31244 0.173081 0.0937504 1.21023 0.0937504H12.7916C13.0237 0.0935521 13.2509 0.160023 13.4461 0.285205C13.6413 0.410386 13.7961 0.58897 13.892 0.799572C13.988 1.01017 14.021 1.24386 13.987 1.47266C13.9531 1.70146 13.8537 1.91566 13.7007 2.08961L7.91007 8.68233C7.79674 8.81155 7.65698 8.91512 7.50017 8.98608C7.34336 9.05704 7.17313 9.09375 7.0009 9.09375C6.82868 9.09375 6.65844 9.05704 6.50163 8.98608C6.34482 8.91512 6.20506 8.81155 6.09173 8.68233V8.68353Z" fill="#EBEBEF"/>
</svg>
