<svg width="10" height="7" viewBox="0 0 10 7" fill="none" xmlns="http://www.w3.org/2000/svg">
<path d="M5.64876 6.15759L9.78495 1.42978C10.2731 0.872649 9.87637 -0.000124931 9.13555 -0.000124931H0.863165C0.697369 -0.000267029 0.535045 0.0473838 0.395634 0.137122C0.256223 0.22686 0.145633 0.354881 0.0771083 0.505854C0.00858356 0.656826 -0.0149713 0.824352 0.00926438 0.988367C0.0335001 1.15238 0.104499 1.30594 0.213759 1.43064L4.34995 6.15673C4.4309 6.24936 4.53073 6.3236 4.64274 6.37447C4.75474 6.42534 4.87634 6.45166 4.99936 6.45166C5.12237 6.45166 5.24397 6.42534 5.35598 6.37447C5.46799 6.3236 5.56781 6.24936 5.64876 6.15673V6.15759Z" fill="#656669"/>
</svg>
