<svg width="17" height="9" viewBox="0 0 17 9" fill="none" xmlns="http://www.w3.org/2000/svg">
<path fill-rule="evenodd" clip-rule="evenodd" d="M0.183617 8.81638C0.241674 8.87459 0.310644 8.92077 0.386575 8.95227C0.462507 8.98378 0.543908 9 0.626117 9C0.708326 9 0.789728 8.98378 0.865659 8.95227C0.941591 8.92077 1.01056 8.87459 1.06862 8.81638L8.12612 1.75763L15.1836 8.81638C15.2417 8.87449 15.3107 8.92059 15.3866 8.95204C15.4626 8.98349 15.5439 8.99967 15.6261 8.99967C15.7083 8.99967 15.7897 8.98349 15.8656 8.95204C15.9415 8.92059 16.0105 8.87449 16.0686 8.81638C16.1267 8.75827 16.1728 8.68929 16.2043 8.61336C16.2357 8.53744 16.2519 8.45606 16.2519 8.37388C16.2519 8.2917 16.2357 8.21033 16.2043 8.1344C16.1728 8.05848 16.1267 7.98949 16.0686 7.93138L8.56862 0.431384C8.51056 0.37318 8.44159 0.327002 8.36566 0.295493C8.28973 0.263985 8.20833 0.247766 8.12612 0.247766C8.04391 0.247766 7.96251 0.263985 7.88658 0.295493C7.81064 0.327002 7.74167 0.37318 7.68362 0.431384L0.183617 7.93138C0.125413 7.98944 0.0792347 8.05841 0.0477266 8.13434C0.0162186 8.21027 0 8.29167 0 8.37388C0 8.45609 0.0162186 8.53749 0.0477266 8.61343C0.0792347 8.68936 0.125413 8.75833 0.183617 8.81638Z" fill="#656669"/>
</svg>
