<svg width="20" height="12" viewBox="0 0 20 12" fill="none" xmlns="http://www.w3.org/2000/svg">
<path d="M2.32375 6.42055H1.05487L1.98266 7.28614L6.26396 11.2804C6.26398 11.2805 6.264 11.2805 6.26402 11.2805C6.29454 11.309 6.30459 11.34 6.30459 11.3644C6.30459 11.3888 6.29453 11.4198 6.26396 11.4483C6.23223 11.4779 6.18225 11.5 6.12351 11.5C6.06476 11.5 6.01478 11.4779 5.98305 11.4483L0.54122 6.36963L0.54076 6.36921C0.525431 6.35494 0.515272 6.33988 0.50905 6.32589C0.502876 6.312 0.500233 6.29846 0.500233 6.28571C0.500233 6.27297 0.502876 6.25943 0.50905 6.24554C0.515272 6.23155 0.525431 6.21649 0.54076 6.20222L0.54122 6.20179L5.98305 1.12314C6.01478 1.09353 6.06476 1.07143 6.12351 1.07143C6.18225 1.07143 6.23223 1.09353 6.26396 1.12314C6.29453 1.15166 6.30459 1.18267 6.30459 1.20706C6.30459 1.23144 6.29454 1.26242 6.26402 1.29093C6.264 1.29095 6.26398 1.29096 6.26396 1.29098L1.98266 5.28529L1.05487 6.15088H2.32375H18.3676C18.4261 6.15088 18.4759 6.1729 18.5075 6.20236C18.5379 6.23073 18.5479 6.26153 18.5479 6.28571C18.5479 6.30989 18.5379 6.34069 18.5075 6.36907C18.4759 6.39853 18.4261 6.42055 18.3676 6.42055H2.32375Z" fill="black" stroke="#424346"/>
</svg>
