<svg width="18" height="18" viewBox="0 0 18 18" fill="none" xmlns="http://www.w3.org/2000/svg">
<path d="M3.01275 13.3807C3.12952 13.498 3.219 13.6395 3.27481 13.7953C3.33062 13.951 3.35138 14.1172 3.33562 14.2819C3.25656 15.0442 3.10666 15.7974 2.88787 16.5319C4.45725 16.1685 5.41575 15.7478 5.85113 15.5273C6.09807 15.4022 6.38245 15.3725 6.64987 15.444C7.41649 15.6484 8.20661 15.7513 9 15.75C13.4955 15.75 16.875 12.5921 16.875 9C16.875 5.409 13.4955 2.25 9 2.25C4.5045 2.25 1.125 5.409 1.125 9C1.125 10.6515 1.81912 12.1838 3.01275 13.3807ZM2.45812 17.7739C2.19158 17.8267 1.92416 17.8751 1.656 17.919C1.431 17.955 1.26 17.721 1.34888 17.5117C1.44877 17.2762 1.54032 17.0372 1.62337 16.7951L1.62675 16.7839C1.90575 15.9739 2.133 15.0424 2.21625 14.175C0.835875 12.7913 0 10.98 0 9C0 4.65075 4.02975 1.125 9 1.125C13.9703 1.125 18 4.65075 18 9C18 13.3492 13.9703 16.875 9 16.875C8.10861 16.8762 7.22091 16.7605 6.35962 16.5308C5.77462 16.8266 4.51575 17.3655 2.45812 17.7739Z" fill="#656669"/>
<path d="M4.5 6.1875C4.5 6.03832 4.55926 5.89524 4.66475 5.78975C4.77024 5.68426 4.91332 5.625 5.0625 5.625H12.9375C13.0867 5.625 13.2298 5.68426 13.3352 5.78975C13.4407 5.89524 13.5 6.03832 13.5 6.1875C13.5 6.33668 13.4407 6.47976 13.3352 6.58525C13.2298 6.69074 13.0867 6.75 12.9375 6.75H5.0625C4.91332 6.75 4.77024 6.69074 4.66475 6.58525C4.55926 6.47976 4.5 6.33668 4.5 6.1875ZM4.5 9C4.5 8.85082 4.55926 8.70774 4.66475 8.60225C4.77024 8.49676 4.91332 8.4375 5.0625 8.4375H12.9375C13.0867 8.4375 13.2298 8.49676 13.3352 8.60225C13.4407 8.70774 13.5 8.85082 13.5 9C13.5 9.14918 13.4407 9.29226 13.3352 9.39775C13.2298 9.50324 13.0867 9.5625 12.9375 9.5625H5.0625C4.91332 9.5625 4.77024 9.50324 4.66475 9.39775C4.55926 9.29226 4.5 9.14918 4.5 9ZM4.5 11.8125C4.5 11.6633 4.55926 11.5202 4.66475 11.4148C4.77024 11.3093 4.91332 11.25 5.0625 11.25H9.5625C9.71168 11.25 9.85476 11.3093 9.96025 11.4148C10.0657 11.5202 10.125 11.6633 10.125 11.8125C10.125 11.9617 10.0657 12.1048 9.96025 12.2102C9.85476 12.3157 9.71168 12.375 9.5625 12.375H5.0625C4.91332 12.375 4.77024 12.3157 4.66475 12.2102C4.55926 12.1048 4.5 11.9617 4.5 11.8125Z" fill="#656669"/>
</svg>
