<svg width="32" height="33" viewBox="0 0 32 33" fill="none" xmlns="http://www.w3.org/2000/svg"><path d="M11.873 0L2.138 5.563A4.225 4.225 0 000 9.228v11.088l3.36-1.92V9.228c0-.324.175-.624.458-.786l8.055-4.602V0zm1.664 32.433L3.8 26.87l3.36-1.92 8.056 4.603a.925.925 0 00.916 0l8.022-4.584 3.36 1.92-9.702 5.544a4.315 4.315 0 01-4.276 0zM31.35 20.354V9.228c0-1.512-.815-2.91-2.138-3.665L19.509.019v3.84l8.023 4.583a.905.905 0 01.458.786v9.206l3.36 1.92zm-8.906 1.829l.657-1.12-7.436-4.219-7.49 4.25.64 1.088h13.63zm-15.047-2.48l7.49-4.249v-8.69h-1.088L6.797 18.683l.6 1.021zm9.041-12.938v8.69l7.436 4.218.64-1.087-6.945-11.821h-1.131z" fill="#D91745"/></svg>