<svg width="441" height="75" viewBox="0 0 441 75" fill="none" xmlns="http://www.w3.org/2000/svg">
<g clip-path="url(#clip0_1861_30848)">
<path d="M75.1947 57.3008H37.519C36.4484 57.4704 35.4181 57.8381 34.4798 58.3854C33.4456 59.0115 32.553 59.8496 31.8597 60.8458L24.2617 74.0733H84.8363L75.1947 57.3008Z" fill="#000203"/>
<path d="M54.0503 52.0106C55.1554 52.6335 56.3789 53.0122 57.6398 53.1217H72.7834L42.3913 0L32.6973 16.9312L51.1945 49.2857C51.9317 50.3991 52.9078 51.3304 54.0503 52.0106Z" fill="#000203"/>
<path d="M38.7237 38.0433C38.7286 36.7632 38.4511 35.498 37.9115 34.3396L30.3659 21.165L0 74.0751H19.3881L37.7281 42.0116C38.3631 40.7858 38.7041 39.4266 38.7237 38.0433Z" fill="#000203"/>
<path d="M128.38 34.8128C128.38 34.0456 128.956 8.88687 128.956 8.88687L122.17 34.8128H116.93L110.04 8.88687C110.04 8.88687 110.59 33.7811 110.59 34.8128H104.957V3.25195H113.446L119.55 26.6911L125.577 3.25195H134.039V34.8128H128.38Z" fill="#000203"/>
<path d="M166.739 34.8128H160.896V14.1779L146.905 31.0562V34.8128H141.062V3.25195H146.905V23.8075L160.896 6.90275V3.25195H166.739V34.8128Z" fill="#000203"/>
<path d="M193.12 34.8128V20.4742H179.706V34.8128H173.811V3.25195H179.706V15.1303H193.12V3.25195H199.12V34.8128H193.12Z" fill="#000203"/>
<path d="M230.875 3.25195V34.8128H225.033V8.62232H211.932V34.8128H206.09V3.25195H230.875Z" fill="#000203"/>
<path d="M250.158 3.25195C256.629 3.25195 261.267 7.27312 261.267 13.834C261.267 19.5747 257.992 24.1514 249.844 24.1514H243.87V34.8922H238.027V3.25195H250.158ZM243.87 19.2572H249.11C253.276 19.2572 255.346 17.2996 255.346 13.5694C255.346 8.49005 251.285 8.27841 248.455 8.27841H243.87V19.2572Z" fill="#000203"/>
<path d="M279.188 2.46094C288.699 2.46094 294.149 10.3974 294.149 18.8631C294.149 26.0324 290.297 35.6355 279.057 35.6355C269.861 35.6355 264.176 27.9371 264.176 19.0747C264.176 10.2123 270.176 2.46094 279.188 2.46094ZM279.188 30.1329C283.826 30.1329 288.201 26.5086 288.201 19.3392C288.201 13.7308 285.345 7.93713 279.136 7.93713C273.896 7.93713 270.202 12.0112 270.202 18.9424C270.202 23.8101 272.481 30.1329 279.241 30.1329H279.188Z" fill="#000203"/>
<path d="M322.918 34.8128C322.918 34.0456 323.494 8.88687 323.494 8.88687L316.734 34.8128H311.494L304.735 8.88687C304.735 8.88687 305.311 33.7811 305.311 34.8128H299.6V3.25195H308.088L314.219 26.6911L320.219 3.25195H328.682V34.8128H322.918Z" fill="#000203"/>
<path d="M347.44 8.57226V34.8156H341.597V8.57226H333.082V3.28125H356.06V8.57226H347.44Z" fill="#000203"/>
<path d="M374.109 2.46094C383.646 2.46094 389.07 10.3974 389.07 18.8631C389.07 26.0324 385.218 35.6355 373.978 35.6355C364.782 35.6355 359.123 27.9371 359.123 19.0747C359.123 10.2123 365.097 2.46094 374.109 2.46094ZM374.109 30.1329C378.747 30.1329 383.149 26.5086 383.149 19.3392C383.149 13.7308 380.214 7.85776 374.031 7.85776C368.791 7.85776 365.07 11.9318 365.07 18.8631C365.123 23.8101 367.481 30.1329 374.162 30.1329H374.109Z" fill="#000203"/>
<path d="M406.86 3.25195C413.332 3.25195 417.969 7.27312 417.969 13.834C417.969 19.5747 414.694 24.1514 406.572 24.1514H400.598V34.8922H394.756V3.25195H406.86ZM400.598 19.2572H405.708C409.873 19.2572 411.969 17.2996 411.969 13.5694C411.969 8.49005 407.882 8.27841 405.053 8.27841H400.598V19.2572Z" fill="#000203"/>
<path d="M440.999 3.25195V8.54296H428.161V34.7334H422.318V3.25195H440.999Z" fill="#000203"/>
<path d="M117.088 42.6191C123.533 42.6191 128.197 46.6403 128.197 53.2012C128.197 58.9419 124.921 63.5451 116.773 63.5451H110.8V74.0742H104.957V42.6191H117.088ZM110.8 58.6244H116.04C120.205 58.6244 122.275 56.6668 122.275 52.9631C122.275 47.8572 118.214 47.6721 115.385 47.6721H110.8V58.6244Z" fill="#000203"/>
<path d="M146.118 41.8232C155.629 41.8232 161.078 49.7597 161.078 58.2254C161.078 65.3682 157.253 74.9978 145.987 74.9978C136.791 74.9978 131.105 67.2994 131.105 58.437C131.105 49.5746 137.105 41.8232 146.118 41.8232ZM146.118 69.4952C150.756 69.4952 155.131 65.8709 155.131 58.7015C155.131 53.0931 152.223 47.2465 146.013 47.2465C140.773 47.2465 137.079 51.2941 137.079 58.2254C137.131 63.146 139.489 69.4952 146.171 69.4952H146.118Z" fill="#000203"/>
<path d="M192.859 65.3701C191.893 68.2004 190.07 70.6526 187.649 72.3805C185.228 74.1084 182.33 75.0246 179.366 74.9998C171.977 74.9998 164.746 69.8939 164.746 58.095C164.746 51.0844 168.676 41.8252 179.575 41.8252C182.488 41.683 185.358 42.5806 187.681 44.3607C190.005 46.1407 191.634 48.6896 192.282 51.5606L186.492 53.095C186.303 51.454 185.512 49.9439 184.276 48.8619C183.039 47.7799 181.447 47.2043 179.811 47.2484C174.702 47.2484 171.087 51.1638 171.087 58.2008C171.087 62.4865 172.816 69.4178 179.759 69.4178C181.539 69.3406 183.244 68.6748 184.612 67.5227C185.981 66.3706 186.936 64.7962 187.331 63.0421L192.859 65.3701Z" fill="#000203"/>
<path d="M224.246 65.3691C223.278 68.2037 221.452 70.659 219.025 72.3872C216.599 74.1155 213.695 75.0292 210.726 74.9988C203.338 74.9988 196.133 69.8929 196.133 58.094C196.133 51.0834 200.063 41.8242 210.962 41.8242C213.874 41.6873 216.741 42.5869 219.063 44.366C221.386 46.1452 223.016 48.6911 223.669 51.5596L217.853 53.094C217.675 51.4481 216.888 49.9308 215.649 48.8465C214.41 47.7622 212.81 47.191 211.172 47.2474C206.089 47.2474 202.473 51.1628 202.473 58.1998C202.473 62.4855 204.176 69.4167 211.145 69.4167C212.922 69.3383 214.624 68.6715 215.988 67.5191C217.351 66.3668 218.301 64.7931 218.691 63.0411L224.246 65.3691Z" fill="#000203"/>
<path d="M254.141 74.0732H248.298V53.4383L234.334 70.3166V74.0732H228.465V42.6182H234.334V63.0944L248.298 46.216V42.6182H254.141V74.0732Z" fill="#000203"/>
<path d="M286.916 74.0732H281.074V53.4383L267.083 70.3166V74.0732H261.24V42.6182H267.083V63.0944L281.074 46.216V42.6182H286.916V74.0732Z" fill="#000203"/>
</g>
<defs>
<clipPath id="clip0_1861_30848">
<rect width="441" height="75" fill="white"/>
</clipPath>
</defs>
</svg>
