<svg width="70" height="70" viewBox="0 0 70 70" fill="none" xmlns="http://www.w3.org/2000/svg">
<circle cx="35" cy="35" r="34" stroke="#EBEBEF" stroke-width="2"/>
<path d="M32.3438 46.0805V23.5993L45.1898 34.8399L32.3438 46.0805ZM33.8883 47.8454L46.732 36.6047C46.9838 36.3847 47.1855 36.1134 47.3238 35.809C47.462 35.5047 47.5335 35.1742 47.5335 34.8399C47.5335 34.5056 47.462 34.1751 47.3238 33.8707C47.1855 33.5663 46.9838 33.295 46.732 33.075L33.8906 21.8344C32.3695 20.5079 30 21.586 30 23.5993V46.0805C29.9996 46.5311 30.1291 46.9722 30.373 47.3511C30.6169 47.73 30.9648 48.0305 31.3751 48.2167C31.7854 48.4029 32.2406 48.467 32.6864 48.4011C33.1321 48.3352 33.5494 48.1423 33.8883 47.8454Z" fill="#C6C7D0"/>
</svg>
