<svg width="56" height="56" viewBox="0 0 56 56" fill="none" xmlns="http://www.w3.org/2000/svg">
<circle cx="28" cy="28" r="27" stroke="white" stroke-width="2"/>
<mask id="path-2-inside-1_1504_21194" fill="white">
<path d="M25.875 36.8644V18.8794L36.1519 27.8719L25.875 36.8644ZM27.1106 38.2763L37.3856 29.2838C37.587 29.1078 37.7484 28.8908 37.859 28.6472C37.9696 28.4037 38.0268 28.1394 38.0268 27.8719C38.0268 27.6045 37.9696 27.3401 37.859 27.0966C37.7484 26.8531 37.587 26.636 37.3856 26.46L27.1125 17.4675C25.8956 16.4063 24 17.2688 24 18.8794V36.8644C23.9997 37.2249 24.1033 37.5778 24.2984 37.8809C24.4935 38.184 24.7718 38.4244 25.1 38.5734C25.4283 38.7224 25.7925 38.7736 26.1491 38.7209C26.5057 38.6682 26.8395 38.5138 27.1106 38.2763Z"/>
</mask>
<path d="M25.875 36.8644V18.8794L36.1519 27.8719L25.875 36.8644ZM27.1106 38.2763L37.3856 29.2838C37.587 29.1078 37.7484 28.8908 37.859 28.6472C37.9696 28.4037 38.0268 28.1394 38.0268 27.8719C38.0268 27.6045 37.9696 27.3401 37.859 27.0966C37.7484 26.8531 37.587 26.636 37.3856 26.46L27.1125 17.4675C25.8956 16.4063 24 17.2688 24 18.8794V36.8644C23.9997 37.2249 24.1033 37.5778 24.2984 37.8809C24.4935 38.184 24.7718 38.4244 25.1 38.5734C25.4283 38.7224 25.7925 38.7736 26.1491 38.7209C26.5057 38.6682 26.8395 38.5138 27.1106 38.2763Z" fill="black"/>
<path d="M25.875 36.8644H23.875V41.272L27.192 38.3695L25.875 36.8644ZM25.875 18.8794L27.192 17.3743L23.875 14.4718V18.8794H25.875ZM36.1519 27.8719L37.4689 29.377L39.189 27.8719L37.4689 26.3668L36.1519 27.8719ZM27.1106 38.2763L25.7935 36.7713L25.7926 36.772L27.1106 38.2763ZM37.3856 29.2838L36.0696 27.7778L36.0685 27.7788L37.3856 29.2838ZM37.3856 26.46L36.0683 27.9649L36.0696 27.966L37.3856 26.46ZM27.1125 17.4675L28.4298 15.9626L28.427 15.9602L27.1125 17.4675ZM24 36.8644L26 36.8661V36.8644H24ZM27.875 36.8644V18.8794H23.875V36.8644H27.875ZM24.558 20.3845L34.8348 29.377L37.4689 26.3668L27.192 17.3743L24.558 20.3845ZM34.8348 26.3668L24.558 35.3593L27.192 38.3695L37.4689 29.377L34.8348 26.3668ZM28.4278 39.7813L38.7028 30.7888L36.0685 27.7788L25.7935 36.7713L28.4278 39.7813ZM38.7017 30.7898C39.1179 30.4261 39.4515 29.9775 39.68 29.4743L36.038 27.8202C36.0454 27.804 36.0562 27.7895 36.0696 27.7778L38.7017 30.7898ZM39.68 29.4743C39.9086 28.971 40.0268 28.4246 40.0268 27.8719H36.0268C36.0268 27.8541 36.0307 27.8364 36.038 27.8202L39.68 29.4743ZM40.0268 27.8719C40.0268 27.3192 39.9086 26.7728 39.68 26.2696L36.038 27.9236C36.0307 27.9074 36.0268 27.8897 36.0268 27.8719H40.0268ZM39.68 26.2696C39.4515 25.7663 39.1179 25.3177 38.7017 24.954L36.0696 27.966C36.0562 27.9543 36.0454 27.9398 36.038 27.9236L39.68 26.2696ZM38.7029 24.9551L28.4298 15.9626L25.7952 18.9724L36.0683 27.9649L38.7029 24.9551ZM28.427 15.9602C25.9188 13.7728 22 15.5487 22 18.8794H26C26 18.8759 26.0003 18.8852 25.9949 18.9026C25.9897 18.9194 25.9816 18.9362 25.9717 18.9508C25.9529 18.9786 25.935 18.9889 25.9269 18.9925C25.9188 18.9962 25.8995 19.0028 25.8669 18.9988C25.8498 18.9966 25.8323 18.9918 25.8168 18.9849C25.8007 18.9778 25.7946 18.9719 25.798 18.9748L28.427 15.9602ZM22 18.8794V36.8644H26V18.8794H22ZM22 36.8627C21.9994 37.6076 22.2135 38.337 22.6167 38.9634L25.9801 36.7984C25.9931 36.8186 26 36.8421 26 36.8661L22 36.8627ZM22.6167 38.9634C23.0199 39.5898 23.5951 40.0867 24.2734 40.3946L25.9267 36.7522C25.9485 36.7621 25.9671 36.7781 25.9801 36.7984L22.6167 38.9634ZM24.2734 40.3946C24.9518 40.7024 25.7045 40.8083 26.4414 40.6994L25.8567 36.7424C25.8805 36.7388 25.9048 36.7423 25.9267 36.7522L24.2734 40.3946ZM26.4414 40.6994C27.1784 40.5905 27.8683 40.2715 28.4286 39.7806L25.7926 36.772C25.8107 36.7562 25.8329 36.7459 25.8567 36.7424L26.4414 40.6994Z" fill="white" mask="url(#path-2-inside-1_1504_21194)"/>
</svg>
