<svg width="25" height="25" viewBox="0 0 25 25" fill="none" xmlns="http://www.w3.org/2000/svg"><g clip-path="url(#clip0_1003_560)" fill="#656669"><path fill-rule="evenodd" clip-rule="evenodd" d="M10.156 18.75a8.593 8.593 0 100-17.186 8.593 8.593 0 000 17.186zm10.156-8.594a10.156 10.156 0 11-20.312 0 10.156 10.156 0 0120.313 0z"/><path d="M14.063 18.347c.046.062.096.122.153.18l6.015 6.015a1.563 1.563 0 102.211-2.21l-6.015-6.015a1.589 1.589 0 00-.18-.156 10.217 10.217 0 01-2.184 2.187v-.001z"/></g><defs><clipPath id="clip0_1003_560"><path fill="#fff" d="M0 0h25v25H0z"/></clipPath></defs></svg>