<svg width="59" height="59" viewBox="0 0 59 59" fill="none" xmlns="http://www.w3.org/2000/svg">
<g clip-path="url(#clip0_1901_33328)">
<mask id="path-1-inside-1_1901_33328" fill="white">
<path fill-rule="evenodd" clip-rule="evenodd" d="M49 30C49 40.4934 40.4934 49 30 49C19.5066 49 11 40.4934 11 30C11 19.5066 19.5066 11 30 11C40.4934 11 49 19.5066 49 30ZM30.681 25.0261C28.833 25.7948 25.1395 27.3857 19.6006 29.7989C18.7012 30.1566 18.23 30.5065 18.1871 30.8486C18.1146 31.4269 18.8387 31.6546 19.8248 31.9646C19.9589 32.0068 20.0979 32.0505 20.2403 32.0968C21.2105 32.4121 22.5154 32.7811 23.1938 32.7957C23.8092 32.809 24.496 32.5553 25.2543 32.0346C30.4294 28.5413 33.1009 26.7755 33.2686 26.7375C33.3869 26.7106 33.5509 26.6768 33.662 26.7756C33.7731 26.8743 33.7622 27.0613 33.7504 27.1115C33.6787 27.4173 30.8363 30.0598 29.3654 31.4273C28.9068 31.8536 28.5816 32.156 28.5151 32.2251C28.3661 32.3798 28.2143 32.5261 28.0684 32.6668C27.1672 33.5356 26.4913 34.1871 28.1058 35.2511C28.8817 35.7624 29.5025 36.1852 30.1219 36.607C30.7984 37.0676 31.4731 37.5271 32.346 38.0993C32.5684 38.2451 32.7808 38.3965 32.9877 38.544C33.7749 39.1052 34.4821 39.6094 35.3559 39.529C35.8636 39.4823 36.388 39.0049 36.6543 37.5811C37.2838 34.2161 38.521 26.9254 38.807 23.921C38.832 23.6578 38.8005 23.321 38.7752 23.1731C38.7499 23.0252 38.697 22.8145 38.5048 22.6585C38.2771 22.4738 37.9257 22.4349 37.7685 22.4376C37.0539 22.4502 35.9575 22.8315 30.681 25.0261Z"/>
</mask>
<path d="M19.6006 29.7989L19.9701 30.7281L19.9852 30.7222L20 30.7157L19.6006 29.7989ZM30.681 25.0261L31.065 25.9495L31.065 25.9495L30.681 25.0261ZM18.1871 30.8486L17.1949 30.7243L17.1949 30.7243L18.1871 30.8486ZM19.8248 31.9646L20.1247 31.0107L20.1247 31.0107L19.8248 31.9646ZM20.2403 32.0968L20.5495 31.1458L20.5495 31.1458L20.2403 32.0968ZM23.1938 32.7957L23.2154 31.7959L23.2154 31.7959L23.1938 32.7957ZM25.2543 32.0346L24.6948 31.2058L24.6882 31.2103L25.2543 32.0346ZM33.2686 26.7375L33.0473 25.7623L33.0473 25.7623L33.2686 26.7375ZM33.7504 27.1115L32.7768 26.8831L32.7768 26.8831L33.7504 27.1115ZM29.3654 31.4273L30.0463 32.1597L30.0463 32.1597L29.3654 31.4273ZM28.5151 32.2251L27.7947 31.5315L27.7947 31.5315L28.5151 32.2251ZM28.0684 32.6668L28.7624 33.3867L28.7624 33.3867L28.0684 32.6668ZM28.1058 35.2511L28.6561 34.4161L28.6561 34.4161L28.1058 35.2511ZM30.1219 36.607L30.6848 35.7804L30.6848 35.7804L30.1219 36.607ZM32.346 38.0993L32.8942 37.263L32.8942 37.263L32.346 38.0993ZM32.9877 38.544L32.4072 39.3583L32.4072 39.3583L32.9877 38.544ZM35.3559 39.529L35.2642 38.5332L35.2642 38.5332L35.3559 39.529ZM36.6543 37.5811L37.6373 37.7649L37.6373 37.7649L36.6543 37.5811ZM38.807 23.921L39.8025 24.0158L39.8025 24.0158L38.807 23.921ZM38.7752 23.1731L37.7895 23.3418L37.7895 23.3418L38.7752 23.1731ZM38.5048 22.6585L39.1349 21.882L39.1349 21.882L38.5048 22.6585ZM37.7685 22.4376L37.7861 23.4375L37.7861 23.4375L37.7685 22.4376ZM30 50C41.0457 50 50 41.0457 50 30H48C48 39.9411 39.9411 48 30 48V50ZM10 30C10 41.0457 18.9543 50 30 50V48C20.0589 48 12 39.9411 12 30H10ZM30 10C18.9543 10 10 18.9543 10 30H12C12 20.0589 20.0589 12 30 12V10ZM50 30C50 18.9543 41.0457 10 30 10V12C39.9411 12 48 20.0589 48 30H50ZM20 30.7157C25.5402 28.3019 29.226 26.7144 31.065 25.9495L30.2969 24.1028C28.4399 24.8752 24.7388 26.4695 19.2012 28.8822L20 30.7157ZM19.1794 30.973C19.1639 31.0962 19.1155 31.1692 19.1024 31.1869C19.0915 31.2015 19.1034 31.1811 19.1689 31.1324C19.3043 31.0318 19.5562 30.8928 19.9701 30.7281L19.2311 28.8697C18.7456 29.0628 18.3122 29.2775 17.9765 29.5268C17.6668 29.7567 17.2676 30.1444 17.1949 30.7243L19.1794 30.973ZM20.1247 31.0107C19.8732 30.9316 19.6639 30.8656 19.4816 30.7999C19.2971 30.7335 19.1782 30.6805 19.1035 30.638C19.0244 30.593 19.0542 30.5927 19.1007 30.6611C19.1665 30.7579 19.191 30.88 19.1794 30.973L17.1949 30.7243C17.147 31.1064 17.2348 31.4738 17.4468 31.7856C17.6395 32.069 17.8984 32.2534 18.1145 32.3764C18.5241 32.6094 19.0731 32.7765 19.5248 32.9186L20.1247 31.0107ZM20.5495 31.1458C20.4017 31.0977 20.2582 31.0526 20.1247 31.0107L19.5248 32.9186C19.6596 32.9609 19.794 33.0032 19.9312 33.0478L20.5495 31.1458ZM23.2154 31.7959C22.9976 31.7912 22.5961 31.721 22.0697 31.589C21.5665 31.4629 21.0208 31.299 20.5495 31.1458L19.9312 33.0478C20.43 33.2099 21.0218 33.3882 21.5832 33.529C22.1214 33.6639 22.7116 33.7855 23.1722 33.7955L23.2154 31.7959ZM24.6882 31.2103C24.0218 31.6679 23.541 31.803 23.2154 31.7959L23.1722 33.7955C24.0774 33.815 24.9703 33.4427 25.8204 32.859L24.6882 31.2103ZM33.0473 25.7623C32.8846 25.7992 32.7456 25.8781 32.7406 25.8807C32.6898 25.9075 32.6342 25.9395 32.5788 25.9723C32.4661 26.039 32.3175 26.1313 32.1371 26.2459C31.7745 26.4763 31.2571 26.8137 30.5878 27.2561C29.248 28.1417 27.2831 29.4586 24.6948 31.2058L25.8138 32.8635C28.4007 31.1172 30.3591 29.8047 31.6906 28.9245C32.3571 28.484 32.8625 28.1546 33.2096 27.934C33.3841 27.8231 33.5121 27.7439 33.5979 27.6932C33.6417 27.6672 33.6657 27.6539 33.675 27.649C33.7301 27.6199 33.6316 27.6805 33.4899 27.7127L33.0473 25.7623ZM34.3263 26.0282C34.0281 25.7631 33.69 25.7111 33.4758 25.7095C33.2757 25.7079 33.1003 25.7502 33.0473 25.7623L33.4899 27.7127C33.5553 27.6978 33.521 27.7099 33.4602 27.7094C33.3853 27.7088 33.1848 27.6894 32.9977 27.523L34.3263 26.0282ZM34.724 27.3399C34.7604 27.1847 34.7685 26.9978 34.7415 26.8152C34.7145 26.6332 34.6284 26.2966 34.3263 26.0282L32.9977 27.523C32.8067 27.3533 32.7707 27.1596 32.7631 27.1083C32.7577 27.0719 32.7569 27.0412 32.7578 27.0157C32.7585 26.9976 32.7609 26.951 32.7768 26.8831L34.724 27.3399ZM30.0463 32.1597C30.7804 31.4772 31.8653 30.4686 32.7762 29.5917C33.2305 29.1542 33.6498 28.7416 33.9633 28.415C34.1186 28.2531 34.2591 28.1009 34.3676 27.9716C34.4211 27.9079 34.4785 27.836 34.5292 27.7624C34.5544 27.7258 34.6722 27.5605 34.724 27.3399L32.7768 26.8831C32.8034 26.7698 32.8442 26.6933 32.8548 26.6737C32.8702 26.645 32.8815 26.6287 32.8818 26.6283C32.8822 26.6277 32.8698 26.6452 32.8358 26.6857C32.7694 26.7648 32.6645 26.8799 32.5203 27.0301C32.2347 27.3277 31.8381 27.7185 31.389 28.1509C30.493 29.0135 29.4212 30.01 28.6845 30.6949L30.0463 32.1597ZM29.2354 32.9187C29.2344 32.9198 29.2512 32.9029 29.3008 32.8558C29.3448 32.8139 29.4037 32.7584 29.4765 32.6903C29.622 32.5542 29.8165 32.3733 30.0463 32.1597L28.6845 30.6949C28.2467 31.1019 27.8866 31.436 27.7947 31.5315L29.2354 32.9187ZM28.7624 33.3867C28.9064 33.2479 29.0715 33.0889 29.2355 32.9187L27.7947 31.5315C27.6607 31.6707 27.5222 31.8043 27.3744 31.9468L28.7624 33.3867ZM28.6561 34.4161C28.3035 34.1837 28.1676 34.031 28.124 33.9657C28.1034 33.9347 28.142 33.9923 28.1248 34.0793C28.1175 34.1164 28.1146 34.074 28.2384 33.9238C28.3597 33.7768 28.5258 33.6149 28.7624 33.3867L27.3744 31.9468C27.1604 32.1531 26.904 32.3985 26.6956 32.6512C26.4897 32.9008 26.2497 33.2506 26.1626 33.6922C25.9534 34.7524 26.7011 35.523 27.5556 36.0861L28.6561 34.4161ZM30.6848 35.7804C30.0654 35.3586 29.439 34.932 28.6561 34.4161L27.5556 36.0861C28.3244 36.5927 28.9397 37.0117 29.5591 37.4335L30.6848 35.7804ZM32.8942 37.263C32.0294 36.696 31.3611 36.241 30.6848 35.7804L29.559 37.4335C30.2356 37.8943 30.9168 38.3581 31.7978 38.9356L32.8942 37.263ZM33.5682 37.7297C33.3636 37.5839 33.1356 37.4212 32.8942 37.263L31.7978 38.9356C32.0012 39.069 32.198 39.2091 32.4072 39.3583L33.5682 37.7297ZM35.2642 38.5332C34.826 38.5735 34.4303 38.3443 33.5682 37.7297L32.4072 39.3583C33.1195 39.8661 34.1383 40.6453 35.4475 40.5248L35.2642 38.5332ZM35.6714 37.3972C35.5534 38.0281 35.3966 38.3371 35.2962 38.4706C35.2164 38.5768 35.2032 38.5388 35.2642 38.5332L35.4475 40.5248C36.6719 40.4121 37.3531 39.284 37.6373 37.7649L35.6714 37.3972ZM37.8115 23.8263C37.5304 26.7797 36.3015 34.0288 35.6714 37.3972L37.6373 37.7649C38.2661 34.4035 39.5117 27.0711 39.8025 24.0158L37.8115 23.8263ZM37.7895 23.3418C37.7947 23.3718 37.8054 23.4551 37.8117 23.562C37.818 23.67 37.8173 23.7645 37.8115 23.8263L39.8025 24.0158C39.8383 23.6389 39.7959 23.2093 39.7609 23.0044L37.7895 23.3418ZM37.8747 23.4351C37.8537 23.418 37.8348 23.3979 37.8192 23.3767C37.804 23.3561 37.7946 23.338 37.7892 23.326C37.7802 23.3057 37.7826 23.3013 37.7895 23.3418L39.7609 23.0044C39.7249 22.7941 39.619 22.2749 39.1349 21.882L37.8747 23.4351ZM37.7861 23.4375C37.7811 23.4376 37.7917 23.4373 37.8135 23.4395C37.8343 23.4417 37.8569 23.4454 37.8779 23.4504C37.8993 23.4555 37.9111 23.4602 37.914 23.4614C37.9173 23.4629 37.901 23.4564 37.8747 23.4351L39.1349 21.882C38.8622 21.6607 38.5591 21.5569 38.3426 21.5051C38.1197 21.4519 37.9083 21.435 37.7509 21.4378L37.7861 23.4375ZM31.065 25.9495C33.7069 24.8506 35.2789 24.2157 36.2766 23.8536C37.2915 23.4853 37.6085 23.4406 37.7861 23.4375L37.7509 21.4378C37.2139 21.4472 36.6254 21.5994 35.5943 21.9736C34.5461 22.354 32.9316 23.007 30.2969 24.1028L31.065 25.9495Z" fill="white" mask="url(#path-1-inside-1_1901_33328)"/>
</g>
<rect x="0.5" y="0.5" width="58" height="58" rx="9.5" stroke="#424346"/>
<defs>
<clipPath id="clip0_1901_33328">
<rect width="38" height="38" fill="white" transform="translate(11 11)"/>
</clipPath>
</defs>
</svg>
