<svg width="59" height="59" viewBox="0 0 59 59" fill="none" xmlns="http://www.w3.org/2000/svg">
<path d="M17.4126 22.0584H16.9021L16.9127 22.5688C17.0172 27.5838 18.3242 31.6643 20.7665 34.4986C23.2189 37.3444 26.7663 38.8759 31.2192 38.8759H31.7102H32.2102V38.3759V33.2984C34.8886 33.7893 36.9297 35.8525 37.7889 38.5288L37.9004 38.8759H38.265H42.7617H43.4176L43.2439 38.2435C42.1086 34.1098 39.3388 31.6097 37.2454 30.3992C39.2606 28.9732 41.6711 26.2366 42.304 22.6452L42.4074 22.0584H41.8116H37.7265H37.3483L37.2454 22.4223C36.825 23.9086 35.9885 25.3342 34.9614 26.4159C34.1006 27.3225 33.1381 27.9551 32.2102 28.2091V22.5584V22.0584H31.7102H27.625H27.125V22.5584V32.8235C24.9716 31.9316 22.3781 29.0241 22.2508 22.5486L22.2412 22.0584H21.7509H17.4126ZM11.5 29.24C11.5 24.9266 11.5011 21.7419 11.8294 19.2995C12.1559 16.8714 12.7975 15.2519 14.0247 14.0247C15.2519 12.7975 16.8714 12.1559 19.2995 11.8294C21.7419 11.5011 24.9266 11.5 29.24 11.5H30.76C35.0734 11.5 38.2581 11.5011 40.7005 11.8294C43.1286 12.1559 44.7481 12.7975 45.9753 14.0247C47.2025 15.2519 47.8441 16.8714 48.1706 19.2995C48.4989 21.7419 48.5 24.9266 48.5 29.24V30.76C48.5 35.0734 48.4989 38.2581 48.1706 40.7005C47.8441 43.1286 47.2025 44.7481 45.9753 45.9753C44.7481 47.2025 43.1286 47.8441 40.7005 48.1706C38.2581 48.4989 35.0734 48.5 30.76 48.5H29.24C24.9266 48.5 21.7419 48.4989 19.2995 48.1706C16.8714 47.8441 15.2519 47.2025 14.0247 45.9753C12.7975 44.7481 12.1559 43.1286 11.8294 40.7005C11.5011 38.2581 11.5 35.0734 11.5 30.76V29.24Z" stroke="#CECED0"/>
<rect x="0.5" y="0.5" width="58" height="58" rx="9.5" stroke="#424346"/>
</svg>
