<svg width="59" height="59" viewBox="0 0 59 59" fill="none" xmlns="http://www.w3.org/2000/svg">
<path d="M48.169 17.5865L48.1689 17.5866L48.1757 17.5935C48.7238 18.1451 49.1209 19.0986 49.3817 19.9828C49.5087 20.4134 49.5975 20.8063 49.6545 21.0915C49.6829 21.2338 49.7033 21.3485 49.7164 21.4269C49.723 21.4661 49.7277 21.4961 49.7308 21.5159L49.7341 21.5378L49.7343 21.5393L49.7348 21.5433L49.7382 21.5719L49.7514 21.6855C49.7629 21.7853 49.7793 21.9323 49.7991 22.1197C49.8386 22.4945 49.8913 23.0306 49.944 23.6739C50.0497 24.9618 50.1548 26.6737 50.1548 28.3796V31.6121C50.1548 33.3222 50.0496 35.034 49.944 36.3209C49.8913 36.9637 49.8386 37.4989 49.7991 37.873C49.7793 38.0601 49.7629 38.2068 49.7515 38.3064L49.7382 38.4197L49.7348 38.4483L49.7343 38.4522L49.7341 38.4539L49.7308 38.4757C49.7299 38.4812 49.729 38.4874 49.7279 38.4943C49.725 38.5127 49.7212 38.5363 49.7164 38.5647C49.7033 38.6431 49.6829 38.7579 49.6545 38.9002C49.5975 39.1854 49.5087 39.5783 49.3817 40.0088C49.1209 40.8931 48.7238 41.8465 48.1757 42.3982L48.1756 42.3982L48.169 42.4051C46.8383 43.7972 45.393 43.9411 44.483 44.0317C44.3853 44.0415 44.2939 44.0506 44.2093 44.0606C41.2422 44.2715 37.5263 44.3815 34.5455 44.4387C33.0543 44.4672 31.7491 44.4826 30.8169 44.4908C30.3508 44.4949 29.9779 44.4972 29.7217 44.4985L29.4279 44.4997L29.352 44.4999L29.3328 44.5L29.328 44.5L29.3268 44.5H29.3266L29.324 44.4999L29.3002 44.4997L29.207 44.4988L28.8497 44.4951C28.5402 44.4917 28.0941 44.4866 27.5481 44.4793C26.4559 44.4649 24.9644 44.4423 23.3664 44.4095C20.1757 44.3441 16.5884 44.2386 14.8934 44.0795C14.6966 44.0427 14.4741 44.0148 14.2331 43.9845C13.146 43.8478 11.6804 43.6636 10.4775 42.4051L10.4776 42.4051L10.4719 42.3994C9.92732 41.8477 9.53213 40.8939 9.27221 40.0093C9.14566 39.5787 9.05709 39.1857 9.00024 38.9004C8.97187 38.7581 8.95154 38.6432 8.93841 38.5648C8.93185 38.5256 8.9271 38.4956 8.92406 38.4758L8.92076 38.4539L8.92052 38.4523L8.92005 38.4484L8.91661 38.4197L8.90337 38.3062C8.89191 38.2063 8.87549 38.0593 8.85574 37.872C8.81625 37.4972 8.76352 36.9611 8.71077 36.3178C8.60517 35.0298 8.5 33.318 8.5 31.6121V28.3796C8.5 26.6741 8.60721 24.9625 8.71487 23.6747C8.76864 23.0315 8.8224 22.4955 8.86266 22.1207C8.88279 21.9334 8.89954 21.7864 8.91121 21.6866L8.92471 21.5731L8.92821 21.5444L8.92886 21.5392L8.92926 21.5364L8.9325 21.5146C8.93548 21.4948 8.94015 21.4648 8.9466 21.4256C8.95952 21.3473 8.97956 21.2325 9.00761 21.0902C9.0638 20.8051 9.15158 20.4123 9.27756 19.9818C9.53634 19.0976 9.93138 18.1447 10.4791 17.5935L10.4792 17.5935L10.4858 17.5865C11.8165 16.1945 13.2618 16.0505 14.1718 15.9599C14.2696 15.9502 14.3613 15.9411 14.4459 15.9311C17.4124 15.716 21.1259 15.6081 24.1046 15.5541C25.5947 15.527 26.8987 15.5135 27.8302 15.5068C28.2958 15.5034 28.6683 15.5017 28.9243 15.5008C29.0522 15.5004 29.1511 15.5002 29.2178 15.5001L29.2936 15.5L29.3128 15.5L29.3175 15.5L29.3187 15.5H29.319L29.3191 15V15.5H29.3357V15L29.3358 15.5H29.3361L29.3373 15.5L29.3421 15.5L29.3612 15.5L29.437 15.5001C29.5038 15.5002 29.6026 15.5004 29.7306 15.5008C29.9865 15.5017 30.359 15.5034 30.8247 15.5068C31.7561 15.5135 33.0601 15.527 34.5502 15.5541C37.529 15.6081 41.2424 15.716 44.2089 15.9311C44.2936 15.9411 44.3852 15.9502 44.483 15.9599C45.393 16.0505 46.8383 16.1945 48.169 17.5865ZM24.4203 35.536V36.3584L25.1504 35.9799L36.6722 30.0065L37.5255 29.5642L36.6735 29.1194L25.1517 23.1044L24.4203 22.7226V23.5476V35.536Z" stroke="#CECED0"/>
<rect x="0.5" y="0.5" width="58" height="58" rx="9.5" stroke="#424346"/>
</svg>
