<svg width="163" height="40" viewBox="0 0 163 40" fill="none" xmlns="http://www.w3.org/2000/svg">
<path d="M16.2984 39.3098L5.02352 32.8003L9.07104 30.4634L18.3222 35.8046C18.6637 36.0018 19.0845 36.0018 19.4261 35.8046L28.7872 30.3999L32.8347 32.7368L21.4498 39.3098C19.856 40.2301 17.8923 40.2301 16.2984 39.3098Z" fill="#424346"/>
<path d="M28.3111 25.4306L18.967 20.0358L9.62298 25.4306V30.0679L19.0321 24.6356L28.3111 29.9928V25.4306Z" fill="#424346"/>
<path d="M37.9308 11.0343L37.9308 24.0535L33.8833 21.7166V11.0343C33.8833 10.6399 33.6729 10.2755 33.3313 10.0783L23.9702 4.67368V0L35.3551 6.57307C36.9489 7.49328 37.9308 9.19389 37.9308 11.0343Z" fill="#424346"/>
<path d="M19.9047 7.57063V18.3602L29.2488 23.755L33.2648 21.4364L23.8556 16.004V5.28954L19.9047 7.57063Z" fill="#424346"/>
<path d="M1.24863e-06 11.0343L0 24.0535L4.04752 21.7166V11.0343C4.04752 10.6399 4.25792 10.2755 4.59946 10.0783L13.9606 4.67368V0L2.5757 6.57307C0.981852 7.49328 1.77015e-06 9.19389 1.24863e-06 11.0343Z" fill="#424346"/>
<path d="M18.0261 7.57063V18.3602L8.68202 23.755L4.66601 21.4364L14.0751 16.004V5.28954L18.0261 7.57063Z" fill="#424346"/>
<path d="M69.7708 18.0225C69.7708 18.9034 69.645 19.6134 69.3933 20.1527C69.1417 20.674 68.6743 21.0784 67.9912 21.3661C67.3081 21.6357 66.3554 21.8155 65.133 21.9053C63.9287 21.9952 61.8943 22.0402 59.9529 22.0402H57.9483C56.2406 22.0402 54.8655 21.9862 53.8229 21.8784C52.7803 21.7705 51.9713 21.5458 51.3961 21.2043C50.8209 20.8627 50.4344 20.3774 50.2367 19.7482C50.0569 19.1191 49.967 18.2922 49.967 17.2676V16.5665H54.2004V17.1597C54.2004 17.5372 54.2363 17.8338 54.3082 18.0495C54.3801 18.2652 54.5509 18.427 54.8205 18.5349C55.0902 18.6247 55.4766 18.6877 55.98 18.7236C56.5013 18.7416 57.2023 18.7506 58.0831 18.7506H59.845C60.9595 18.7506 62.3108 18.7416 62.9759 18.7236C63.641 18.6877 64.1444 18.6247 64.4859 18.5349C64.8454 18.445 65.0791 18.3102 65.187 18.1304C65.2948 17.9327 65.3487 17.681 65.3487 17.3754V17.1058C65.3487 16.8182 65.3038 16.5935 65.2139 16.4317C65.142 16.2519 65.0072 16.1171 64.8095 16.0272C64.6117 15.9373 64.3421 15.8834 64.0006 15.8654C63.677 15.8475 63.2635 15.8385 62.7602 15.8385H58.8505V12.7107H62.7872C63.65 12.7107 64.2342 12.6208 64.5398 12.441C64.8454 12.2613 64.9982 11.9018 64.9982 11.3625V11.0659C64.9982 10.7962 64.9353 10.5716 64.8095 10.3918C64.7016 10.212 64.4769 10.0772 64.1354 9.98734C63.8118 9.89746 63.3355 9.83454 62.7063 9.79859C62.0951 9.76264 60.8337 9.74466 59.845 9.74466H58.0831C57.2023 9.74466 56.5013 9.75365 55.98 9.77163C55.4766 9.7896 55.0902 9.85252 54.8205 9.96037C54.5509 10.0682 54.3801 10.23 54.3082 10.4457C54.2363 10.6614 54.2004 10.958 54.2004 11.3355V11.8209H50.0479V11.2277C50.0479 10.203 50.1378 9.37616 50.3176 8.747C50.4973 8.11785 50.8658 7.6325 51.4231 7.29096C51.9983 6.94942 52.7982 6.72472 53.8229 6.61686C54.8655 6.50901 56.2406 6.45508 57.9483 6.45508H59.9529C61.8404 6.45508 63.8298 6.50002 64.9982 6.5899C66.1846 6.67978 67.1014 6.86852 67.7485 7.15614C68.4136 7.42578 68.854 7.82124 69.0697 8.34254C69.3034 8.84587 69.4203 9.51098 69.4203 10.3379V10.6884C69.4203 11.3355 69.3753 11.8658 69.2855 12.2793C69.2136 12.6747 69.0697 12.9983 68.854 13.25C68.6563 13.4836 68.3777 13.6724 68.0182 13.8162C67.6766 13.942 67.2452 14.0589 66.7239 14.1667V14.2476C67.2632 14.3375 67.7216 14.4453 68.0991 14.5712C68.4765 14.679 68.7911 14.8498 69.0428 15.0835C69.2944 15.3172 69.4742 15.6228 69.5821 16.0003C69.7079 16.3778 69.7708 16.8541 69.7708 17.4293V18.0225Z" fill="#424346"/>
<path d="M87.353 21.7818H72.3218V6.57422H76.8517V18.2495H87.353V21.7818Z" fill="#424346"/>
<path d="M98.869 22.0402C97.413 22.0402 96.6161 22.0042 95.5556 21.9323C94.513 21.8784 93.6232 21.7615 92.8862 21.5818C92.1491 21.384 91.547 21.1144 91.0796 20.7729C90.6302 20.4313 90.2797 19.9819 90.028 19.4247C89.7763 18.8674 89.6056 18.1843 89.5157 17.3754C89.4258 16.5665 89.3809 15.5958 89.3809 14.4633V14.0319C89.3809 12.8994 89.4258 11.9287 89.5157 11.1198C89.6056 10.3109 89.7763 9.62782 90.028 9.07057C90.2797 8.49534 90.6302 8.03695 91.0796 7.69541C91.547 7.35387 92.1491 7.09322 92.8862 6.91346C93.6232 6.7337 94.513 6.61686 95.5556 6.56293C96.6161 6.49103 97.413 6.45508 98.869 6.45508H99.5367C100.993 6.45508 101.781 6.49103 102.823 6.56293C103.884 6.61686 104.783 6.7337 105.52 6.91346C106.257 7.09322 106.85 7.35387 107.299 7.69541C107.767 8.03695 108.126 8.49534 108.378 9.07057C108.629 9.62782 108.8 10.3109 108.89 11.1198C108.98 11.9287 109.025 12.8994 109.025 14.0319V14.4633C109.025 15.5958 108.98 16.5665 108.89 17.3754C108.8 18.1843 108.629 18.8764 108.378 19.4516C108.126 20.0089 107.767 20.4583 107.299 20.7998C106.85 21.1414 106.257 21.402 105.52 21.5818C104.783 21.7615 103.884 21.8784 102.823 21.9323C101.781 22.0042 100.993 22.0402 99.5367 22.0402H98.869ZM99.3749 18.5079C100.687 18.5079 101.25 18.4719 101.987 18.4C102.742 18.3281 103.3 18.1574 103.659 17.8877C104.037 17.6001 104.261 17.1777 104.333 16.6204C104.423 16.0632 104.468 15.3082 104.468 14.3555V14.1128C104.468 13.1421 104.423 12.3781 104.333 11.8209C104.261 11.2456 104.037 10.8232 103.659 10.5536C103.3 10.266 102.742 10.0862 101.987 10.0143C101.25 9.9424 100.687 9.90644 99.3749 9.90644H99.0308C97.7006 9.90644 97.1285 9.9424 96.3914 10.0143C95.6544 10.0862 95.0972 10.266 94.7197 10.5536C94.3602 10.8232 94.1355 11.2456 94.0456 11.8209C93.9737 12.3781 93.9377 13.1421 93.9377 14.1128V14.3555C93.9377 15.3082 93.9737 16.0632 94.0456 16.6204C94.1355 17.1777 94.3602 17.6001 94.7197 17.8877C95.0972 18.1574 95.6544 18.3281 96.3914 18.4C97.1285 18.4719 97.7006 18.5079 99.0308 18.5079H99.3749Z" fill="#424346"/>
<path d="M121.533 22.0402C119.376 22.0402 117.65 21.9593 116.356 21.7975C115.061 21.6177 114.064 21.2582 113.363 20.7189C112.68 20.1796 112.23 19.4157 112.014 18.427C111.799 17.4204 111.691 16.0991 111.691 14.4633V14.0319C111.691 12.9354 111.736 11.9827 111.826 11.1737C111.916 10.3648 112.086 9.68175 112.338 9.12449C112.608 8.56724 112.967 8.11785 113.417 7.7763C113.866 7.41679 114.45 7.13816 115.169 6.94043C115.906 6.74269 116.796 6.61686 117.839 6.56293C118.881 6.49103 120.113 6.45508 121.533 6.45508H122.679C124.476 6.45508 125.932 6.51799 127.047 6.64383C128.179 6.76966 129.06 7.01233 129.689 7.37185C130.336 7.71339 130.777 8.20773 131.01 8.85486C131.244 9.48401 131.361 10.3019 131.361 11.3086V11.4403H126.966C126.966 10.9235 126.636 10.4703 126.157 10.2839C125.833 10.1401 125.375 10.0413 124.782 9.98734C124.206 9.91543 123.452 9.87948 122.517 9.87948H121.694C120.4 9.87948 119.385 9.91543 118.648 9.98734C117.911 10.0592 117.362 10.239 117.003 10.5266C116.643 10.8142 116.419 11.2456 116.329 11.8209C116.239 12.3781 116.194 13.1421 116.194 14.1128V14.3824C116.194 15.3352 116.239 16.0901 116.329 16.6474C116.419 17.1867 116.643 17.6001 117.003 17.8877C117.362 18.1753 117.911 18.3551 118.648 18.427C119.385 18.4989 120.4 18.5349 121.694 18.5349H122.517C123.559 18.5349 124.386 18.5079 124.997 18.454C125.627 18.4 126.103 18.3012 126.427 18.1574C126.75 17.9956 126.957 17.7889 127.047 17.5372C127.137 17.2855 127.181 16.953 127.181 16.5395V16.1351H123.473L123.5 13.1691H131.523V16.5665C131.523 17.681 131.406 18.5888 131.172 19.2898C130.938 19.9909 130.498 20.5482 129.851 20.9616C129.204 21.375 128.305 21.6627 127.155 21.8244C126.004 21.9682 124.512 22.0402 122.679 22.0402H121.533Z" fill="#424346"/>
<path d="M139.516 21.7818H134.959V6.57422H139.516V21.7818Z" fill="#424346"/>
<path d="M152.358 22.0402C150.255 22.0402 148.556 21.9593 147.262 21.7975C145.968 21.6357 144.961 21.2942 144.242 20.7729C143.541 20.2336 143.073 19.4696 142.84 18.4809C142.606 17.4743 142.489 16.1351 142.489 14.4633V14.0319C142.489 12.3781 142.597 11.0569 142.813 10.0682C143.047 9.06158 143.514 8.2976 144.215 7.7763C144.916 7.23703 145.914 6.8865 147.208 6.72472C148.502 6.54496 150.219 6.45508 152.358 6.45508H153.504C155.373 6.45508 156.874 6.52698 158.007 6.67079C159.157 6.8146 160.038 7.07525 160.649 7.45274C161.26 7.83023 161.665 8.35153 161.863 9.01664C162.06 9.66377 162.159 10.4996 162.159 11.5243V11.9018H157.764C157.764 11.5422 157.728 11.2367 157.656 10.985C157.584 10.7333 157.396 10.5266 157.09 10.3648C156.802 10.203 156.362 10.0862 155.769 10.0143C155.194 9.9424 154.385 9.90644 153.342 9.90644H152.52C151.244 9.90644 150.237 9.9424 149.5 10.0143C148.781 10.0862 148.233 10.266 147.855 10.5536C147.496 10.8232 147.271 11.2367 147.181 11.7939C147.091 12.3512 147.046 13.1241 147.046 14.1128V14.3824C147.046 15.3531 147.091 16.1171 147.181 16.6744C147.271 17.2136 147.496 17.6181 147.855 17.8877C148.233 18.1574 148.781 18.3281 149.5 18.4C150.237 18.4719 151.244 18.5079 152.52 18.5079H153.18C154.259 18.5079 155.104 18.4809 155.715 18.427C156.326 18.3551 156.784 18.2383 157.09 18.0765C157.527 17.845 157.791 17.334 157.791 16.8501L157.791 16.4963H162.159V16.944C162.159 17.9147 162.06 18.7326 161.863 19.3977C161.665 20.0448 161.251 20.5661 160.622 20.9616C159.993 21.3571 159.094 21.6357 157.926 21.7975C156.775 21.9593 155.248 22.0402 153.342 22.0402H152.358Z" fill="#424346"/>
<path d="M60.0855 31.7393C60.0855 32.5398 60.0361 33.1829 59.9371 33.6686C59.8382 34.1543 59.6178 34.5275 59.276 34.7884C58.9433 35.0492 58.4531 35.2246 57.8055 35.3145C57.1669 35.3955 56.308 35.436 55.2287 35.436H49.967V27.8269H55.2287C56.29 27.8269 57.1399 27.8673 57.7785 27.9483C58.4171 28.0202 58.9073 28.1866 59.2491 28.4475C59.5908 28.6993 59.8157 29.0726 59.9236 29.5672C60.0316 30.0529 60.0855 30.705 60.0855 31.5235V31.7393ZM55.0398 33.6686C55.6874 33.6686 56.1955 33.6506 56.5643 33.6146C56.942 33.5697 57.2254 33.4797 57.4142 33.3448C57.6031 33.2009 57.72 32.9985 57.765 32.7377C57.819 32.4679 57.846 32.1126 57.846 31.6719V31.537C57.846 31.0873 57.819 30.732 57.765 30.4712C57.72 30.2013 57.6031 29.999 57.4142 29.864C57.2254 29.7291 56.942 29.6437 56.5643 29.6077C56.1955 29.5627 55.6874 29.5403 55.0398 29.5403H52.2336V33.6686H55.0398Z" fill="#424346"/>
<path d="M64.2886 35.436H62.0086V27.8269H64.2886V35.436Z" fill="#424346"/>
<path d="M75.6774 33.1289C75.6774 33.6056 75.6279 33.9969 75.529 34.3027C75.439 34.6085 75.2411 34.8558 74.9353 35.0447C74.6295 35.2246 74.1933 35.3505 73.6267 35.4225C73.069 35.4944 72.327 35.5304 71.4006 35.5304H71.0498C69.9705 35.5304 69.1161 35.4989 68.4865 35.436C67.8569 35.382 67.3802 35.2696 67.0564 35.0987C66.7416 34.9278 66.5392 34.6939 66.4493 34.3971C66.3684 34.0913 66.3279 33.7001 66.3279 33.2234V32.9401H68.5674V33.1424C68.5674 33.3043 68.5944 33.4347 68.6484 33.5337C68.7024 33.6236 68.8103 33.6956 68.9722 33.7495C69.1341 33.8035 69.3634 33.8395 69.6602 33.8575C69.966 33.8755 70.3708 33.8845 70.8745 33.8845H71.1578C71.6974 33.8845 72.1202 33.8755 72.426 33.8575C72.7408 33.8395 72.9746 33.8035 73.1275 33.7495C73.2804 33.6956 73.3748 33.6236 73.4108 33.5337C73.4468 33.4437 73.4648 33.3268 73.4648 33.1829V33.1424C73.4648 32.9895 73.4423 32.8681 73.3973 32.7782C73.3614 32.6792 73.2624 32.6073 73.1005 32.5623C72.9386 32.5083 72.6913 32.4724 72.3585 32.4544C72.0347 32.4364 71.585 32.4274 71.0094 32.4274C70.3078 32.4274 69.7052 32.4184 69.2015 32.4004C68.7069 32.3734 68.2841 32.3285 67.9333 32.2655C67.5916 32.1935 67.3172 32.1036 67.1104 31.9957C66.9125 31.8877 66.7551 31.7483 66.6382 31.5774C66.5303 31.4066 66.4583 31.2042 66.4223 30.9703C66.3953 30.7275 66.3818 30.4442 66.3818 30.1204V30.0664C66.3818 29.5897 66.4313 29.203 66.5303 28.9062C66.6292 28.6004 66.8226 28.362 67.1104 28.1911C67.4072 28.0112 67.8209 27.8898 68.3516 27.8269C68.8912 27.7639 69.5928 27.7324 70.4562 27.7324H70.9149C71.9583 27.7324 72.7812 27.7729 73.3838 27.8538C73.9864 27.9258 74.4407 28.0517 74.7465 28.2316C75.0613 28.4025 75.2591 28.6318 75.3401 28.9197C75.421 29.2075 75.4615 29.5627 75.4615 29.9855V30.2148H73.2219V30.0934C73.2219 29.9585 73.204 29.8416 73.168 29.7426C73.132 29.6437 73.0466 29.5672 72.9116 29.5133C72.7857 29.4503 72.5923 29.4053 72.3315 29.3784C72.0707 29.3514 71.7109 29.3379 71.2522 29.3379H70.9149C70.3753 29.3379 69.9525 29.3469 69.6467 29.3649C69.3409 29.3829 69.1116 29.4188 68.9587 29.4728C68.8058 29.5178 68.7069 29.5897 68.6619 29.6887C68.6259 29.7786 68.6079 29.9045 68.6079 30.0664V30.1069C68.6079 30.2418 68.6259 30.3542 68.6619 30.4442C68.7069 30.5251 68.8148 30.5881 68.9857 30.6331C69.1566 30.669 69.4174 30.696 69.7682 30.714C70.1279 30.723 70.6181 30.7275 71.2387 30.7275C72.2101 30.7275 72.9881 30.7545 73.5727 30.8084C74.1573 30.8624 74.6026 30.9748 74.9084 31.1457C75.2232 31.3076 75.43 31.546 75.529 31.8608C75.6279 32.1666 75.6774 32.5713 75.6774 33.075V33.1289Z" fill="#424346"/>
<path d="M82.6115 35.436H80.3584V29.5403H77.08V27.8269H85.9033V29.5403H82.6115V35.436Z" fill="#424346"/>
<path d="M92.4942 31.6584C92.8809 31.6584 93.1912 31.6494 93.4251 31.6314C93.6589 31.6044 93.8343 31.555 93.9512 31.483C94.0771 31.4111 94.1581 31.3076 94.1941 31.1727C94.2301 31.0378 94.248 30.8624 94.248 30.6465V30.5116C94.248 30.2958 94.2301 30.1249 94.1941 29.999C94.1581 29.864 94.0771 29.7606 93.9512 29.6887C93.8343 29.6077 93.6589 29.5582 93.4251 29.5403C93.1912 29.5133 92.8809 29.4998 92.4942 29.4998H89.6745V31.6584H92.4942ZM96.5281 35.436H94.2885V34.8154C94.2885 34.4826 94.2615 34.2172 94.2076 34.0194C94.1626 33.8215 94.0592 33.6731 93.8973 33.5742C93.7354 33.4662 93.497 33.3988 93.1822 33.3718C92.8764 33.3358 92.4627 33.3178 91.941 33.3178H89.6745V35.436H87.4349V27.8269H93.3981C94.0277 27.8269 94.5448 27.8673 94.9496 27.9483C95.3543 28.0202 95.6736 28.1462 95.9075 28.326C96.1413 28.5059 96.3032 28.7443 96.3932 29.0411C96.4831 29.3289 96.5281 29.6932 96.5281 30.1339V30.4037C96.5281 30.9973 96.4246 31.4515 96.2178 31.7663C96.0199 32.0811 95.6781 32.297 95.1924 32.4139V32.4544C95.4623 32.4993 95.6826 32.5578 95.8535 32.6298C96.0334 32.6927 96.1728 32.7917 96.2717 32.9266C96.3707 33.0615 96.4381 33.2369 96.4741 33.4527C96.5101 33.6686 96.5281 33.9429 96.5281 34.2757V35.436Z" fill="#424346"/>
<path d="M100.834 35.436H98.5542V27.8269H100.834V35.436Z" fill="#424346"/>
<path d="M102.941 35.436V27.8269H109.133C109.718 27.8269 110.204 27.8583 110.591 27.9213C110.986 27.9843 111.301 28.0922 111.535 28.2451C111.769 28.389 111.935 28.5824 112.034 28.8252C112.133 29.0681 112.183 29.3694 112.183 29.7291C112.183 30.2598 112.088 30.6555 111.899 30.9164C111.71 31.1772 111.449 31.3571 111.117 31.456V31.483C111.539 31.555 111.863 31.7303 112.088 32.0092C112.313 32.288 112.425 32.6972 112.425 33.2369C112.425 33.6686 112.371 34.0284 112.263 34.3162C112.156 34.595 111.989 34.8199 111.764 34.9907C111.539 35.1526 111.256 35.2696 110.914 35.3415C110.573 35.4045 110.168 35.436 109.7 35.436H102.941ZM109.309 33.817C109.651 33.817 109.884 33.754 110.01 33.6281C110.145 33.4932 110.213 33.2953 110.213 33.0345C110.213 32.7647 110.145 32.5713 110.01 32.4544C109.884 32.3375 109.651 32.279 109.309 32.279H105.181V33.817H109.309ZM109.255 30.8219C109.489 30.8219 109.669 30.7725 109.795 30.6735C109.929 30.5746 109.997 30.3902 109.997 30.1204C109.997 29.8326 109.929 29.6392 109.795 29.5403C109.669 29.4413 109.489 29.3919 109.255 29.3919H105.181V30.8219H109.255Z" fill="#424346"/>
<path d="M118.819 35.5304C117.883 35.5304 117.114 35.4944 116.512 35.4225C115.918 35.3415 115.45 35.1976 115.108 34.9907C114.767 34.7749 114.528 34.4871 114.393 34.1273C114.267 33.7675 114.205 33.3043 114.205 32.7377V27.8269H116.471V32.0092C116.471 32.3959 116.494 32.7062 116.539 32.9401C116.592 33.1739 116.7 33.3538 116.862 33.4797C117.024 33.5966 117.258 33.6731 117.564 33.7091C117.879 33.745 118.301 33.763 118.832 33.763H119.021C119.552 33.763 119.974 33.745 120.289 33.7091C120.604 33.6641 120.842 33.5832 121.004 33.4662C121.166 33.3403 121.269 33.1649 121.314 32.9401C121.359 32.7062 121.382 32.3959 121.382 32.0092V27.8269H123.648V32.7377C123.648 33.3043 123.585 33.7675 123.46 34.1273C123.334 34.4871 123.1 34.7749 122.758 34.9907C122.425 35.1976 121.958 35.3415 121.355 35.4225C120.761 35.4944 119.992 35.5304 119.048 35.5304H118.819Z" fill="#424346"/>
<path d="M130.724 35.436H128.471V29.5403H125.193V27.8269H134.016V29.5403H130.724V35.436Z" fill="#424346"/>
<path d="M137.828 35.436H135.548V27.8269H137.828V35.436Z" fill="#424346"/>
<path d="M144.737 35.5304C144.009 35.5304 143.379 35.5124 142.849 35.4764C142.327 35.4494 141.882 35.391 141.513 35.301C141.144 35.2021 140.843 35.0672 140.609 34.8963C140.384 34.7254 140.209 34.5006 140.083 34.2217C139.957 33.9429 139.872 33.6011 139.827 33.1964C139.782 32.7917 139.759 32.306 139.759 31.7393V31.5235C139.759 30.9568 139.782 30.4712 139.827 30.0664C139.872 29.6617 139.957 29.3199 140.083 29.0411C140.209 28.7533 140.384 28.5239 140.609 28.353C140.843 28.1821 141.144 28.0517 141.513 27.9618C141.882 27.8718 142.327 27.8134 142.849 27.7864C143.379 27.7504 144.009 27.7324 144.737 27.7324H145.088C145.817 27.7324 146.442 27.7504 146.964 27.7864C147.494 27.8134 147.944 27.8718 148.313 27.9618C148.681 28.0517 148.978 28.1821 149.203 28.353C149.437 28.5239 149.617 28.7533 149.743 29.0411C149.869 29.3199 149.954 29.6617 149.999 30.0664C150.044 30.4712 150.067 30.9568 150.067 31.5235V31.7393C150.067 32.306 150.044 32.7917 149.999 33.1964C149.954 33.6011 149.869 33.9474 149.743 34.2352C149.617 34.5141 149.437 34.7389 149.203 34.9098C148.978 35.0807 148.681 35.2111 148.313 35.301C147.944 35.391 147.494 35.4494 146.964 35.4764C146.442 35.5124 145.817 35.5304 145.088 35.5304H144.737ZM145.007 33.763C145.664 33.763 146.177 33.745 146.545 33.7091C146.923 33.6731 147.202 33.5876 147.382 33.4527C147.571 33.3088 147.683 33.0975 147.719 32.8186C147.764 32.5398 147.786 32.1621 147.786 31.6854V31.564C147.786 31.0783 147.764 30.696 147.719 30.4172C147.683 30.1294 147.571 29.918 147.382 29.7831C147.202 29.6392 146.923 29.5493 146.545 29.5133C146.177 29.4773 145.664 29.4593 145.007 29.4593H144.818C144.153 29.4593 143.636 29.4773 143.267 29.5133C142.898 29.5493 142.619 29.6392 142.43 29.7831C142.251 29.918 142.138 30.1294 142.093 30.4172C142.057 30.696 142.039 31.0783 142.039 31.564V31.6854C142.039 32.1621 142.057 32.5398 142.093 32.8186C142.138 33.0975 142.251 33.3088 142.43 33.4527C142.619 33.5876 142.898 33.6731 143.267 33.7091C143.636 33.745 144.153 33.763 144.818 33.763H145.007Z" fill="#424346"/>
<path d="M162.094 35.436H158.708L154.256 29.7426H154.202V35.436H151.989V27.8269H155.43L159.828 33.5202H159.868V27.8269H162.094V35.436Z" fill="#424346"/>
</svg>
