<svg width="163" height="51" viewBox="0 0 163 51" fill="none" xmlns="http://www.w3.org/2000/svg"><path d="M14.437 21.04h2.756l5.252 18.584h-2.288l-1.482-5.34h-5.902l-1.38 5.34H9.106l5.332-18.584zm1.354 1.496h-.051l-2.471 9.885h4.941l-2.42-9.885zm10.347 11.203c0 2.735.78 4.466 3.536 4.466 2.106 0 3.565-.903 3.565-3.097 0-2.399-1.145-2.996-3.043-3.717l-2.759-1.032c-1.715-.645-3.018-1.935-3.018-4.879 0-2.944 2.055-4.8 5.098-4.8 3.25 0 5.176 1.833 5.332 5.241h-2.083c0-2.039-1.011-3.38-3.095-3.38-2.313 0-3.094 1.392-3.094 2.942 0 1.703.441 2.452 1.638 2.89l2.992 1.109c2.967 1.112 4.187 2.865 4.187 5.317 0 3.51-2.186 5.267-5.774 5.267s-5.565-2.323-5.565-6.322h2.077l.006-.005zm17.323 5.885h-2.08V22.898H36.52V21.04H48.3v1.858h-4.836l-.003 16.726zm9.233 0h-2.08V21.04h5.693c3.277 0 5.437 1.575 5.437 5.062 0 2.119-1.222 3.977-3.382 4.285v.05c1.977.233 3.2 1.913 3.2 4.21 0 3.871.339 4.001.624 4.567v.413H60.08c-.416-1.21-.599-2.297-.599-4.31 0-2.452-1.09-3.87-3.408-3.87h-3.38v8.177zm0-10.043h3.613c1.456 0 3.277-.67 3.277-3.408 0-2.681-1.536-3.278-3.354-3.278h-3.536v6.686zm17.001-8.541h2.756l5.255 18.584h-2.289l-1.482-5.34h-5.904l-1.38 5.34h-2.288l5.332-18.584zm1.354 1.496h-.052l-2.47 9.885h4.941l-2.42-9.885zm18.522 15.23h7.643v1.858h-9.726V21.04h2.08v16.726h.003zm12.249 1.858h-2.08V21.04h2.08v18.584zm7.184-18.584l5.306 15.202c.234.644.416 1.187.65 2.044h.077c-.026-.673-.077-1.397-.077-2.067v-15.18h2.08v18.585h-3.408l-5.227-14.865c-.31-.852-.521-1.677-.701-2.786h-.051c.026.928.051 1.884.051 2.837v14.814h-2.08V21.04h3.38zm13.938 0v13.372c0 1.445.208 3.795 3.539 3.795 3.326 0 3.534-2.35 3.534-3.795V21.04h2.08v14.118c0 3.304-2.211 4.905-5.614 4.905-3.408 0-5.617-1.598-5.617-4.905V21.04h2.078zm14.24 0l3.929 7.251 3.927-7.251h2.314l-5.018 9.036 5.124 9.548h-2.366l-3.978-7.77-4.058 7.77h-2.314l5.175-9.548-5.044-9.036h2.309z" fill="#424346"/><path d="M109.525 48.03H9.242c-3.947 0-7.145-3.176-7.145-7.09V19.036c0-3.914 3.198-7.087 7.142-7.087h64.449c.578 0 1.048-.467 1.048-1.041 0-.574-.47-1.041-1.049-1.041H9.243c-5.104 0-9.24 4.107-9.24 9.17v21.901c0 5.066 4.139 9.173 9.242 9.173h100.284V48.03h-.003z" fill="#424346"/><path d="M152.855 9.868H88.44c-.578 0-1.048.467-1.048 1.04 0 .575.47 1.042 1.048 1.042h64.418c3.946 0 7.144 3.173 7.144 7.09v21.9c0 3.917-3.2 7.093-7.147 7.093h-43.33v2.076h43.33c5.095 0 9.238-4.11 9.238-9.172V19.04c0-5.057-4.143-9.172-9.238-9.172z" fill="#424346"/><path d="M89.156 6.516l-5.5-.939-2.08-4.37-.524-1.1-2.61 5.467-5.503.94 3.93 4.228-.881 5.996 5.06-2.758 5.062 2.758-.886-5.996c.7-.755 3.089-3.323 3.205-3.448l.727-.778zm-4.634 3.957l.747 5.006-4.22-2.3-4.224 2.3.75-5.009-3.289-3.535 4.597-.79 2.163-4.533 2.16 4.534 4.6.789-3.284 3.538z" fill="#424346"/><path d="M77.95 11.395l1.525 2.06.656-.357-2.534-5.21 3.337 4.771.114-.062 1.166.636-2.565-5.608 4.369 6.593.592.32-.097-.637-2.815-6.536 2.42 3.835-.132-.894.741-.794-.98-2.407 1.265 2.101 1.796-1.932-3.942-.673-1.818-3.81-1.818 3.81-3.94.673 2.82 3.032-.16 1.09zm-.159 1.089l-.302 2.053 1.066-.58-.764-1.473zm75.722 10.912a2.43 2.43 0 01-2.439 2.438 2.446 2.446 0 01-2.457-2.438c0-1.335 1.1-2.421 2.454-2.421 1.342 0 2.442 1.086 2.442 2.42zm-4.528 0c0 1.156.923 2.078 2.08 2.078a2.06 2.06 0 002.075-2.073 2.06 2.06 0 00-2.075-2.064c-1.16 0-2.08.913-2.08 2.059zm1.165-1.364h1.203c.467 0 .977.15.977.73 0 .549-.416.744-.866.744l.818 1.253h-.402l-.775-1.253h-.604v1.253h-.351v-2.727zm.351 1.216h.806c.254 0 .67-.045.67-.497 0-.408-.373-.458-.704-.458h-.772v.956z" fill="#424346"/></svg>