<svg width="119" height="86" viewBox="0 0 119 86" fill="none" xmlns="http://www.w3.org/2000/svg"><path d="M115.107 80.73c-1.895-.984-3.529-.146-3.043-4.555.346-3.158-1.433-5.6-3.838-7.191-2.551-1.689-5.752-2.06-8.558-3.158a27.666 27.666 0 01-1.349-.571c-2.065-.93-4.227-2.308-5.86-3.894a29.414 29.414 0 01-1.427-1.512c-.31-4.926 1.323-10.034 1.511-14.194.067-1.482-.048-2.988-.279-4.452-.474-2.994-2.605-6.547-.528-9.31.243-.323.516-.541.874-.881 1.1-1.051 2.144-2.4 2.314-3.96.043-.365.037-.662.055-.875.298-.334.474-.844.42-1.282a.983.983 0 00-.268-.57c-.158-.152-.383-.255-.699-.28.03.085.049.176.061.273a.966.966 0 01-.018.292c-.03.152-.097.304-.213.462-.036.054-.085.103-.133.158.012-.055.012-.11.012-.164a.696.696 0 00-.018-.158 1.066 1.066 0 00-.207-.425 2.26 2.26 0 00-.334-.347c-.006-.006-.012-.012-.018-.012a8.21 8.21 0 01-1.525.097 16.954 16.954 0 01-1.05-.054c-.76-.061-1.64-.17-2.74-.304-1.87-.23-3.777-.37-5.63.073-2.63.631-4.707 2.411-5.588 5.005-.637 1.876-.759 3.868-1.178 5.794-.255 1.178-1.208 2.873-3.23 5.32-2.078.401-4.532.037-5.224-.073a12.196 12.196 0 01-.68-.127 2.29 2.29 0 00-.195.23c-.115.165-.2.34-.225.529a.77.77 0 00.025.286c-.431-.371-.474-.772-.377-1.112a.94.94 0 01.049-.14c-.024-.006-.055-.018-.08-.024-.266-.097-.473-.11-.63-.055a.563.563 0 00-.341.316c-.03.067-.055.134-.073.195-.018.066-.03.127-.036.194a1.08 1.08 0 00.012.37c.012.061.024.122.042.177a2.156 2.156 0 00.219.443l.067.103c.291.407.887 1.251 2.709 2.017-.535.097-1.622-.086-2.843-1.112-1.488 2.017 2.387 4.367 3.76 5.4.121 2.235-1.312 4.032-2.46 5.071-2.065 1.852-4.731 3.128-7.015 4.689-3.019 2.065-5.782 4.354-7.86 7.397a9.449 9.449 0 00-.916 1.683c-.741 1.737-.966 3.632-.772 5.46.25 2.38.905 5.102-1.603 6.56-.978.57-6.402 1.973-7.92 6.073 3.796-2.053 6.013-.777 8.88-1.367 2.58-.534 4.02-2.429 3.838-4.555.164 2.278 1.136 4.398 3.377 5.266 1.172.456 2.466.559 3.71.437 1.124-.109 2.266-.595 3.408-.388 2.411.45 4.695 1.087 7.125.437a29.033 29.033 0 002.046-.626c1.106.383 2.199.699 3.262.936a23.31 23.31 0 004.816.583c1.89.018 3.675-.219 5.308-.717a14.313 14.313 0 002.217-.893 21.442 21.442 0 002.97.37c.116 0 .292 0 .498-.011.45.2 1.015.43 1.622.437.692.006 1.276-.273 1.689-.82.376-.498.461-1.1.236-1.646a1.916 1.916 0 00-.218-.389 2.536 2.536 0 00-.17-.826c2.502.353 5.102-.024 7.045-.516-.844 2.241-3.99 2.988-6.116 2.581 1.75 1.652 4.318 1.944 6.578 1.391 1.257-.31 2.447-.874 3.449-1.7.82-.668 1.61-1.67 2.8-1.33.705.2 1.021.813 1.507 1.3a5.433 5.433 0 002.107 1.287c2.217.753 4.403-.304 6.76.759-.777-1.664-1.998-2.891-3.893-3.875z" fill="#000203"/><path d="M75.44 65.668c-.505-.401-.918-.255-.918-.255-.054.23.292.65.54 1.287.25.638.76.948.906.298.146-.644-.213-1.075-.529-1.33zm-4.738-.62c.012-.006.025-.018.043-.024a2.59 2.59 0 01.747-.255c.2-.043.316-.067.267-.152-.036-.061-.146-.128-.304-.17a1.402 1.402 0 00-1.008.121c-.553.31-.844.747-.747.917.103.17.474-.133 1.002-.437zm2.765 1.755a.71.71 0 00-.152-.394c.285-.019.492-.11.534-.262.067-.267-.389-.613-1.026-.777-.608-.158-1.148-.085-1.257.152-.007.012-.019.024-.019.036-.018.067.006.14.049.213a.768.768 0 00.152.17h-.006a.4.4 0 00-.116.055.982.982 0 00-.182.127c-.152-.006-.377 0-.613.024-.365.037-.766.122-1.027.328a5.177 5.177 0 011.36.037c-.011.03-.024.055-.036.085-.06.012-.14.03-.225.055-.406.103-1.062.322-1.354.698a5.213 5.213 0 011.415-.304h.012c0 .012-.006.019-.006.03-.006.031-.018.068-.024.098-.31.121-1.16.504-1.433 1.02a4.813 4.813 0 011.372-.546c-.012.316.061.57.182.765-.17.036-.297.121-.346.243-.09.261.2.601.65.76.03.011.055.011.085.017.346.097.662.061.814-.097a.245.245 0 00.085-.11c.043-.127 0-.266-.11-.4.274-.073.541-.237.748-.492.146.164.516.613.814 1.318.097-.626-.438-1.53-.571-1.737.012-.03.024-.067.036-.103.188.151.614.528 1.008 1.142-.012-.644-.722-1.458-.868-1.622a.176.176 0 00.012-.055c.25.122.699.377 1.178.82-.145-.546-.832-1.081-1.135-1.294z" fill="#424346"/><path d="M115.107 80.73c-1.895-.984-3.529-.146-3.043-4.555.346-3.158-1.433-5.6-3.838-7.191-2.551-1.689-5.752-2.06-8.558-3.158a27.666 27.666 0 01-1.349-.571c-2.065-.93-4.227-2.308-5.86-3.894a29.414 29.414 0 01-1.427-1.512c-.31-4.926 1.323-10.034 1.511-14.194.067-1.482-.048-2.988-.279-4.452-.474-2.994-2.605-6.547-.528-9.31.243-.323.516-.541.874-.881 1.1-1.051 2.144-2.4 2.314-3.96.043-.365.037-.662.055-.875.298-.334.474-.844.42-1.282a.983.983 0 00-.268-.57c-.158-.152-.383-.255-.699-.28.03.085.049.176.061.273a.966.966 0 01-.018.292c-.03.152-.097.304-.213.462-.036.054-.085.103-.133.158.012-.055.012-.11.012-.164a.696.696 0 00-.018-.158 1.066 1.066 0 00-.207-.425 2.26 2.26 0 00-.334-.347c-.006-.006-.012-.012-.018-.012a8.21 8.21 0 01-1.525.097 16.954 16.954 0 01-1.05-.054c-.76-.061-1.64-.17-2.74-.304-1.87-.23-3.777-.37-5.63.073-2.63.631-4.707 2.411-5.588 5.005-.637 1.876-.759 3.868-1.178 5.794-.255 1.178-1.208 2.873-3.23 5.32-2.078.401-4.532.037-5.224-.073a12.196 12.196 0 01-.68-.127 2.29 2.29 0 00-.195.23c-.115.165-.2.34-.225.529a.77.77 0 00.025.286c-.431-.371-.474-.772-.377-1.112a.94.94 0 01.049-.14c-.024-.006-.055-.018-.08-.024-.266-.097-.473-.11-.63-.055a.563.563 0 00-.341.316c-.03.067-.055.134-.073.195-.018.066-.03.127-.036.194a1.08 1.08 0 00.012.37c.012.061.024.122.042.177a2.156 2.156 0 00.219.443l.067.103c.291.407.887 1.251 2.709 2.017-.535.097-1.622-.086-2.843-1.112-1.488 2.017 2.387 4.367 3.76 5.4.121 2.235-1.312 4.032-2.46 5.071-2.065 1.852-4.731 3.128-7.015 4.689-3.019 2.065-5.782 4.354-7.86 7.397a9.449 9.449 0 00-.916 1.683c-.741 1.737-.966 3.632-.772 5.46.25 2.38.905 5.102-1.603 6.56-.978.57-6.402 1.973-7.92 6.073 3.796-2.053 6.013-.777 8.88-1.367 2.58-.534 4.02-2.429 3.838-4.555.164 2.278 1.136 4.398 3.377 5.266 1.172.456 2.466.559 3.71.437 1.124-.109 2.266-.595 3.408-.388 2.411.45 4.695 1.087 7.125.437a29.033 29.033 0 002.046-.626c1.106.383 2.199.699 3.262.936a23.31 23.31 0 004.816.583c1.89.018 3.675-.219 5.308-.717a14.313 14.313 0 002.217-.893 21.442 21.442 0 002.97.37c.116 0 .292 0 .498-.011.45.2 1.015.43 1.622.437.692.006 1.276-.273 1.689-.82.376-.498.461-1.1.236-1.646a1.916 1.916 0 00-.218-.389 2.536 2.536 0 00-.17-.826c2.502.353 5.102-.024 7.045-.516-.844 2.241-3.99 2.988-6.116 2.581 1.75 1.652 4.318 1.944 6.578 1.391 1.257-.31 2.447-.874 3.449-1.7.82-.668 1.61-1.67 2.8-1.33.705.2 1.021.813 1.507 1.3a5.426 5.426 0 002.107 1.287c2.217.753 4.404-.304 6.76.759-.777-1.664-1.998-2.891-3.893-3.875zM76.546 35.72c.759-1.537 1.141-3.262 1.567-4.556.042-.127.09-.249.133-.376.656.255 1.482-.207 1.865-1.07.334-.74.23-1.53-.207-1.936 1.55-1.974 3.79-3.292 6.493-2.995 2.618.286 3.869.304 6.827-.152-.942 1.094-2.721 1.221-3.881 1.033.31.261.455.552.455.552s-.99 2.363-3.571.966c1.1.298 2.016.407 2.921-1.142-1.105-.947-2.611-.443-2.945.037-.438.632-1.045.838-1.914 1.75-.868.91-1.202 2.647-1.202 2.647s-.359-.674.249-2.217a8.6 8.6 0 00-2.32 3.061c-.717 1.555-1.015 5.697 1.063 9.396-1.203-1.063-2.272-2.818-2.418-5.314-1.372 3.662 1.871 7.313 3.365 10.386 1.494 3.073 1.907 4.755 2.484 6.11 1.027 2.423 1.75 3.717 3.098 5.442-2.6-1.61-4.337-6.942-5.436-9.275a12.465 12.465 0 01-.23-.498c-.839-1.785-1.774-3.68-3.238-5.04a8.237 8.237 0 00-.723-.602c-1.063-.778-2.648-1.877-5.484-1.822.808-1.045 1.682-1.616 3.049-4.385zm10.817-9.311a.488.488 0 00.303.352c-.024.012-.036.037-.06.049-.316.182-.626.121-.693-.134-.067-.261.14-.62.456-.802.018-.012.036-.012.06-.024a.828.828 0 00-.066.559zM58.027 72.482c-2.101.863-3.808 2.096-5.096 4.003.195-.292-1.287-4.009-1.354-4.659-.862-8.163 6.76-11.995 12.518-15.688 4.02-2.581 5.697-5.09 5.266-7.823 1.797 1.75 2.708 4.155 2.259 7.477-.565 4.19-.006 5.66-.006 5.66s-3.14.711-4.877 5.418c-1.373 2.91-3.134 3.62-4.537 4.112.984-.838 1.591-2.01 1.749-2.879-1.907 2.156-3.614 3.432-5.922 4.38zM76.345 83.44a26.744 26.744 0 01-2.684-.723c-.104-.036-.207-.067-.316-.103.395-.158.79-.334 1.215-.528.576-.268.99-.942 1.275-1.677a8.372 8.372 0 00.431-1.634c.024-.151.049-.291.061-.419.049-.388.043-.65.012-.65-.024 0-.079.122-.164.316l-.249.59c-.249.582-.595 1.336-1.02 1.949-.304.437-.644.808-1.02.984-1.276.59-1.932 1.045-3.201 1.446l-.444.133c-1.512.407-2.338.37-3.492.085l-.067-.018c-.091-.024-.182-.049-.28-.073a11.848 11.848 0 00-1.105-.249 13.793 13.793 0 00-.795-.103c-.322-.037-.632-.067-1.015-.152-.267-.06-.425-.158-.48-.286-.048-.121-.024-.297.067-.528.08-.213.219-.462.413-.76.656-1.007 2.163-.94 3.256-.582 1.397.461 2.271.11 2.776-.48.048-.06.103-.121.157-.182.656-.73.468-1.585.255-2.594-.109-.528-.224-1.093-.23-1.712 0-.146 0-.292.012-.444-.055-.024-.188.164-.304.492-.14.383-.255.966-.212 1.67.006.061 0 .116.006.177l.024.242c.115 1.112.121 1.13-.365 1.683-.054.067-.109.127-.163.188-.019.018-.03.037-.05.055-.163-.116-.63-.504-1.068-1.379a.191.191 0 00-.037-.097c-.012-.024-.03-.043-.042-.06-.085-.19-.17-.402-.255-.633a9.519 9.519 0 01-.365-1.439 10.374 10.374 0 01-.127-.954 15.469 15.469 0 01.012-3.14c.188-1.767.71-3.455 1.61-5.247l.109-.2c.146-.28.285-.56.45-.839.418-.728.886-1.25 1.372-1.633a4 4 0 011.555-.76c.37-.09.735-.115 1.069-.109a5.2 5.2 0 011.791.37c2.066.839 3.037 2.533 2.551 4.434-.121.468-.26.905-.394 1.33-.56 1.768-.711 3.08.99 4.21.735.491 1.488.643 2.86 1.117.747 3.71-1.627 7.592-4.385 8.916zm17.583-.565a.741.741 0 01-.194.176c-.389.237-.954.025-1.64-.285a7.02 7.02 0 00-.334-.146 7.068 7.068 0 00-.79-.28 4.351 4.351 0 00-1.25-.175c.279-.195.4-.432.443-.638.042-.2.006-.365-.043-.407-.012-.012-.079.036-.2.121-.322.225-1.045.735-2.157 1.251a14.81 14.81 0 01-1.645.644c-.936.304-2.71.553-4.556.687 3.438-1.009 5.521-4.27 6.39-5.248 1.47.152 2.393 1.354 2.782 1.634.449.322.91.516 1.822.668.953.164 1.093.37 1.117.802-.34-.17-1.148-.31-1.524-.091.868.054 1.712.662 1.84.983.03.061.049.158-.06.304zm3.796-11.928c-1.84-.11-3.006-.662-3.917-1.385-.747-.59-1.33-1.3-1.962-1.968-.54-.577-1.39-.966-1.84-.103-.395.759-.03 1.621.042 2.41.128 1.373-.528 2.691-1.263 3.803-.219.334-.565.905-1.014 1.597.352-1.202.656-2.678.771-4.355-.729 2.667-2.217 5.716-3.365 7.866-1.621 1.864-3.626 3.54-5.812 3.784 1.864-2.035 2.526-4.252 2.812-5.983-.195-1.682-.438-5.679 1.16-8.26-.316.96-.413 2.174-.401 3.395.128-.437.267-.862.462-1.275.613-1.312 1.706-2.156 2.696-3.17.996-1.027.292-2.175-.82-2.716-1.682-.82-5.38-4.573-6.444-11.327-.45 1.895-.297 4.246-.036 5.66-1.81-3.698-.79-8.095-1.367-12.067-.322-2.23-1.445-3.924-3.698-4.507a9.718 9.718 0 00-1.561-.255.328.328 0 01-.08-.012c-.303.097-.643.273-.892.62a1.901 1.901 0 001.057.807.66.66 0 00.297-.462c.037-.23-.03-.48-.158-.71.025.012.049.012.08.024.43.194.74.632.685.978-.018.14-.109.23-.224.291.516.025.917-.09.917-.09s-1.166.686-1.907.315c-.14-.067-.28-.145-.413-.218-.444-.25-.82-.498-.978-.602a.922.922 0 01-.079-.054s.122-.31.42-.596a1.58 1.58 0 01.51-.334c.005-.006.017-.006.024-.006-.03 0-.061-.006-.091-.006-.086 0-.164-.006-.25-.012-2.617-.146-3.024-1.209-3.024-1.209.984.377 2.235.347 3.638.28l1.154-.055c.206-.006.419-.018.632-.024 2.058-.049 3.814.753 5.375 2.751a.646.646 0 00-.2.11c-.45.37-.329 1.269.279 2.01.012.018.03.03.042.042.267.31.571.535.875.662.34.14.668.158.91.019.043.079.092.164.134.243.577 1.032 1.142 2.186 1.938 3.747 1.02 2.004 1.864 4.118 3.122 5.995 1.366 2.046 3.553 3.4 5.46 4.944 1.822 1.482 3.389 3.055 5.4 4.318 2.793 1.755 6.146 1.464 8.921 3.62-3.99.328-5.508 1.621-8.017 1.47z" fill="#424346"/><path d="M48.048 69.524H11.88v-6.638c-.547.2-1.124.364-1.719.486v7.877H48c-.019-.583 0-1.16.048-1.725zM11.886 40.05V1.724h67.8v21.53a10.35 10.35 0 011.718-.746V0H10.161v40.037c.14 0 .28-.006.42-.006.455 0 .886.006 1.305.018zm-4.215 8.399l-7.082-.747c.267-1.24.65-2.21 1.154-2.921.504-.711 1.227-1.325 2.174-1.847.68-.376 1.616-.668 2.806-.874a22.56 22.56 0 013.857-.31c2.223 0 4.003.127 5.351.37 1.348.25 2.472.766 3.365 1.555.631.547 1.13 1.318 1.494 2.32.364 1.002.547 1.956.547 2.867v8.54c0 .91.054 1.621.17 2.137.115.517.364 1.173.753 1.974h-6.955c-.279-.498-.461-.874-.546-1.136-.085-.26-.17-.668-.255-1.226-.972.935-1.938 1.603-2.891 2.004-1.312.534-2.837.802-4.568.802-2.308 0-4.057-.535-5.253-1.604C.595 59.284 0 57.966 0 56.405c0-1.47.431-2.678 1.294-3.62.862-.947 2.453-1.651 4.767-2.113 2.782-.559 4.58-.948 5.406-1.172.826-.225 1.7-.517 2.624-.881 0-.911-.188-1.549-.565-1.913-.377-.365-1.039-.547-1.986-.547-1.215 0-2.126.195-2.733.583-.462.304-.845.875-1.136 1.707zm6.426 3.9c-1.02.364-2.083.686-3.183.965-1.506.4-2.46.795-2.86 1.184-.413.401-.62.857-.62 1.367 0 .583.2 1.057.607 1.427.407.37 1.003.553 1.792.553.826 0 1.591-.2 2.302-.602.71-.4 1.215-.886 1.512-1.463.298-.577.444-1.324.444-2.247v-1.185h.006z" fill="#424346"/><path d="M26.032 34.838h7.428V61.52h-7.428V34.84zm21.098 0v7.355h4.076v5.424H47.13v6.851c0 .826.08 1.367.237 1.634.243.413.668.62 1.276.62.546 0 1.312-.159 2.296-.474l.546 5.114c-1.834.4-3.54.6-5.132.6-1.846 0-3.2-.236-4.075-.71s-1.519-1.19-1.938-2.156c-.419-.966-.625-2.526-.625-4.683v-6.796H36.98v-5.424h2.734v-3.547l7.415-3.808zM17.151 12.967h4.562v6.165c.45-.516.965-.905 1.536-1.166.571-.261 1.209-.389 1.901-.389 1.434 0 2.624.565 3.566 1.695.94 1.13 1.409 2.745 1.409 4.859 0 1.409-.213 2.648-.644 3.717-.431 1.069-1.02 1.87-1.78 2.405a4.318 4.318 0 01-2.526.795c-.79 0-1.519-.188-2.175-.558-.498-.292-1.038-.838-1.621-1.64v1.907H17.15v-17.79zm4.525 11.31c0 1.105.189 1.912.571 2.41.383.499.863.748 1.452.748.54 0 .996-.243 1.36-.735.365-.492.547-1.312.547-2.472 0-1.02-.182-1.768-.54-2.248-.36-.48-.796-.716-1.307-.716-.613 0-1.117.249-1.506.747-.382.498-.577 1.251-.577 2.265zm14.73-2.236l-4.319-.498c.164-.826.395-1.476.705-1.95.31-.473.747-.886 1.324-1.232.413-.25.984-.444 1.707-.583a12.4 12.4 0 012.35-.207c1.354 0 2.442.085 3.262.25.82.163 1.506.51 2.052 1.038.383.364.687.88.911 1.548a5.99 5.99 0 01.334 1.914v5.69c0 .608.037 1.082.104 1.428.073.346.224.783.461 1.318h-4.239a5.298 5.298 0 01-.334-.76 6.16 6.16 0 01-.158-.82c-.595.626-1.178 1.07-1.767 1.337-.802.358-1.725.534-2.788.534-1.403 0-2.472-.358-3.201-1.069-.729-.71-1.093-1.59-1.093-2.63 0-.977.261-1.785.79-2.41.522-.632 1.494-1.1 2.909-1.41 1.694-.37 2.794-.631 3.298-.783a14.526 14.526 0 001.597-.59c0-.607-.115-1.032-.346-1.275-.231-.243-.632-.364-1.209-.364-.74 0-1.294.127-1.664.388-.273.2-.51.577-.686 1.136zm3.917 2.6c-.62.243-1.27.455-1.944.644-.917.267-1.5.528-1.743.79-.249.266-.376.57-.376.91 0 .389.121.705.37.954.25.249.614.37 1.094.37.504 0 .971-.133 1.403-.4.43-.268.74-.596.923-.979.182-.382.273-.886.273-1.5v-.79zm6.327 2.532l4.483-.461c.182.583.443.996.777 1.251.334.249.778.377 1.33.377.608 0 1.075-.14 1.41-.426a.975.975 0 00.388-.79c0-.351-.17-.63-.51-.825-.243-.14-.893-.31-1.944-.51-1.567-.298-2.66-.577-3.267-.832-.608-.256-1.124-.687-1.543-1.294-.42-.608-.626-1.3-.626-2.071 0-.85.225-1.58.675-2.193.449-.613 1.075-1.075 1.864-1.372.79-.304 1.853-.456 3.183-.456 1.403 0 2.441.115 3.116.352a4.069 4.069 0 011.676 1.094c.45.492.82 1.16 1.117 2.004l-4.282.461c-.109-.413-.297-.716-.552-.91-.352-.262-.784-.39-1.288-.39-.51 0-.88.098-1.117.298-.231.2-.353.438-.353.723 0 .316.146.553.444.717.297.164.941.31 1.931.437 1.5.188 2.618.443 3.353.777.735.334 1.294.802 1.682 1.416.389.613.583 1.287.583 2.022 0 .741-.206 1.47-.613 2.168-.413.705-1.057 1.264-1.944 1.677-.886.419-2.09.625-3.614.625-2.156 0-3.686-.334-4.597-1.008-.917-.668-1.506-1.622-1.762-2.86zm27.77-1.639h-9.057c.08.795.28 1.384.59 1.773.437.559 1.008.838 1.706.838a2.38 2.38 0 001.263-.364c.243-.152.505-.425.79-.814l4.452.45c-.68 1.293-1.5 2.222-2.466 2.781-.96.565-2.344.844-4.142.844-1.561 0-2.788-.243-3.687-.723-.893-.48-1.634-1.244-2.223-2.295-.589-1.045-.88-2.278-.88-3.693 0-2.017.589-3.644 1.767-4.89 1.178-1.244 2.812-1.87 4.89-1.87 1.688 0 3.018.28 3.996.838.978.559 1.719 1.367 2.229 2.43.51 1.056.765 2.441.765 4.136v.558h.006zm-4.6-2.364c-.09-.954-.322-1.64-.704-2.053-.383-.413-.88-.62-1.506-.62-.717 0-1.294.31-1.72.936-.273.389-.449.966-.522 1.737h4.452z" fill="#424346"/></svg>