<svg width="162" height="47" viewBox="0 0 162 47" fill="none" xmlns="http://www.w3.org/2000/svg"><path d="M160.432 29.52a.253.253 0 00-.065-.096.261.261 0 00-.212-.07.265.265 0 00-.109.036c-1.632.964-3.546 1.53-5.271 1.53-4.014 0-7.087-3.132-7.087-7.258 0-4.076 3.073-7.206 7.087-7.206 1.724 0 3.632.564 5.268 1.523a.265.265 0 00.384-.13l1.389-3.49a.284.284 0 00.005-.184.273.273 0 00-.111-.147 12.968 12.968 0 00-6.933-1.986c-6.69 0-11.944 5.07-11.944 11.681 0 6.563 5.254 11.632 11.944 11.632a12.988 12.988 0 006.933-1.986.274.274 0 00.111-.147.284.284 0 00-.005-.184l-1.384-3.519zM7.225 12.03a12.96 12.96 0 00-6.933 1.987.276.276 0 00-.107.331l1.388 3.49a.265.265 0 00.384.13c1.635-.96 3.544-1.524 5.268-1.524a6.934 6.934 0 014.126 1.293 6.967 6.967 0 012.565 3.49H4.891a.27.27 0 00-.271.271v3.452a.27.27 0 00.27.272h9.26a6.985 6.985 0 01-2.434 4.11 6.948 6.948 0 01-4.5 1.577c-1.725 0-3.631-.567-5.27-1.53a.267.267 0 00-.322.033.266.266 0 00-.064.096L.17 33.003a.277.277 0 00.107.33 12.982 12.982 0 006.933 1.988c6.69 0 11.944-5.07 11.944-11.632.015-6.588-5.24-11.659-11.93-11.659zm48.81 7.063h-3.991v-6.954a.27.27 0 00-.195-.26.272.272 0 00-.114-.008l-4.465.631a.269.269 0 00-.233.268v21.643a.272.272 0 00.27.272h8.728c5.71 0 9.151-2.679 9.151-7.684 0-5.004-3.559-7.908-9.151-7.908zm-.178 11.443h-3.813v-7.07h3.813c2.63 0 4.184 1.413 4.184 3.535-.003 2.553-1.654 3.535-4.184 3.535zM26.694 12.529a.27.27 0 00-.267.226c-.165 1.007-.85 5.192-1.51 8.978-.33 1.922-.919 4.984-1.463 6.113-.81 1.672-2.17 2.518-3.894 2.915a.268.268 0 00-.205.331l1.01 3.974a.277.277 0 00.3.205c3.974-.462 6.407-2.003 7.714-6.922.731-2.753 2.33-11.354 2.33-11.354h5.559v17.486a.272.272 0 00.27.272h4.424a.27.27 0 00.27-.272V12.793a.272.272 0 00-.27-.271l-14.268.007zm79.78-.262c-2.528 0-5.002 1.149-6.535 2.475v-2.598a.273.273 0 00-.307-.268l-4.457.621a.268.268 0 00-.235.268V45.38a.273.273 0 00.271.273h4.465a.268.268 0 00.25-.169.273.273 0 00.02-.104V33.31c1.736 1.067 3.845 1.678 6.24 1.678 6.603 0 11.261-4.767 11.261-11.258-.008-6.842-4.889-11.463-10.973-11.463zm-.359 18.317c-3.856 0-6.497-2.965-6.497-6.778 0-3.953 2.782-6.918 6.638-6.918 3.809 0 6.678 2.965 6.678 6.824 0 3.953-2.963 6.872-6.819 6.872zM80.265 12.7c-2.928 0-5.368 1.079-6.728 2.58.914-4.09 2.591-5.617 5.282-6.57 1.751-.622 3.699-.901 5.42-1.343 2.71-.696 3.454-1.186 4.888-1.893a.276.276 0 00.137-.349L87.57.986a.265.265 0 00-.36-.144 22.339 22.339 0 01-4.234 1.526c-1.77.428-4.006.979-6.015 1.68-7.322 2.549-8.913 8.785-8.946 17.472v.247h.008c.094 8.74 5.145 13.108 11.543 13.108 6.551 0 11.37-4.728 11.37-11.158C90.928 17.429 86.3 12.7 80.265 12.7zm-.882 17.185a6.222 6.222 0 01-3.463-1.056 6.25 6.25 0 01-2.296-2.807 6.272 6.272 0 011.355-6.816 6.23 6.23 0 016.796-1.353 6.24 6.24 0 012.798 2.304 6.268 6.268 0 01-.779 7.898 6.228 6.228 0 01-4.41 1.83zm62.933-17.357h-5.086a.274.274 0 00-.246.166l-6.478 14.046-6.872-14.05a.27.27 0 00-.243-.152h-5.135a.273.273 0 00-.23.126.268.268 0 00-.014.263l9.618 20.023s-1.829 4.208-2.705 5.486c-.991 1.43-2.194 2.742-4.35 3.52a.27.27 0 00-.178.3l.725 4.117a.27.27 0 00.119.18.269.269 0 00.211.04c2.718-.583 4.237-1.306 6.079-3.208 1.515-1.568 2.894-4.253 3.84-6.291 3.187-6.866 10.009-21.61 11.194-24.172a.268.268 0 00-.011-.268.273.273 0 00-.238-.126z" fill="#424346"/></svg>