<?xml version="1.0" encoding="UTF-8"?><!DOCTYPE svg PUBLIC "-//W3C//DTD SVG 1.1//EN" "http://www.w3.org/Graphics/SVG/1.1/DTD/svg11.dtd"><svg xmlns="http://www.w3.org/2000/svg" xmlns:xlink="http://www.w3.org/1999/xlink"><defs>
        <clipPath id="clip0_1113_22113">
            <path fill="#fff" d="M0 0h207v35H0z"/>
        </clipPath>
    </defs><symbol id="ico-color-arrow-circle" viewBox="0 0 40 40">
    <circle r="19.5" transform="matrix(-1 0 0 1 20 20)" stroke="#EBEBEF"/>
    <path d="M22 11.002l-2 4.5-2 4.5 4 9" stroke="#EBEBEF" stroke-linecap="round" stroke-linejoin="round"/>
</symbol><symbol id="ico-color-emblem" viewBox="0 0 32 33">
    <path d="M11.873 0L2.138 5.563A4.225 4.225 0 000 9.228v11.088l3.36-1.92V9.228c0-.324.175-.624.458-.786l8.055-4.602V0z" fill="#D91745"/>
    <path d="M13.537 32.433L3.8 26.87l3.36-1.92 8.056 4.603a.925.925 0 00.916 0l8.022-4.584 3.36 1.92-9.702 5.544a4.315 4.315 0 01-4.276 0z" fill="#D91745"/>
    <path d="M31.35 20.354V9.228c0-1.512-.815-2.91-2.138-3.665L19.509.019v3.84l8.023 4.583a.905.905 0 01.458.786v9.206l3.36 1.92z" fill="#D91745"/>
    <path d="M22.444 22.183l.657-1.12-7.436-4.219-7.49 4.25.64 1.088h13.63z" fill="#D91745"/>
    <path d="M7.397 19.703l7.49-4.249v-8.69h-1.088L6.797 18.683l.6 1.021z" fill="#D91745"/>
    <path d="M16.438 6.765v8.69l7.436 4.218.64-1.087-6.945-11.821h-1.131z" fill="#D91745"/>
</symbol><symbol id="ico-color-logo" viewBox="0 0 173 33">
    <path d="M52.8 10.726H41.25v11.55h3.529v-8.868H52.8v-2.682z" fill="#fff"/>
    <path d="M62.914 16.705c.664 0 1.19-.02 1.571-.062.382-.042.672-.116.87-.225a.75.75 0 00.36-.492c.057-.218.085-.505.085-.86v-.144c0-.354-.028-.641-.084-.86a.688.688 0 00-.362-.493c-.197-.123-.487-.205-.869-.245a15.321 15.321 0 00-1.571-.062h-4.117v3.441h4.117v.002zm-4.117 5.57h-3.522v-11.55h8.254c1.174 0 2.136.055 2.886.164.751.109 1.338.314 1.762.614.425.287.715.702.869 1.249.17.532.254 1.23.254 2.088v.307c0 .86-.085 1.563-.254 2.11-.156.532-.446.95-.87 1.25-.425.299-1.012.504-1.76.613-.75.109-1.713.163-2.887.163h-4.732v2.993z" fill="#fff"/>
    <path d="M86.625 22.276H82.62l-1.15-2.069h-7.88l-1.13 2.069h-3.984l6.795-11.55h4.538l6.817 11.55zm-6.487-4.485l-2.59-4.649h-.09l-2.545 4.649h5.225z" fill="#fff"/>
    <path d="M88.275 22.274V10.726h9.696c.916 0 1.676.047 2.281.143.62.096 1.112.26 1.48.492.365.218.627.512.78.88.156.369.233.827.233 1.373 0 .806-.148 1.405-.444 1.803-.296.396-.704.668-1.225.818v.042c.661.11 1.169.376 1.521.8.352.422.528 1.043.528 1.862 0 .655-.084 1.201-.253 1.637a2.298 2.298 0 01-.781 1.024c-.352.245-.796.423-1.332.532-.535.096-1.168.144-1.9.144H88.275v-.002zm9.971-2.457c.536 0 .901-.096 1.098-.286.211-.206.316-.505.316-.9 0-.411-.105-.704-.316-.881-.197-.178-.564-.267-1.098-.267h-6.463v2.334h6.463zm-.084-4.546c.367 0 .648-.074.844-.225.212-.15.317-.43.317-.838 0-.438-.105-.73-.316-.88-.197-.152-.48-.226-.845-.226h-6.38v2.171h6.38v-.002z" fill="#fff"/>
    <path d="M105.6 22.276h5.529l7.27-8.643h.088v8.643h3.613v-11.55h-5.617l-7.182 8.643h-.066v-8.643H105.6v11.55z" fill="#fff"/>
    <path d="M132.542 22.276h-3.582v-8.95h-5.21v-2.6h14.025v2.6h-5.233v8.95z" fill="#fff"/>
    <path d="M146.983 22.274c-1.162 0-1.784-.028-2.631-.085-.832-.044-1.542-.135-2.129-.28-.588-.157-1.069-.37-1.443-.64a2.729 2.729 0 01-.84-1.072c-.2-.442-.337-.985-.408-1.627a21.173 21.173 0 01-.107-2.312v-.342c0-.9.037-1.67.107-2.312.073-.642.208-1.185.408-1.627.201-.458.481-.82.84-1.092.374-.272.853-.479 1.443-.621.587-.142 1.297-.235 2.129-.279a34.154 34.154 0 012.631-.086h.559c1.162 0 1.779.029 2.611.086.847.043 1.564.135 2.152.279.588.142 1.061.35 1.42.62.374.272.66.637.86 1.092.2.443.338.986.408 1.627.073.642.107 1.413.107 2.313v.342c0 .9-.036 1.67-.107 2.312-.072.642-.208 1.193-.408 1.648-.2.443-.488.8-.86 1.071-.359.271-.832.478-1.42.62-.588.143-1.305.236-2.152.28-.832.057-1.449.085-2.611.085h-.559zm.429-2.804c1.048 0 1.483-.028 2.073-.085.603-.057 1.047-.194 1.333-.407.302-.227.481-.563.538-1.006.073-.442.107-1.042.107-1.798v-.191c0-.771-.036-1.379-.107-1.821-.057-.458-.236-.792-.538-1.006-.286-.228-.73-.37-1.333-.43-.588-.057-1.025-.085-2.073-.085h-.301c-1.061 0-1.505.028-2.093.085-.588.057-1.032.2-1.334.43-.286.214-.465.548-.538 1.006-.057.442-.086 1.05-.086 1.82v.192c0 .758.029 1.356.086 1.798.073.443.252.779.538 1.006.302.215.746.35 1.334.407.588.057 1.032.085 2.093.085h.301z" fill="#fff"/>
    <path d="M172.425 22.276h-3.519V17.81h-7.812v4.465h-3.519v-11.55h3.519v4.218h7.812v-4.218h3.519v11.55z" fill="#fff"/>
    <path d="M11.873 0L2.138 5.563A4.225 4.225 0 000 9.228v11.088l3.36-1.92V9.228c0-.324.175-.624.458-.786l8.055-4.602V0z" fill="#D91745"/>
    <path d="M13.537 32.433L3.8 26.87l3.36-1.92 8.056 4.603a.925.925 0 00.916 0l8.022-4.584 3.36 1.92-9.702 5.544a4.315 4.315 0 01-4.276 0z" fill="#D91745"/>
    <path d="M31.35 20.354V9.228c0-1.512-.815-2.91-2.138-3.665L19.509.019v3.84l8.023 4.583a.905.905 0 01.458.786v9.206l3.36 1.92z" fill="#D91745"/>
    <path d="M22.444 22.183l.657-1.12-7.436-4.219-7.49 4.25.64 1.088h13.63z" fill="#D91745"/>
    <path d="M7.397 19.703l7.49-4.249v-8.69h-1.088L6.797 18.683l.6 1.021z" fill="#D91745"/>
    <path d="M16.438 6.765v8.69l7.436 4.218.64-1.087-6.945-11.821h-1.131z" fill="#D91745"/>
</symbol><symbol id="ico-color-minlogo" viewBox="0 0 207 35">
    <g clip-path="url(#clip0_1113_22113)" fill="#656669">
        <path d="M35.295 26.742H17.611a4.12 4.12 0 00-1.427.506 4.052 4.052 0 00-1.23 1.148l-3.566 6.173h28.433l-4.526-7.827z"/>
        <path d="M25.371 24.272c.519.29 1.093.467 1.685.518h7.108L19.898 0l-4.55 7.901L24.03 23c.347.52.805.954 1.341 1.272z"/>
        <path d="M18.176 17.752a4.037 4.037 0 00-.38-1.729l-3.543-6.148L0 34.566h9.1l8.61-14.963a4.135 4.135 0 00.466-1.852z"/>
        <path d="M60.26 16.248c0-.358.27-12.099.27-12.099l-3.185 12.099h-2.46L51.652 4.149s.259 11.617.259 12.099h-2.644V1.52h3.984l2.866 10.938L58.944 1.52h3.972v14.728H60.26z"/>
        <path d="M78.264 16.248h-2.742v-9.63l-6.567 7.877v1.753h-2.743V1.52h2.743v9.592l6.567-7.889V1.52h2.742v14.728z"/>
        <path d="M90.649 16.248V9.557h-6.297v6.69h-2.767V1.52h2.767v5.543h6.297V1.52h2.816v14.728h-2.816z"/>
        <path d="M108.37 1.52v14.728h-2.742V4.026h-6.15v12.222h-2.742V1.52h11.634z"/>
        <path d="M117.422 1.52c3.037 0 5.214 1.876 5.214 4.938 0 2.679-1.537 4.815-5.362 4.815h-2.804v5.012h-2.742V1.52h5.694zm-2.952 7.469h2.46c1.955 0 2.927-.914 2.927-2.655 0-2.37-1.907-2.469-3.235-2.469h-2.152V8.99z"/>
        <path d="M131.048 1.148c4.464 0 7.022 3.704 7.022 7.655 0 3.345-1.808 7.827-7.084 7.827-4.316 0-6.985-3.593-6.985-7.728 0-4.136 2.816-7.754 7.047-7.754zm0 12.914c2.176 0 4.23-1.691 4.23-5.037 0-2.617-1.34-5.321-4.255-5.321-2.459 0-4.193 1.901-4.193 5.136 0 2.271 1.069 5.222 4.242 5.222h-.024z"/>
        <path d="M151.573 16.248c0-.358.27-12.099.27-12.099l-3.173 12.099h-2.459l-3.173-12.099s.27 11.617.27 12.099h-2.681V1.52h3.985l2.878 10.938 2.816-10.938h3.972v14.728h-2.705z"/>
        <path d="M163.084 4v12.247h-2.742V4h-3.997V1.531h10.785v2.47h-4.046z"/>
        <path d="M175.603 1.148c4.477 0 7.022 3.704 7.022 7.655 0 3.345-1.807 7.827-7.083 7.827-4.317 0-6.973-3.593-6.973-7.728 0-4.136 2.804-7.754 7.034-7.754zm0 12.914c2.177 0 4.243-1.691 4.243-5.037 0-2.617-1.377-5.358-4.28-5.358-2.459 0-4.206 1.901-4.206 5.136.025 2.308 1.132 5.259 4.268 5.259h-.025z"/>
        <path d="M190.976 1.52c3.037 0 5.214 1.876 5.214 4.938 0 2.679-1.537 4.815-5.35 4.815h-2.804v5.012h-2.742V1.52h5.682zm-2.94 7.469h2.399c1.955 0 2.939-.914 2.939-2.655 0-2.37-1.919-2.469-3.247-2.469h-2.091V8.99z"/>
        <path d="M207 1.52v2.469h-6.026V16.21h-2.743V1.52H207z"/>
        <path d="M54.96 19.89c3.025 0 5.214 1.877 5.214 4.939 0 2.679-1.537 4.827-5.362 4.827h-2.804v4.914h-2.742V19.89h5.694zm-2.952 7.47h2.46c1.955 0 2.927-.914 2.927-2.642 0-2.383-1.907-2.47-3.235-2.47h-2.152v5.112z"/>
        <path d="M68.586 19.52c4.464 0 7.022 3.703 7.022 7.654 0 3.333-1.796 7.827-7.084 7.827-4.316 0-6.985-3.593-6.985-7.728 0-4.136 2.816-7.753 7.047-7.753zm0 12.913c2.177 0 4.23-1.691 4.23-5.037 0-2.617-1.365-5.346-4.28-5.346-2.459 0-4.193 1.89-4.193 5.124.025 2.296 1.131 5.26 4.267 5.26h-.024z"/>
        <path d="M90.526 30.506a6.664 6.664 0 01-2.445 3.272A6.624 6.624 0 0184.192 35c-3.468 0-6.862-2.383-6.862-7.889 0-3.271 1.845-7.593 6.96-7.593a5.814 5.814 0 013.806 1.184 5.854 5.854 0 012.16 3.36l-2.719.716a3.09 3.09 0 00-1.04-1.976 3.067 3.067 0 00-2.096-.753c-2.398 0-4.095 1.828-4.095 5.111 0 2 .812 5.235 4.07 5.235a3.804 3.804 0 002.279-.884 3.83 3.83 0 001.276-2.091l2.595 1.086z"/>
        <path d="M105.259 30.506a6.664 6.664 0 01-2.451 3.275 6.62 6.62 0 01-3.895 1.218c-3.468 0-6.85-2.382-6.85-7.888 0-3.272 1.845-7.593 6.96-7.593a5.826 5.826 0 013.803 1.186 5.868 5.868 0 012.162 3.357l-2.73.716a3.066 3.066 0 00-1.034-1.982 3.045 3.045 0 00-2.102-.746c-2.386 0-4.083 1.827-4.083 5.111 0 2 .8 5.235 4.07 5.235a3.795 3.795 0 002.274-.886 3.819 3.819 0 001.269-2.09l2.607 1.087z"/>
        <path d="M119.291 34.57h-2.743v-9.63l-6.554 7.877v1.753h-2.755V19.89h2.755v9.556l6.554-7.876v-1.68h2.743v14.68z"/>
        <path d="M134.676 34.57h-2.743v-9.63l-6.567 7.877v1.753h-2.742V19.89h2.742v9.556l6.567-7.876v-1.68h2.743v14.68z"/>
    </g>
    
</symbol></svg>